<?xml version="1.0" encoding="utf-8"?>
<!-- Generator: Adobe Illustrator 23.0.0, SVG Export Plug-In . SVG Version: 6.00 Build 0)  -->
<svg version="1.1" id="图层_1" xmlns="http://www.w3.org/2000/svg" xmlns:xlink="http://www.w3.org/1999/xlink" x="0px" y="0px"
	 viewBox="0 0 200 200" style="enable-background:new 0 0 200 200;" xml:space="preserve">
<style type="text/css">
	.st0{fill:#333333;}
</style>
<g>
	<circle class="st0" cx="100" cy="68.75" r="43.75"/>
</g>
<g>
	<path class="st0" d="M165.91,150h-37.5c-3.45,0-6.25-2.8-6.25-6.25s2.8-6.25,6.25-6.25h37.5c3.45,0,6.25,2.8,6.25,6.25
		S169.36,150,165.91,150z"/>
</g>
<g>
	<path class="st0" d="M147.16,168.75c-3.45,0-6.25-2.8-6.25-6.25V125c0-3.45,2.8-6.25,6.25-6.25s6.25,2.8,6.25,6.25v37.5
		C153.41,165.95,150.61,168.75,147.16,168.75z"/>
</g>
<g>
	<path class="st0" d="M134.66,162.5v-6.25h-6.25c-6.89,0-12.5-5.61-12.5-12.5s5.61-12.5,12.5-12.5h6.25V125
		c0-2.51,0.76-4.83,2.03-6.79c-10.31-7.5-22.97-11.96-36.69-11.96c-32.63,0-59.41,25-62.25,56.89c-0.27,2.99,1.98,5.61,4.98,5.61
		h93.67C135.32,166.9,134.66,164.79,134.66,162.5z"/>
</g>
</svg>
