<?xml version="1.0" encoding="utf-8"?>
<!-- Generator: Adobe Illustrator 23.0.0, SVG Export Plug-In . SVG Version: 6.00 Build 0)  -->
<svg version="1.1" id="图层_1" xmlns="http://www.w3.org/2000/svg" xmlns:xlink="http://www.w3.org/1999/xlink" x="0px" y="0px"
	 viewBox="0 0 200 200" style="enable-background:new 0 0 200 200;" xml:space="preserve">
<style type="text/css">
	.st0{fill:#333333;}
</style>
<g>
	<g>
		<path class="st0" d="M100,37.5c17.23,0,31.25,14.02,31.25,31.25S117.23,100,100,100S68.75,85.98,68.75,68.75S82.77,37.5,100,37.5
			 M100,25c-24.16,0-43.75,19.59-43.75,43.75S75.84,112.5,100,112.5s43.75-19.59,43.75-43.75S124.16,25,100,25L100,25z"/>
	</g>
</g>
<g>
	<path class="st0" d="M165.91,150h-37.5c-3.45,0-6.25-2.8-6.25-6.25s2.8-6.25,6.25-6.25h37.5c3.45,0,6.25,2.8,6.25,6.25
		S169.36,150,165.91,150z"/>
</g>
<g>
	<path class="st0" d="M147.16,168.75c-3.45,0-6.25-2.8-6.25-6.25V125c0-3.45,2.8-6.25,6.25-6.25s6.25,2.8,6.25,6.25v37.5
		C153.41,165.95,150.61,168.75,147.16,168.75z"/>
</g>
<g>
	<path class="st0" d="M37.5,175c-3.45,0-6.25-2.8-6.25-6.25C31.25,130.84,62.09,100,100,100c3.45,0,6.25,2.8,6.25,6.25
		s-2.8,6.25-6.25,6.25c-31.02,0-56.25,25.23-56.25,56.25C43.75,172.2,40.95,175,37.5,175z"/>
</g>
</svg>
