<?xml version="1.0" encoding="utf-8"?>
<!-- Generator: Adobe Illustrator 23.0.0, SVG Export Plug-In . SVG Version: 6.00 Build 0)  -->
<svg version="1.1" id="图层_1" xmlns="http://www.w3.org/2000/svg" xmlns:xlink="http://www.w3.org/1999/xlink" x="0px" y="0px"
	 viewBox="0 0 200 200" style="enable-background:new 0 0 200 200;" xml:space="preserve">
<style type="text/css">
	.st0{fill:#333333;}
</style>
<g>
	<g>
		<path class="st0" d="M100,109.37c-15.51,0-28.12-12.62-28.12-28.12S84.49,53.12,100,53.12s28.12,12.62,28.12,28.12
			S115.51,109.37,100,109.37z M100,65.62c-8.62,0-15.62,7.01-15.62,15.62S91.38,96.87,100,96.87s15.62-7.01,15.62-15.62
			S108.62,65.62,100,65.62z"/>
	</g>
</g>
<g>
	<g>
		<path class="st0" d="M132.96,143.75H67.05c-2.11,0-4.14-0.87-5.59-2.38c-1.4-1.46-2.16-3.45-2.08-5.46
			C60.3,115.76,78.14,100,100,100s39.7,15.77,40.62,35.89c0.09,2.03-0.67,4.02-2.08,5.49C137.1,142.88,135.06,143.75,132.96,143.75z
			 M72.72,131.25h54.56c-3.11-10.84-14.14-18.75-27.28-18.75C86.86,112.5,75.83,120.4,72.72,131.25z"/>
	</g>
</g>
<path class="st0" d="M156.12,18.75H43.88c-6.98,0-12.63,5.66-12.63,12.63V62.5h-9.44c-1.69,0-3.06,1.37-3.06,3.06v6.38
	c0,1.69,1.37,3.06,3.06,3.06h9.44v43.75h-9.44c-1.69,0-3.06,1.37-3.06,3.06v6.38c0,1.69,1.37,3.06,3.06,3.06h9.44v37.37
	c0,6.98,5.66,12.63,12.63,12.63h112.23c6.98,0,12.63-5.66,12.63-12.63V31.38C168.75,24.41,163.09,18.75,156.12,18.75z
	 M156.12,168.75l-112.37-0.13l0.04-37.37h9.4c1.69,0,3.06-1.37,3.06-3.06v-6.38c0-1.69-1.37-3.06-3.06-3.06H43.8L43.84,75h9.35
	c1.69,0,3.06-1.37,3.06-3.06v-6.38c0-1.69-1.37-3.06-3.06-3.06h-9.34l0.03-31.25h112.23l0.13,0.13L156.12,168.75z"/>
</svg>
