<?xml version="1.0" encoding="utf-8"?>
<!-- Generator: Adobe Illustrator 23.0.0, SVG Export Plug-In . SVG Version: 6.00 Build 0)  -->
<svg version="1.1" id="图层_1" xmlns="http://www.w3.org/2000/svg" xmlns:xlink="http://www.w3.org/1999/xlink" x="0px" y="0px"
	 viewBox="0 0 200 200" style="enable-background:new 0 0 200 200;" xml:space="preserve">
<style type="text/css">
	.st0{fill:#333333;}
</style>
<g>
	<path class="st0" d="M119.44,122.14c0,0-9.03,10.16-18.29,14.68s-19.87,7.22-31.16,4.52c-11.51-2.71-19.64-10.39-18.29-24.16
		s15.8-18.74,27.77-18.74s34.54,7.9,34.54,7.9s1.81-4.29,3.84-9.26c1.81-4.97,2.26-9.03,2.26-9.03H72.03v-4.97h23.25V73.6
		l-29.12,0.23v-6.32h29.58v-14h15.35v14.22h31.16v6.32l-31.16,0.23v8.81l25.74,0.23c0,0-0.45,4.97-3.84,14
		c-3.16,9.03-6.32,13.55-6.32,13.55l0,0l49.24,16.49c3.4-8.96,5.34-18.63,5.34-28.78c0-44.87-36.38-81.25-81.25-81.25
		S18.75,53.69,18.75,98.56c0,44.87,36.38,81.25,81.25,81.25c27.57,0,51.89-13.77,66.58-34.76L119.44,122.14z"/>
	<path class="st0" d="M74.96,106.11c-14.22,0.9-17.84,7.45-17.84,13.32s3.39,14.22,20.32,14.22s31.16-17.38,31.16-17.38
		S89.19,105.21,74.96,106.11z"/>
</g>
</svg>
