<?xml version="1.0" encoding="utf-8"?>
<!-- Generator: Adobe Illustrator 23.0.0, SVG Export Plug-In . SVG Version: 6.00 Build 0)  -->
<svg version="1.1" id="图层_1" xmlns="http://www.w3.org/2000/svg" xmlns:xlink="http://www.w3.org/1999/xlink" x="0px" y="0px"
	 viewBox="0 0 200 200" style="enable-background:new 0 0 200 200;" xml:space="preserve">
<style type="text/css">
	.st0{fill:#333333;}
	.st1{fill:none;stroke:#333333;stroke-width:2;stroke-linecap:round;stroke-miterlimit:10;}
</style>
<g>
	<path class="st0" d="M100,181.25c-44.8,0-81.25-36.45-81.25-81.25S55.2,18.75,100,18.75S181.25,55.2,181.25,100
		c0,2.73-0.13,5.44-0.4,8.1c-0.34,3.43-3.34,5.97-6.84,5.6c-3.44-0.34-5.94-3.4-5.6-6.84c0.22-2.26,0.34-4.55,0.34-6.87
		c0-37.91-30.84-68.75-68.75-68.75S31.25,62.09,31.25,100s30.84,68.75,68.75,68.75c22.75,0,44-11.24,56.84-30.06
		c1.94-2.85,5.83-3.59,8.69-1.64c2.85,1.94,3.59,5.83,1.64,8.69C152,167.97,126.89,181.25,100,181.25z"/>
</g>
<g>
	<path class="st0" d="M100,143.75c-24.12,0-43.75-19.63-43.75-43.75S75.88,56.25,100,56.25s43.75,19.63,43.75,43.75
		S124.12,143.75,100,143.75z M100,68.75c-17.23,0-31.25,14.02-31.25,31.25s14.02,31.25,31.25,31.25s31.25-14.02,31.25-31.25
		S117.23,68.75,100,68.75z"/>
</g>
<g>
	<path class="st0" d="M156.25,127.81c-13.78,0-25-11.22-25-25c0-3.45,2.8-6.25,6.25-6.25s6.25,2.8,6.25,6.25
		c0,6.89,5.61,12.5,12.5,12.5s12.5-5.61,12.5-12.5c0-3.45,2.8-6.25,6.25-6.25s6.25,2.8,6.25,6.25
		C181.25,116.6,170.03,127.81,156.25,127.81z"/>
</g>
<g>
	<path class="st1" d="M140.76,87.95"/>
</g>
<g>
	<path class="st0" d="M130.18,83.02c-2.77,0-5.3-1.86-6.04-4.66c-1.9-7.2-0.52-14.81,3.8-20.87c2-2.81,5.9-3.47,8.72-1.47
		s3.47,5.9,1.47,8.72c-2.15,3.03-2.85,6.84-1.9,10.44c0.88,3.34-1.11,6.76-4.45,7.64C131.24,82.95,130.71,83.02,130.18,83.02z"/>
</g>
</svg>
