<?xml version="1.0" encoding="utf-8"?>
<!-- Generator: Adobe Illustrator 23.0.0, SVG Export Plug-In . SVG Version: 6.00 Build 0)  -->
<svg version="1.1" id="图层_1" xmlns="http://www.w3.org/2000/svg" xmlns:xlink="http://www.w3.org/1999/xlink" x="0px" y="0px"
	 viewBox="0 0 200 200" style="enable-background:new 0 0 200 200;" xml:space="preserve">
<style type="text/css">
	.st0{fill:#333333;}
</style>
<g>
	<path class="st0" d="M173.07,57.67c0.18,0.24,0.44,0.75,0.44,1.56v84.38c0,0.81-0.26,1.32-0.44,1.56H54.5l-32.66-40.62
		c-0.62-0.77-0.63-2.37-0.02-3.17l32.94-43.71H173.07 M173.51,45.17H54.31c-3.67,0-7.16,1.82-9.54,4.97L11.84,93.86
		c-4.05,5.38-3.94,13.3,0.27,18.52l32.69,40.66c2.37,2.95,5.74,4.63,9.27,4.63h119.45c6.9,0,12.5-6.3,12.5-14.06V59.24
		C186.01,51.47,180.42,45.17,173.51,45.17L173.51,45.17z"/>
</g>
<g>
	<path class="st0" d="M97.9,76.63l35.36,35.36c2.44,2.44,2.44,6.4,0,8.84l0,0c-2.44,2.44-6.4,2.44-8.84,0L89.06,85.47
		c-2.44-2.44-2.44-6.4,0-8.84l0,0C91.5,74.19,95.46,74.19,97.9,76.63z"/>
</g>
<g>
	<path class="st0" d="M133.26,85.47L97.9,120.82c-2.44,2.44-6.4,2.44-8.84,0l0,0c-2.44-2.44-2.44-6.4,0-8.84l35.36-35.36
		c2.44-2.44,6.4-2.44,8.84,0l0,0C135.7,79.07,135.7,83.03,133.26,85.47z"/>
</g>
</svg>
