<?xml version="1.0" encoding="utf-8"?>
<!-- Generator: Adobe Illustrator 23.0.0, SVG Export Plug-In . SVG Version: 6.00 Build 0)  -->
<svg version="1.1" id="图层_1" xmlns="http://www.w3.org/2000/svg" xmlns:xlink="http://www.w3.org/1999/xlink" x="0px" y="0px"
	 viewBox="0 0 200 200" style="enable-background:new 0 0 200 200;" xml:space="preserve">
<style type="text/css">
	.st0{fill:#333333;}
</style>
<g>
	<g>
		<g>
			<path class="st0" d="M173.51,45.17H54.31c-3.67,0-7.16,1.82-9.54,4.97L11.84,93.86c-4.05,5.38-3.94,13.3,0.27,18.52l32.69,40.66
				c2.37,2.95,5.74,4.63,9.27,4.63h119.45c6.9,0,12.5-6.3,12.5-14.06V59.24C186.01,51.47,180.42,45.17,173.51,45.17z M133.26,111.99
				c2.44,2.44,2.44,6.4,0,8.84c-2.44,2.44-6.4,2.44-8.84,0l-13.26-13.26L97.9,120.82c-2.44,2.44-6.4,2.44-8.84,0
				c-2.44-2.44-2.44-6.4,0-8.84l13.26-13.26L89.06,85.47c-2.44-2.44-2.44-6.4,0-8.84c2.44-2.44,6.4-2.44,8.84,0l13.26,13.26
				l13.26-13.26c2.44-2.44,6.4-2.44,8.84,0c2.44,2.44,2.44,6.4,0,8.84L120,98.73L133.26,111.99z"/>
		</g>
	</g>
</g>
</svg>
