<?xml version="1.0" encoding="utf-8"?>
<!-- Generator: Adobe Illustrator 23.0.0, SVG Export Plug-In . SVG Version: 6.00 Build 0)  -->
<svg version="1.1" id="图层_1" xmlns="http://www.w3.org/2000/svg" xmlns:xlink="http://www.w3.org/1999/xlink" x="0px" y="0px"
	 viewBox="0 0 200 200" style="enable-background:new 0 0 200 200;" xml:space="preserve">
<style type="text/css">
	.st0{fill:#333333;}
</style>
<g>
	<g>
		<path class="st0" d="M157.64,106.25h-100c-3.45,0-6.25-2.8-6.25-6.25s2.8-6.25,6.25-6.25h100c3.45,0,6.25,2.8,6.25,6.25
			S161.09,106.25,157.64,106.25z"/>
	</g>
</g>
<g>
	<g>
		<path class="st0" d="M88.93,143.75c-1.6,0-3.2-0.61-4.42-1.83l-36.75-36.75c-1.38-1.38-2.14-3.22-2.14-5.17s0.76-3.79,2.14-5.17
			l36.75-36.75c2.44-2.44,6.4-2.44,8.84,0s2.44,6.4,0,8.84L60.27,100l33.08,33.08c2.44,2.44,2.44,6.4,0,8.84
			C92.13,143.14,90.53,143.75,88.93,143.75z"/>
	</g>
</g>
</svg>
