<?xml version="1.0" encoding="utf-8"?>
<!-- Generator: Adobe Illustrator 23.0.0, SVG Export Plug-In . SVG Version: 6.00 Build 0)  -->
<svg version="1.1" id="图层_1" xmlns="http://www.w3.org/2000/svg" xmlns:xlink="http://www.w3.org/1999/xlink" x="0px" y="0px"
	 viewBox="0 0 200 200" style="enable-background:new 0 0 200 200;" xml:space="preserve">
<style type="text/css">
	.st0{fill:#333333;}
</style>
<g>
	<path class="st0" d="M111.54,99.51h-2.85c-0.54,0-1.03,0.31-1.28,0.79l-4.88,9.73c-0.53,1.05-2.04,1.05-2.57,0l-4.88-9.73
		c-0.24-0.48-0.74-0.79-1.28-0.79h-2.85c-1.09,0-1.78,1.17-1.25,2.13l5.99,10.87c0.53,0.95-0.16,2.13-1.25,2.13h-1.66
		c-0.8,0-1.44,0.65-1.44,1.44c0,0.8,0.65,1.44,1.44,1.44h4.24c0.84,0,1.52,0.68,1.51,1.51l-0.01,0.7c-0.01,0.8-0.65,1.44-1.45,1.44
		h-4.29c-0.8,0-1.44,0.64-1.44,1.44s0.65,1.44,1.44,1.44h4.3c0.8,0,1.44,0.65,1.44,1.44v3.65c0,0.8,0.65,1.44,1.44,1.44h2.6
		c0.8,0,1.44-0.65,1.44-1.44v-3.65c0-0.8,0.65-1.44,1.44-1.44h4.34c0.8,0,1.44-0.64,1.44-1.44s-0.65-1.44-1.44-1.44h-4.34
		c-0.8,0-1.44-0.65-1.44-1.44v-0.71c0.01-0.83,0.67-1.5,1.51-1.5h4.27c0.8,0,1.44-0.65,1.44-1.44c0-0.8-0.65-1.44-1.44-1.44h-1.7
		c-1.09,0-1.78-1.17-1.25-2.13l5.99-10.87C113.34,100.7,112.65,99.53,111.54,99.51z"/>
	<path class="st0" d="M100,18.75c-44.87,0-81.25,36.38-81.25,81.25s36.38,81.25,81.25,81.25s81.25-36.38,81.25-81.25
		S144.87,18.75,100,18.75z M87.49,61.62c4.05-0.04,7.48-7,10.54-4.54c4.27,3.44,4.17,7.02,6.88,6.65c3.64-0.51,0.47-6.66,9.84-6.66
		c9.37,0,12.6,3.83,11.37,11.37c-0.61,3.77-3.35,7.97-6.23,11.39c-1.21,1.45-3.02,2.24-4.9,2.24H87.08c-1.92,0-3.72-0.86-4.97-2.32
		c-3.12-3.65-5.97-8.06-5.97-11.31C76.14,60.38,82.77,61.68,87.49,61.62z M117.3,143.44H82.7c-11.16,0-20.2-11.37-20.2-20.37
		c0-10.21,8.63-24.21,18-34.02c1.49-1.56,3.56-2.43,5.72-2.43h29.79c2.25,0,4.41,0.95,5.9,2.64c8.64,9.81,15.59,23.42,15.59,33.81
		C137.5,132.17,128.45,143.44,117.3,143.44z"/>
</g>
</svg>
