<?xml version="1.0" encoding="utf-8"?>
<!-- Generator: Adobe Illustrator 23.0.0, SVG Export Plug-In . SVG Version: 6.00 Build 0)  -->
<svg version="1.1" id="图层_1" xmlns="http://www.w3.org/2000/svg" xmlns:xlink="http://www.w3.org/1999/xlink" x="0px" y="0px"
	 viewBox="0 0 200 200" style="enable-background:new 0 0 200 200;" xml:space="preserve">
<style type="text/css">
	.st0{fill:#333333;}
</style>
<g>
	<g>
		<path class="st0" d="M175,37.5H25c-6.9,0-12.5,5.6-12.5,12.5v25h175V50C187.5,43.1,181.9,37.5,175,37.5z"/>
	</g>
	<g>
		<g>
			<path class="st0" d="M12.5,87.5V150c0,6.9,5.6,12.5,12.5,12.5h150c6.9,0,12.5-5.6,12.5-12.5V87.5H12.5z M68.75,129.94
				c0,0.69-0.56,1.25-1.25,1.25h-35c-0.69,0-1.25-0.56-1.25-1.25v-3.75c0-0.69,0.56-1.25,1.25-1.25h35c0.69,0,1.25,0.56,1.25,1.25
				V129.94z M106.25,110.57c0,1.04-0.84,1.88-1.87,1.88H33.12c-1.04,0-1.87-0.84-1.87-1.88v-2.5c0-1.04,0.84-1.87,1.87-1.87h71.25
				c1.04,0,1.87,0.84,1.87,1.87V110.57z"/>
		</g>
	</g>
</g>
</svg>
