<?xml version="1.0" encoding="utf-8"?>
<!-- Generator: Adobe Illustrator 23.0.0, SVG Export Plug-In . SVG Version: 6.00 Build 0)  -->
<svg version="1.1" id="图层_1" xmlns="http://www.w3.org/2000/svg" xmlns:xlink="http://www.w3.org/1999/xlink" x="0px" y="0px"
	 viewBox="0 0 200 200" style="enable-background:new 0 0 200 200;" xml:space="preserve">
<style type="text/css">
	.st0{fill:#333333;}
</style>
<path class="st0" d="M175,37.5H25c-6.9,0-12.5,5.6-12.5,12.5v25v12.5V150c0,6.9,5.6,12.5,12.5,12.5h150c6.9,0,12.5-5.6,12.5-12.5
	V87.5V75V50C187.5,43.1,181.9,37.5,175,37.5z M175,150H25V87.5h150V150z M25,75V50h150v25H25z"/>
<g>
	<g>
		<path class="st0" d="M104.38,112.5H33.12c-1.04,0-1.88-0.84-1.88-1.88v-2.5c0-1.04,0.84-1.88,1.88-1.88h71.25
			c1.04,0,1.88,0.84,1.88,1.88v2.5C106.25,111.66,105.41,112.5,104.38,112.5z"/>
	</g>
</g>
<g>
	<g>
		<path class="st0" d="M67.5,131.25h-35c-0.69,0-1.25-0.56-1.25-1.25v-3.75c0-0.69,0.56-1.25,1.25-1.25h35
			c0.69,0,1.25,0.56,1.25,1.25V130C68.75,130.69,68.19,131.25,67.5,131.25z"/>
	</g>
</g>
</svg>
