<?xml version="1.0" encoding="utf-8"?>
<!-- Generator: Adobe Illustrator 23.0.0, SVG Export Plug-In . SVG Version: 6.00 Build 0)  -->
<svg version="1.1" id="图层_1" xmlns="http://www.w3.org/2000/svg" xmlns:xlink="http://www.w3.org/1999/xlink" x="0px" y="0px"
	 viewBox="0 0 200 200" style="enable-background:new 0 0 200 200;" xml:space="preserve">
<style type="text/css">
	.st0{fill:#333333;}
</style>
<g>
	<polygon class="st0" points="136.98,111.74 115.19,111.74 106.62,126.58 128.41,126.58 	"/>
	<g>
		<path class="st0" d="M100,18.75c-44.87,0-81.25,36.38-81.25,81.25s36.38,81.25,81.25,81.25s81.25-36.38,81.25-81.25
			S144.87,18.75,100,18.75z M53.77,78.88c0-5.24,4.24-9.49,9.46-9.49h73.54c5.22,0,9.46,4.25,9.46,9.49v5.79H53.77V78.88z
			 M146.23,128.66c0,5.24-4.24,9.49-9.46,9.49H63.23c-5.22,0-9.46-4.25-9.46-9.49h0V96.13h92.46V128.66z"/>
	</g>
</g>
</svg>
