<?xml version="1.0" encoding="utf-8"?>
<!-- Generator: Adobe Illustrator 23.0.0, SVG Export Plug-In . SVG Version: 6.00 Build 0)  -->
<svg version="1.1" id="图层_1" xmlns="http://www.w3.org/2000/svg" xmlns:xlink="http://www.w3.org/1999/xlink" x="0px" y="0px"
	 viewBox="0 0 200 200" style="enable-background:new 0 0 200 200;" xml:space="preserve">
<style type="text/css">
	.st0{fill:#333333;}
</style>
<g>
	<path class="st0" d="M169.08,174.41H37.83c-6.89,0-12.5-5.61-12.5-12.5V30.66c0-3.45,2.8-6.25,6.25-6.25s6.25,2.8,6.25,6.25v131.25
		h131.25c3.45,0,6.25,2.8,6.25,6.25S172.53,174.41,169.08,174.41z"/>
</g>
<g>
	<path class="st0" d="M74.42,149.91c-3.45,0-6.25-2.8-6.25-6.25v-25c0-3.45,2.8-6.25,6.25-6.25s6.25,2.8,6.25,6.25v25
		C80.67,147.11,77.88,149.91,74.42,149.91z"/>
</g>
<g>
	<path class="st0" d="M101.23,149.91c-3.45,0-6.25-2.8-6.25-6.25v-50c0-3.45,2.8-6.25,6.25-6.25s6.25,2.8,6.25,6.25v50
		C107.48,147.11,104.68,149.91,101.23,149.91z"/>
</g>
<g>
	<path class="st0" d="M128.03,149.91c-3.45,0-6.25-2.8-6.25-6.25v-75c0-3.45,2.8-6.25,6.25-6.25c3.45,0,6.25,2.8,6.25,6.25v75
		C134.28,147.11,131.48,149.91,128.03,149.91z"/>
</g>
<g>
	<path class="st0" d="M154.84,149.91c-3.45,0-6.25-2.8-6.25-6.25v-100c0-3.45,2.8-6.25,6.25-6.25s6.25,2.8,6.25,6.25v100
		C161.09,147.11,158.29,149.91,154.84,149.91z"/>
</g>
</svg>
