<?xml version="1.0" encoding="utf-8"?>
<!-- Generator: Adobe Illustrator 23.0.0, SVG Export Plug-In . SVG Version: 6.00 Build 0)  -->
<svg version="1.1" id="图层_1" xmlns="http://www.w3.org/2000/svg" xmlns:xlink="http://www.w3.org/1999/xlink" x="0px" y="0px"
	 viewBox="0 0 200 200" style="enable-background:new 0 0 200 200;" xml:space="preserve">
<style type="text/css">
	.st0{fill:#333333;}
</style>
<g>
	<path class="st0" d="M101.21,79.7c-9.15,0-17.5,6.76-17.7,16.11h35.4C118.71,86.47,110.16,79.7,101.21,79.7z"/>
	<path class="st0" d="M63.62,114.31c-2.19,4.77-4.77,11.14-4.77,16.31c0,5.77,3.38,8.75,8.95,8.75c4.37,0,9.15-1.79,12.93-4.18
		C72.57,130.41,66.61,123.06,63.62,114.31z"/>
	<path class="st0" d="M127.66,61.61c-4.18,0-8.75,1.59-12.53,3.38c8.15,3.18,14.72,8.75,19.09,15.91c1.39-3.18,2.59-7.16,2.59-10.54
		C136.81,64.79,132.83,61.61,127.66,61.61z"/>
	<path class="st0" d="M100,18.75c-44.87,0-81.25,36.38-81.25,81.25s36.38,81.25,81.25,81.25c44.87,0,81.25-36.38,81.25-81.25
		S144.87,18.75,100,18.75z M139.99,106.55H83.51c0,9.74,8.55,16.9,17.9,16.9c6.36,0,12.53-3.18,15.71-8.75h20.68
		c-5.57,15.71-20.28,26.25-36.99,26.25c-5.97,0-11.93-1.39-17.3-4.18c-5.57,2.78-13.12,5.77-19.29,5.77
		c-8.35,0-11.53-4.97-11.53-12.93c0-4.57,0.99-8.95,2.39-13.32c0.6-2.78,3.98-8.55,5.37-11.33c5.97-10.74,13.72-21.48,23.27-29.63
		C76.35,78.51,68,86.66,62.83,92.63c3.98-17.7,19.89-30.43,37.98-30.43h2.39c5.97-2.78,14.52-5.77,21.28-5.77
		c7.76,0,14.72,2.98,14.72,11.93c0,4.57-1.79,9.74-3.78,14.12c3.18,5.77,4.77,12.53,4.77,19.09
		C140.19,103.17,140.19,104.96,139.99,106.55z"/>
</g>
</svg>
