<?xml version="1.0" encoding="utf-8"?>
<!-- Generator: Adobe Illustrator 23.0.0, SVG Export Plug-In . SVG Version: 6.00 Build 0)  -->
<svg version="1.1" id="图层_1" xmlns="http://www.w3.org/2000/svg" xmlns:xlink="http://www.w3.org/1999/xlink" x="0px" y="0px"
	 viewBox="0 0 200 200" style="enable-background:new 0 0 200 200;" xml:space="preserve">
<style type="text/css">
	.st0{fill:#333333;}
</style>
<path class="st0" d="M162.5,37.5h-17.39v-6.11c0-3.45-2.8-6.25-6.25-6.25s-6.25,2.8-6.25,6.25v6.11H63.86v-6.11
	c0-3.45-2.8-6.25-6.25-6.25s-6.25,2.8-6.25,6.25v6.11H37.5C30.6,37.5,25,43.1,25,50v112.5c0,6.9,5.6,12.5,12.5,12.5h125
	c6.9,0,12.5-5.6,12.5-12.5V50C175,43.1,169.4,37.5,162.5,37.5z M162.5,162.5h-125V94.51h125V162.5z M162.5,82.01h-125V50h13.86v6.25
	c0,3.45,2.8,6.25,6.25,6.25s6.25-2.8,6.25-6.25V50h68.75v6.25c0,3.45,2.8,6.25,6.25,6.25s6.25-2.8,6.25-6.25V50h17.39V82.01z"/>
<g>
	<g>
		<path class="st0" d="M66.91,120.69h-6.1c-2.76,0-5-2.24-5-5s2.24-5,5-5h6.1c2.76,0,5,2.24,5,5S69.67,120.69,66.91,120.69z"/>
	</g>
</g>
<g>
	<g>
		<path class="st0" d="M102.24,120.69h-6.1c-2.76,0-5-2.24-5-5s2.24-5,5-5h6.1c2.76,0,5,2.24,5,5S104.99,120.69,102.24,120.69z"/>
	</g>
</g>
<g>
	<g>
		<path class="st0" d="M137.55,120.69h-6.1c-2.76,0-5-2.24-5-5s2.24-5,5-5h6.1c2.76,0,5,2.24,5,5S140.31,120.69,137.55,120.69z"/>
	</g>
</g>
<g>
	<g>
		<path class="st0" d="M66.91,145.69h-6.1c-2.76,0-5-2.24-5-5s2.24-5,5-5h6.1c2.76,0,5,2.24,5,5S69.67,145.69,66.91,145.69z"/>
	</g>
</g>
<g>
	<g>
		<path class="st0" d="M102.24,145.69h-6.1c-2.76,0-5-2.24-5-5s2.24-5,5-5h6.1c2.76,0,5,2.24,5,5S104.99,145.69,102.24,145.69z"/>
	</g>
</g>
<g>
	<g>
		<path class="st0" d="M137.55,145.69h-6.1c-2.76,0-5-2.24-5-5s2.24-5,5-5h6.1c2.76,0,5,2.24,5,5S140.31,145.69,137.55,145.69z"/>
	</g>
</g>
</svg>
