<?xml version="1.0" encoding="utf-8"?>
<!-- Generator: Adobe Illustrator 23.0.0, SVG Export Plug-In . SVG Version: 6.00 Build 0)  -->
<svg version="1.1" id="图层_1" xmlns="http://www.w3.org/2000/svg" xmlns:xlink="http://www.w3.org/1999/xlink" x="0px" y="0px"
	 viewBox="0 0 200 200" style="enable-background:new 0 0 200 200;" xml:space="preserve">
<style type="text/css">
	.st0{fill:#333333;}
</style>
<path class="st0" d="M169.15,50.35H81.81v-7.12c0-3.16-2.56-5.72-5.72-5.72H50.03c-3.16,0-5.72,2.56-5.72,5.72v7.12H31.65
	c-6.9,0-12.5,5.6-12.5,12.5v87.5c0,6.9,5.6,12.5,12.5,12.5h137.5c6.9,0,12.5-5.6,12.5-12.5v-87.5
	C181.65,55.94,176.06,50.35,169.15,50.35z M100.4,137.85c-17.26,0-31.25-13.99-31.25-31.25s13.99-31.25,31.25-31.25
	s31.25,13.99,31.25,31.25S117.66,137.85,100.4,137.85z M159.95,77.25c-3.45,0-6.25-2.8-6.25-6.25s2.8-6.25,6.25-6.25
	c3.45,0,6.25,2.8,6.25,6.25S163.4,77.25,159.95,77.25z"/>
</svg>
