<?xml version="1.0" encoding="utf-8"?>
<!-- Generator: Adobe Illustrator 23.0.0, SVG Export Plug-In . SVG Version: 6.00 Build 0)  -->
<svg version="1.1" id="图层_1" xmlns="http://www.w3.org/2000/svg" xmlns:xlink="http://www.w3.org/1999/xlink" x="0px" y="0px"
	 viewBox="0 0 200 200" style="enable-background:new 0 0 200 200;" xml:space="preserve">
<style type="text/css">
	.st0{fill:#333333;}
</style>
<g>
	<g>
		<path class="st0" d="M100.4,87.85c10.34,0,18.75,8.41,18.75,18.75s-8.41,18.75-18.75,18.75s-18.75-8.41-18.75-18.75
			S90.06,87.85,100.4,87.85 M100.4,75.35c-17.26,0-31.25,13.99-31.25,31.25s13.99,31.25,31.25,31.25s31.25-13.99,31.25-31.25
			S117.66,75.35,100.4,75.35L100.4,75.35z"/>
	</g>
</g>
<g>
	<g>
		<circle class="st0" cx="159.95" cy="71" r="6.25"/>
	</g>
</g>
<path class="st0" d="M169.15,50.35h-68.42v-9.92c0-5.11-3.98-9.28-8.87-9.28H59.6c-4.89,0-8.87,4.16-8.87,9.28v9.92H31.65
	c-6.9,0-12.5,5.6-12.5,12.5v87.5c0,6.9,5.6,12.5,12.5,12.5h137.5c6.9,0,12.5-5.6,12.5-12.5v-87.5
	C181.65,55.94,176.06,50.35,169.15,50.35z M63.23,43.64h25v6.7h-25V43.64z M169.15,150.35H31.65v-87.5h137.5V150.35z"/>
</svg>
