<?xml version="1.0" encoding="utf-8"?>
<!-- Generator: Adobe Illustrator 23.0.0, SVG Export Plug-In . SVG Version: 6.00 Build 0)  -->
<svg version="1.1" id="图层_1" xmlns="http://www.w3.org/2000/svg" xmlns:xlink="http://www.w3.org/1999/xlink" x="0px" y="0px"
	 viewBox="0 0 200 200" style="enable-background:new 0 0 200 200;" xml:space="preserve">
<style type="text/css">
	.st0{fill:#333333;}
</style>
<g>
	<g>
		<path class="st0" d="M169.77,44.65c0-2.11-1.73-3.8-3.84-3.85c-37.27-0.94-55.75-15.4-62.18-21.86c-1.52-1.53-3.93-1.49-5.41,0.08
			C92.18,25.52,74.55,39.9,36.12,40.8c-2.11,0.05-3.85,1.74-3.85,3.85l0,21.19c0,56.18,37.67,94.26,57.25,110.25
			c6.71,5.49,16.27,5.47,22.97-0.04c19.56-16.09,57.29-54.37,57.29-110.21L169.77,44.65z M133.05,86.67l-30.92,30.91
			c-1.46,1.47-3.42,2.28-5.51,2.28c-2.08,0-4.04-0.81-5.51-2.29l-15.13-15.12c-1.95-1.95-1.95-5.11,0-7.07
			c1.95-1.95,5.12-1.95,7.07,0l13.57,13.57l29.36-29.35c1.95-1.95,5.12-1.95,7.07,0C135.01,81.56,135.01,84.72,133.05,86.67z"/>
	</g>
</g>
</svg>
