<?xml version="1.0" encoding="utf-8"?>
<!-- Generator: Adobe Illustrator 23.0.0, SVG Export Plug-In . SVG Version: 6.00 Build 0)  -->
<svg version="1.1" id="图层_1" xmlns="http://www.w3.org/2000/svg" xmlns:xlink="http://www.w3.org/1999/xlink" x="0px" y="0px"
	 viewBox="0 0 200 200" style="enable-background:new 0 0 200 200;" xml:space="preserve">
<style type="text/css">
	.st0{fill:#333333;}
</style>
<g>
	<path class="st0" d="M101.22,33.28c9.72,7.46,27.6,17.3,56.05,19.58l0,12.99c0,49.74-33.04,84.35-52.73,100.55
		c-1.3,1.07-2.66,1.3-3.57,1.3c-0.9,0-2.25-0.22-3.55-1.28c-19.66-16.07-52.65-50.5-52.65-100.57l0-12.96
		C73.56,50.74,91.18,41.33,101.22,33.28 M101.07,17.81c-1,0-1.99,0.4-2.74,1.2C92.18,25.52,74.55,39.9,36.12,40.8
		c-2.11,0.05-3.85,1.74-3.85,3.85l0,21.19c0,56.18,37.67,94.26,57.25,110.25c3.35,2.74,7.4,4.1,11.46,4.1
		c4.08,0,8.15-1.38,11.51-4.14c19.56-16.09,57.29-54.37,57.29-110.2l0-21.2c0-2.11-1.73-3.8-3.84-3.85
		c-37.27-0.94-55.75-15.4-62.18-21.86C103,18.18,102.03,17.81,101.07,17.81L101.07,17.81z"/>
</g>
<g>
	<path class="st0" d="M96.63,121.12c-2.42,0-4.69-0.94-6.4-2.66L75.1,103.34c-2.44-2.44-2.44-6.4,0-8.84s6.4-2.44,8.84,0
		l12.69,12.69l28.47-28.47c2.44-2.44,6.4-2.44,8.84,0s2.44,6.4,0,8.84l-30.92,30.92C101.32,120.18,99.05,121.12,96.63,121.12z"/>
</g>
</svg>
