<?xml version="1.0" encoding="utf-8"?>
<!-- Generator: Adobe Illustrator 23.0.0, SVG Export Plug-In . SVG Version: 6.00 Build 0)  -->
<svg version="1.1" id="图层_1" xmlns="http://www.w3.org/2000/svg" xmlns:xlink="http://www.w3.org/1999/xlink" x="0px" y="0px"
	 viewBox="0 0 200 200" style="enable-background:new 0 0 200 200;" xml:space="preserve">
<style type="text/css">
	.st0{fill:none;stroke:#333333;stroke-width:2;stroke-miterlimit:10;}
	.st1{fill:#333333;}
</style>
<g>
	<path class="st0" d="M66.87,26"/>
</g>
<g>
	<path class="st1" d="M154.73,163.05H57.5c-9.28,0-16.85-7.45-17.05-16.69L29.67,44.87c-0.36-3.43,2.12-6.51,5.56-6.88
		c3.43-0.31,6.51,2.12,6.88,5.56L52.94,146c0,2.51,2.04,4.55,4.55,4.55h97.23c3.45,0,6.25,2.8,6.25,6.25
		S158.18,163.05,154.73,163.05z"/>
</g>
<g>
	<path class="st1" d="M35.89,50.47c-3.45,0-6.25-2.8-6.25-6.25c0-2.51-2.04-4.56-4.55-4.56c-3.45,0-6.25-2.8-6.25-6.25
		s2.8-6.25,6.25-6.25c9.4,0,17.05,7.65,17.05,17.06C42.14,47.67,39.34,50.47,35.89,50.47z"/>
</g>
<g>
	<path class="st1" d="M156.14,131.17l-107.16,10.8c-6.21,0-5.84-5.03-5.84-11.24l-10.8-69.34c0-6.21,5.03-11.24,11.24-11.24h117.96
		c6.21,0,11.24,5.03,11.24,11.24l-5.4,58.54C167.38,126.14,162.35,131.17,156.14,131.17z"/>
</g>
<g>
	<circle class="st1" cx="74.18" cy="179.97" r="12.5"/>
</g>
<g>
	<circle class="st1" cx="136.68" cy="179.97" r="12.5"/>
</g>
</svg>
