<?xml version="1.0" encoding="utf-8"?>
<!-- Generator: Adobe Illustrator 23.0.0, SVG Export Plug-In . SVG Version: 6.00 Build 0)  -->
<svg version="1.1" id="图层_1" xmlns="http://www.w3.org/2000/svg" xmlns:xlink="http://www.w3.org/1999/xlink" x="0px" y="0px"
	 viewBox="0 0 200 200" style="enable-background:new 0 0 200 200;" xml:space="preserve">
<style type="text/css">
	.st0{fill:none;stroke:#333333;stroke-width:2;stroke-miterlimit:10;}
	.st1{fill:#333333;}
</style>
<g>
	<g>
		<path class="st0" d="M68.87,19"/>
	</g>
</g>
<path class="st1" d="M163.54,43.14H45.58c-0.26,0-0.51,0.06-0.77,0.08l-0.71-6.67c-0.01-0.05-0.04-0.09-0.05-0.14
	c-0.43-9.02-7.84-16.25-16.97-16.25c-3.45,0-6.25,2.8-6.25,6.25s2.8,6.25,6.25,6.25c2.51,0,4.55,2.04,4.55,4.55
	c0,0.12,0.06,0.22,0.07,0.33c0.01,0.11-0.04,0.21-0.03,0.32l8.88,83.68l0.18,1.99c0,0.78,0.09,1.54,0.27,2.28l1.44,13.55
	c0.2,9.23,7.77,16.68,17.05,16.68h97.24c3.45,0,6.25-2.8,6.25-6.25s-2.8-6.25-6.25-6.25H59.49c-2.51,0-4.55-2.04-4.55-4.55
	l-0.46-4.38l103.66-10.45c6.21,0,11.24-5.03,11.24-11.24l5.4-58.54C174.78,48.18,169.75,43.14,163.54,43.14z M156.94,111.73
	l-0.06,0.01L53.17,122.19L47,55.64h115.11L156.94,111.73z"/>
<g>
	<g>
		<circle class="st1" cx="76.18" cy="172.97" r="12.5"/>
	</g>
</g>
<g>
	<g>
		<circle class="st1" cx="138.68" cy="172.97" r="12.5"/>
	</g>
</g>
</svg>
