<?xml version="1.0" encoding="utf-8"?>
<!-- Generator: Adobe Illustrator 23.0.0, SVG Export Plug-In . SVG Version: 6.00 Build 0)  -->
<svg version="1.1" id="图层_1" xmlns="http://www.w3.org/2000/svg" xmlns:xlink="http://www.w3.org/1999/xlink" x="0px" y="0px"
	 viewBox="0 0 200 200" style="enable-background:new 0 0 200 200;" xml:space="preserve">
<style type="text/css">
	.st0{fill:#333333;}
</style>
<g>
	<g>
		<g>
			<path class="st0" d="M100,18.75c-44.87,0-81.25,36.38-81.25,81.25c0,44.87,36.38,81.25,81.25,81.25
				c44.87,0,81.25-36.38,81.25-81.25C181.25,55.13,144.87,18.75,100,18.75z M146.19,81.14l-46.37,46.38
				c-2.04,2.03-4.71,3.05-7.39,3.05s-5.34-1.01-7.37-3.05l-22.71-22.71c-2.44-2.44-2.44-6.4,0-8.84s6.4-2.44,8.84,0l21.25,21.25
				l44.92-44.92c2.44-2.44,6.4-2.44,8.84,0S148.63,78.7,146.19,81.14z"/>
		</g>
	</g>
</g>
</svg>
