<?xml version="1.0" encoding="utf-8"?>
<!-- Generator: Adobe Illustrator 23.0.0, SVG Export Plug-In . SVG Version: 6.00 Build 0)  -->
<svg version="1.1" id="图层_1" xmlns="http://www.w3.org/2000/svg" xmlns:xlink="http://www.w3.org/1999/xlink" x="0px" y="0px"
	 viewBox="0 0 200 200" style="enable-background:new 0 0 200 200;" xml:space="preserve">
<style type="text/css">
	.st0{fill:#333333;}
</style>
<g>
	<g>
		<g>
			<path class="st0" d="M100,31.25c37.91,0,68.75,30.84,68.75,68.75s-30.84,68.75-68.75,68.75S31.25,137.91,31.25,100
				S62.09,31.25,100,31.25 M100,18.75c-44.87,0-81.25,36.38-81.25,81.25c0,44.87,36.38,81.25,81.25,81.25s81.25-36.38,81.25-81.25
				C181.25,55.13,144.87,18.75,100,18.75L100,18.75z"/>
		</g>
	</g>
	<g>
		<g>
			<path class="st0" d="M92.43,130.58c-2.79,0-5.41-1.09-7.38-3.06l-22.71-22.7c-2.44-2.44-2.44-6.4,0-8.84s6.4-2.44,8.84,0
				l21.25,21.24l44.92-44.92c2.44-2.44,6.4-2.44,8.84,0s2.44,6.4,0,8.84l-46.37,46.37C97.84,129.49,95.22,130.58,92.43,130.58z"/>
		</g>
	</g>
</g>
</svg>
