<?xml version="1.0" encoding="utf-8"?>
<!-- Generator: Adobe Illustrator 23.0.0, SVG Export Plug-In . SVG Version: 6.00 Build 0)  -->
<svg version="1.1" id="图层_1" xmlns="http://www.w3.org/2000/svg" xmlns:xlink="http://www.w3.org/1999/xlink" x="0px" y="0px"
	 viewBox="0 0 200 200" style="enable-background:new 0 0 200 200;" xml:space="preserve">
<style type="text/css">
	.st0{fill:#333333;}
</style>
<g>
	<path class="st0" d="M79.17,93.75H33.33c-6.33,0-11.46-5.13-11.46-11.46V36.46c0-6.33,5.13-11.46,11.46-11.46h45.83
		c6.33,0,11.46,5.13,11.46,11.46v45.83C90.63,88.62,85.49,93.75,79.17,93.75z"/>
</g>
<g>
	<path class="st0" d="M160.42,93.75h-45.83c-6.33,0-11.46-5.13-11.46-11.46V36.46c0-6.33,5.13-11.46,11.46-11.46h45.83
		c6.33,0,11.46,5.13,11.46,11.46v45.83C171.88,88.62,166.74,93.75,160.42,93.75z"/>
</g>
<g>
	<path class="st0" d="M79.17,175H33.33c-6.33,0-11.46-5.13-11.46-11.46v-45.83c0-6.33,5.13-11.46,11.46-11.46h45.83
		c6.33,0,11.46,5.13,11.46,11.46v45.83C90.63,169.87,85.49,175,79.17,175z"/>
</g>
<g>
	<path class="st0" d="M137.5,175L137.5,175c-18.98,0-34.38-15.39-34.38-34.37v0c0-18.98,15.39-34.37,34.37-34.37h0
		c18.98,0,34.37,15.39,34.37,34.37v0C171.88,159.61,156.48,175,137.5,175z"/>
</g>
</svg>
