<?xml version="1.0" encoding="utf-8"?>
<!-- Generator: Adobe Illustrator 23.0.0, SVG Export Plug-In . SVG Version: 6.00 Build 0)  -->
<svg version="1.1" id="图层_1" xmlns="http://www.w3.org/2000/svg" xmlns:xlink="http://www.w3.org/1999/xlink" x="0px" y="0px"
	 viewBox="0 0 200 200" style="enable-background:new 0 0 200 200;" xml:space="preserve">
<style type="text/css">
	.st0{fill:#333333;}
</style>
<g>
	<path class="st0" d="M78.12,37.5v43.75H34.38V37.5H78.12 M79.17,25H33.33c-6.33,0-11.46,5.13-11.46,11.46v45.83
		c0,6.33,5.13,11.46,11.46,11.46h45.83c6.33,0,11.46-5.13,11.46-11.46V36.46C90.62,30.13,85.49,25,79.17,25L79.17,25z"/>
</g>
<g>
	<path class="st0" d="M159.38,37.5v43.75h-43.75V37.5H159.38 M160.42,25h-45.83c-6.33,0-11.46,5.13-11.46,11.46v45.83
		c0,6.33,5.13,11.46,11.46,11.46h45.83c6.33,0,11.46-5.13,11.46-11.46V36.46C171.88,30.13,166.74,25,160.42,25L160.42,25z"/>
</g>
<g>
	<path class="st0" d="M78.12,118.75v43.75H34.38v-43.75H78.12 M79.17,106.25H33.33c-6.33,0-11.46,5.13-11.46,11.46v45.83
		c0,6.33,5.13,11.46,11.46,11.46h45.83c6.33,0,11.46-5.13,11.46-11.46v-45.83C90.62,111.38,85.49,106.25,79.17,106.25L79.17,106.25z
		"/>
</g>
<g>
	<path class="st0" d="M137.5,118.75c12.06,0,21.87,9.81,21.87,21.88c0,12.06-9.81,21.87-21.88,21.87s-21.88-9.81-21.88-21.88
		S125.44,118.75,137.5,118.75 M137.5,106.25L137.5,106.25c-18.98,0-34.38,15.39-34.38,34.38v0c0,18.98,15.39,34.37,34.38,34.37h0
		c18.98,0,34.37-15.39,34.37-34.37v0C171.88,121.64,156.48,106.25,137.5,106.25L137.5,106.25z"/>
</g>
</svg>
