<?xml version="1.0" encoding="utf-8"?>
<!-- Generator: Adobe Illustrator 23.0.0, SVG Export Plug-In . SVG Version: 6.00 Build 0)  -->
<svg version="1.1" id="图层_1" xmlns="http://www.w3.org/2000/svg" xmlns:xlink="http://www.w3.org/1999/xlink" x="0px" y="0px"
	 viewBox="0 0 200 200" style="enable-background:new 0 0 200 200;" xml:space="preserve">
<style type="text/css">
	.st0{fill:#333333;}
</style>
<g>
	<g>
		<g>
			<path class="st0" d="M157.45,42.55c-31.73-31.73-83.17-31.73-114.9,0c-31.73,31.73-31.73,83.17,0,114.9
				c31.73,31.73,83.17,31.73,114.9,0C189.18,125.72,189.18,74.28,157.45,42.55z M130.94,122.1c2.44,2.44,2.44,6.4,0,8.84
				c-1.22,1.22-2.82,1.83-4.42,1.83c-1.6,0-3.2-0.61-4.42-1.83l-22.1-22.1l-22.1,22.1c-1.22,1.22-2.82,1.83-4.42,1.83
				s-3.2-0.61-4.42-1.83c-2.44-2.44-2.44-6.4,0-8.84l22.1-22.1l-22.1-22.1c-2.44-2.44-2.44-6.4,0-8.84s6.4-2.44,8.84,0l22.1,22.1
				l22.1-22.1c2.44-2.44,6.4-2.44,8.84,0s2.44,6.4,0,8.84l-22.1,22.1L130.94,122.1z"/>
		</g>
	</g>
</g>
</svg>
