<?xml version="1.0" encoding="utf-8"?>
<!-- Generator: Adobe Illustrator 23.0.0, SVG Export Plug-In . SVG Version: 6.00 Build 0)  -->
<svg version="1.1" id="图层_1" xmlns="http://www.w3.org/2000/svg" xmlns:xlink="http://www.w3.org/1999/xlink" x="0px" y="0px"
	 viewBox="0 0 200 200" style="enable-background:new 0 0 200 200;" xml:space="preserve">
<style type="text/css">
	.st0{fill:#333333;}
</style>
<g>
	<g>
		<g>
			<path class="st0" d="M100,31.25c18.36,0,35.63,7.15,48.61,20.14c12.99,12.99,20.14,30.25,20.14,48.61
				c0,18.36-7.15,35.63-20.14,48.61c-12.99,12.98-30.25,20.14-48.61,20.14c-18.36,0-35.63-7.15-48.61-20.14
				c-26.81-26.81-26.81-70.42,0-97.23C64.37,38.4,81.64,31.25,100,31.25 M100,18.75c-20.79,0-41.59,7.93-57.45,23.8
				c-31.73,31.73-31.73,83.17,0,114.91c15.87,15.86,36.66,23.8,57.45,23.8c20.79,0,41.59-7.93,57.45-23.8
				c31.73-31.73,31.73-83.17,0-114.91C141.59,26.68,120.79,18.75,100,18.75L100,18.75z"/>
		</g>
	</g>
	<g>
		<g>
			<path class="st0" d="M126.52,132.76c-1.6,0-3.2-0.61-4.42-1.83L69.06,77.91c-2.44-2.44-2.44-6.4,0-8.84s6.4-2.44,8.84,0
				l53.03,53.03c2.44,2.44,2.44,6.4,0,8.84C129.71,132.15,128.12,132.76,126.52,132.76z"/>
		</g>
	</g>
	<g>
		<g>
			<path class="st0" d="M73.48,132.76c-1.6,0-3.2-0.61-4.42-1.83c-2.44-2.44-2.44-6.4,0-8.84l53.03-53.03c2.44-2.44,6.4-2.44,8.84,0
				s2.44,6.4,0,8.84L77.9,130.93C76.68,132.15,75.08,132.76,73.48,132.76z"/>
		</g>
	</g>
</g>
</svg>
