<?xml version="1.0" encoding="utf-8"?>
<!-- Generator: Adobe Illustrator 23.0.0, SVG Export Plug-In . SVG Version: 6.00 Build 0)  -->
<svg version="1.1" id="图层_1" xmlns="http://www.w3.org/2000/svg" xmlns:xlink="http://www.w3.org/1999/xlink" x="0px" y="0px"
	 viewBox="0 0 200 200" style="enable-background:new 0 0 200 200;" xml:space="preserve">
<style type="text/css">
	.st0{fill:#333333;}
</style>
<g>
	<path class="st0" d="M51.8,155.32c-1.6,0-3.2-0.61-4.42-1.83c-2.44-2.44-2.44-6.4,0-8.84l97.23-97.22c2.44-2.44,6.4-2.44,8.84,0
		s2.44,6.4,0,8.84l-97.23,97.22C55,154.71,53.4,155.32,51.8,155.32z"/>
</g>
<g>
	<path class="st0" d="M149.03,155.32c-1.6,0-3.2-0.61-4.42-1.83L47.38,56.26c-2.44-2.44-2.44-6.4,0-8.84s6.4-2.44,8.84,0
		l97.23,97.22c2.44,2.44,2.44,6.4,0,8.84C152.23,154.71,150.63,155.32,149.03,155.32z"/>
</g>
</svg>
