<?xml version="1.0" encoding="utf-8"?>
<!-- Generator: Adobe Illustrator 23.0.0, SVG Export Plug-In . SVG Version: 6.00 Build 0)  -->
<svg version="1.1" id="图层_1" xmlns="http://www.w3.org/2000/svg" xmlns:xlink="http://www.w3.org/1999/xlink" x="0px" y="0px"
	 viewBox="0 0 200 200" style="enable-background:new 0 0 200 200;" xml:space="preserve">
<style type="text/css">
	.st0{fill:#333333;}
</style>
<g>
	<g>
		<g>
			<path class="st0" d="M100,18.75c-44.87,0-81.25,36.38-81.25,81.25s36.38,81.25,81.25,81.25s81.25-36.38,81.25-81.25
				S144.87,18.75,100,18.75z M130.82,120.64c-5.01,12.86-17.16,21.17-30.96,21.17c-13.39,0-25.4-7.97-30.62-20.29
				c-1.34-3.18,0.14-6.85,3.32-8.19s6.85,0.14,8.19,3.32c3.25,7.69,10.75,12.66,19.1,12.66c8.61,0,16.19-5.18,19.32-13.21
				c1.25-3.22,4.88-4.82,8.09-3.55C130.48,113.79,132.07,117.42,130.82,120.64z"/>
		</g>
	</g>
</g>
</svg>
