<?xml version="1.0" encoding="utf-8"?>
<!-- Generator: Adobe Illustrator 23.0.0, SVG Export Plug-In . SVG Version: 6.00 Build 0)  -->
<svg version="1.1" id="图层_1" xmlns="http://www.w3.org/2000/svg" xmlns:xlink="http://www.w3.org/1999/xlink" x="0px" y="0px"
	 viewBox="0 0 200 200" style="enable-background:new 0 0 200 200;" xml:space="preserve">
<style type="text/css">
	.st0{fill:#333333;}
</style>
<g>
	<g>
		<g>
			<path class="st0" d="M100,31.25c37.91,0,68.75,30.84,68.75,68.75s-30.84,68.75-68.75,68.75c-37.91,0-68.75-30.84-68.75-68.75
				S62.09,31.25,100,31.25 M100,18.75c-44.87,0-81.25,36.38-81.25,81.25s36.38,81.25,81.25,81.25c44.87,0,81.25-36.38,81.25-81.25
				S144.87,18.75,100,18.75L100,18.75z"/>
		</g>
	</g>
</g>
<g>
	<g>
		<path class="st0" d="M100.66,142.6c-13.39,0-25.4-7.97-30.62-20.29c-1.34-3.18,0.14-6.85,3.32-8.19c3.18-1.34,6.85,0.14,8.19,3.32
			c3.25,7.69,10.75,12.66,19.1,12.66c8.61,0,16.19-5.18,19.32-13.21c1.25-3.22,4.88-4.82,8.09-3.55c3.22,1.25,4.8,4.88,3.55,8.09
			C126.62,134.29,114.46,142.6,100.66,142.6z"/>
	</g>
</g>
</svg>
