<?xml version="1.0" encoding="utf-8"?>
<!-- Generator: Adobe Illustrator 23.0.0, SVG Export Plug-In . SVG Version: 6.00 Build 0)  -->
<svg version="1.1" id="图层_1" xmlns="http://www.w3.org/2000/svg" xmlns:xlink="http://www.w3.org/1999/xlink" x="0px" y="0px"
	 viewBox="0 0 200 200" style="enable-background:new 0 0 200 200;" xml:space="preserve">
<style type="text/css">
	.st0{fill:#333333;}
</style>
<g>
	<g>
		<path class="st0" d="M32.38,177.51c-2.7,0-5.33-1.06-7.31-3.03c-2.7-2.7-3.7-6.66-2.59-10.32l6.23-20.65
			c-10.61-13.04-16.2-28.3-16.2-44.35c0-42.27,39.25-76.67,87.5-76.67s87.5,34.39,87.5,76.67s-39.25,76.67-87.5,76.67
			c-12.78,0-25.14-2.4-36.79-7.15l-27.83,8.39C34.39,177.36,33.38,177.51,32.38,177.51z M100,34.99c-41.36,0-75,28.78-75,64.17
			c0,14.06,5.3,27.45,15.33,38.74l2.33,2.61l-7.07,23.44l28.38-8.55l2.1,0.92c10.68,4.65,22.09,7.02,33.94,7.02
			c41.36,0,75-28.78,75-64.17S141.36,34.99,100,34.99z"/>
	</g>
	<g>
		<circle class="st0" cx="56.25" cy="100" r="9.38"/>
	</g>
	<g>
		<circle class="st0" cx="100" cy="100" r="9.38"/>
	</g>
	<g>
		<circle class="st0" cx="143.75" cy="100" r="9.38"/>
	</g>
</g>
</svg>
