<?xml version="1.0" encoding="utf-8"?>
<!-- Generator: Adobe Illustrator 23.0.0, SVG Export Plug-In . SVG Version: 6.00 Build 0)  -->
<svg version="1.1" id="图层_1" xmlns="http://www.w3.org/2000/svg" xmlns:xlink="http://www.w3.org/1999/xlink" x="0px" y="0px"
	 viewBox="0 0 200 200" style="enable-background:new 0 0 200 200;" xml:space="preserve">
<style type="text/css">
	.st0{fill:#333333;}
</style>
<g>
	<g>
		<path class="st0" d="M100,29.58c-44.87,0-81.25,31.53-81.25,70.42c0,16.16,6.35,31,16.91,42.89l-7.21,23.91
			c-0.95,3.14,1.98,6.07,5.12,5.12l30-9.04c10.97,4.78,23.31,7.54,36.43,7.54c44.87,0,81.25-31.53,81.25-70.42
			S144.87,29.58,100,29.58z M56.25,110.22c-5.18,0-9.38-4.2-9.38-9.38s4.2-9.38,9.38-9.38s9.38,4.2,9.38,9.38
			S61.43,110.22,56.25,110.22z M100,110.22c-5.18,0-9.38-4.2-9.38-9.38s4.2-9.38,9.38-9.38s9.38,4.2,9.38,9.38
			S105.18,110.22,100,110.22z M143.75,110.22c-5.18,0-9.38-4.2-9.38-9.38s4.2-9.38,9.38-9.38s9.38,4.2,9.38,9.38
			S148.93,110.22,143.75,110.22z"/>
	</g>
</g>
</svg>
