<?xml version="1.0" encoding="utf-8"?>
<!-- Generator: Adobe Illustrator 23.0.0, SVG Export Plug-In . SVG Version: 6.00 Build 0)  -->
<svg version="1.1" id="图层_1" xmlns="http://www.w3.org/2000/svg" xmlns:xlink="http://www.w3.org/1999/xlink" x="0px" y="0px"
	 viewBox="0 0 200 200" style="enable-background:new 0 0 200 200;" xml:space="preserve">
<style type="text/css">
	.st0{fill:#333333;}
</style>
<g>
	<g>
		<path class="st0" d="M103.12,97.7L74.59,69.16c-1.95-1.95-1.95-5.12,0-7.07c1.95-1.95,5.11-1.95,7.07,0l21.47,21.47l21.47-21.47
			c1.95-1.95,5.11-1.95,7.07,0c1.95,1.95,1.95,5.12,0,7.07L103.12,97.7z"/>
	</g>
	<g>
		<path class="st0" d="M103.12,142.5c-2.76,0-5-2.24-5-5V93.75c0-2.76,2.24-5,5-5s5,2.24,5,5v43.75
			C108.12,140.26,105.88,142.5,103.12,142.5z"/>
	</g>
	<g>
		<path class="st0" d="M125,98.75H81.25c-2.76,0-5-2.24-5-5s2.24-5,5-5H125c2.76,0,5,2.24,5,5S127.76,98.75,125,98.75z"/>
	</g>
	<g>
		<path class="st0" d="M125,117.5H81.25c-2.76,0-5-2.24-5-5s2.24-5,5-5H125c2.76,0,5,2.24,5,5S127.76,117.5,125,117.5z"/>
	</g>
	<g>
		<g>
			<path class="st0" d="M174.39,43.75c0.34,0,0.61,0.27,0.61,0.61V70c0,0.8-0.42,1.53-1.04,1.83
				c-10.76,5.18-17.71,16.23-17.71,28.17s6.95,22.99,17.71,28.17c0.62,0.3,1.04,1.04,1.04,1.83v25.64c0,0.34-0.27,0.61-0.61,0.61
				H25.61c-0.34,0-0.61-0.27-0.61-0.61V130c0-0.8,0.42-1.53,1.04-1.83c10.76-5.18,17.71-16.23,17.71-28.17S36.8,77.01,26.04,71.83
				C25.42,71.53,25,70.79,25,70V44.36c0-0.34,0.27-0.61,0.61-0.61H174.39 M174.39,31.25H25.61c-7.24,0-13.11,5.87-13.11,13.11V70
				c0,5.56,3.11,10.69,8.12,13.1c6.29,3.03,10.63,9.46,10.63,16.91s-4.34,13.88-10.63,16.91c-5.01,2.41-8.12,7.54-8.12,13.1v25.64
				c0,7.24,5.87,13.11,13.11,13.11h148.78c7.24,0,13.11-5.87,13.11-13.11V130c0-5.56-3.11-10.69-8.12-13.1
				c-6.29-3.03-10.63-9.46-10.63-16.91s4.34-13.88,10.63-16.91c5.01-2.41,8.12-7.54,8.12-13.1V44.36
				C187.5,37.12,181.63,31.25,174.39,31.25L174.39,31.25z"/>
		</g>
	</g>
</g>
</svg>
