<?xml version="1.0" encoding="utf-8"?>
<!-- Generator: Adobe Illustrator 23.0.0, SVG Export Plug-In . SVG Version: 6.00 Build 0)  -->
<svg version="1.1" id="图层_1" xmlns="http://www.w3.org/2000/svg" xmlns:xlink="http://www.w3.org/1999/xlink" x="0px" y="0px"
	 viewBox="0 0 200 200" style="enable-background:new 0 0 200 200;" xml:space="preserve">
<style type="text/css">
	.st0{fill:#333333;}
</style>
<g>
	<g>
		<path class="st0" d="M179.38,83.09c5.01-2.41,8.12-7.54,8.12-13.1V44.36c0-7.24-5.87-13.11-13.11-13.11H25.61
			c-7.24,0-13.11,5.87-13.11,13.11V70c0,5.56,3.11,10.69,8.12,13.1c6.29,3.03,10.63,9.46,10.63,16.91c0,7.45-4.34,13.88-10.63,16.91
			c-5.01,2.41-8.12,7.54-8.12,13.1v25.64c0,7.24,5.87,13.11,13.11,13.11h148.78c7.24,0,13.11-5.87,13.11-13.11V130
			c0-5.56-3.11-10.69-8.12-13.1c-6.29-3.03-10.63-9.46-10.63-16.91C168.75,92.55,173.09,86.12,179.38,83.09z M131.66,69.16
			l-19.59,19.59H125c2.76,0,5,2.24,5,5s-2.24,5-5,5h-16.88v8.75H125c2.76,0,5,2.24,5,5s-2.24,5-5,5h-16.88v20c0,2.76-2.24,5-5,5
			s-5-2.24-5-5v-20H81.25c-2.76,0-5-2.24-5-5s2.24-5,5-5h16.88v-8.75H81.25c-2.76,0-5-2.24-5-5s2.24-5,5-5h12.93L74.59,69.16
			c-1.95-1.95-1.95-5.11,0-7.07c1.95-1.95,5.12-1.95,7.07,0l21.46,21.46l21.46-21.46c1.95-1.95,5.12-1.95,7.07,0
			C133.61,64.04,133.61,67.21,131.66,69.16z"/>
	</g>
</g>
</svg>
