<?xml version="1.0" encoding="utf-8"?>
<!-- Generator: Adobe Illustrator 23.0.0, SVG Export Plug-In . SVG Version: 6.00 Build 0)  -->
<svg version="1.1" id="图层_1" xmlns="http://www.w3.org/2000/svg" xmlns:xlink="http://www.w3.org/1999/xlink" x="0px" y="0px"
	 viewBox="0 0 200 200" style="enable-background:new 0 0 200 200;" xml:space="preserve">
<style type="text/css">
	.st0{fill:#333333;}
</style>
<path class="st0" d="M167.61,37.66h-16.86c-0.62-0.09-1.24-0.19-1.89-0.19h-2.44c-1.07-13.42-12.2-24.05-25.89-24.05H80.07
	c-13.69,0-24.83,10.63-25.89,24.05h-5.31c-0.65,0-1.27,0.1-1.89,0.19H30.11c-3.45,0-6.25,2.8-6.25,6.25s2.8,6.25,6.25,6.25h6.25
	v107.55c0,16.43,13.32,29.76,29.76,29.76h65.49c16.43,0,29.76-13.32,29.76-29.76V50.16h6.25c3.45,0,6.25-2.8,6.25-6.25
	S171.06,37.66,167.61,37.66z M80.07,25.92h40.46c6.8,0,12.4,5.02,13.39,11.55H66.67C67.67,30.95,73.27,25.92,80.07,25.92z
	 M73.86,147.88c0,3.45-2.8,6.25-6.25,6.25s-6.25-2.8-6.25-6.25V85.76c0-3.45,2.8-6.25,6.25-6.25s6.25,2.8,6.25,6.25V147.88z
	 M105.11,147.88c0,3.45-2.8,6.25-6.25,6.25s-6.25-2.8-6.25-6.25V85.76c0-3.45,2.8-6.25,6.25-6.25s6.25,2.8,6.25,6.25V147.88z
	 M136.36,147.88c0,3.45-2.8,6.25-6.25,6.25s-6.25-2.8-6.25-6.25V85.76c0-3.45,2.8-6.25,6.25-6.25s6.25,2.8,6.25,6.25V147.88z"/>
</svg>
