<?xml version="1.0" encoding="utf-8"?>
<!-- Generator: Adobe Illustrator 23.0.0, SVG Export Plug-In . SVG Version: 6.00 Build 0)  -->
<svg version="1.1" id="图层_1" xmlns="http://www.w3.org/2000/svg" xmlns:xlink="http://www.w3.org/1999/xlink" x="0px" y="0px"
	 viewBox="0 0 200 200" style="enable-background:new 0 0 200 200;" xml:space="preserve">
<style type="text/css">
	.st0{fill:#333333;}
</style>
<g>
	<g>
		<path class="st0" d="M148.86,49.97v107.74c0,9.51-7.74,17.26-17.26,17.26H66.12c-9.51,0-17.26-7.74-17.26-17.26V49.97H148.86
			 M148.86,37.47h-100c-6.9,0-12.5,5.6-12.5,12.5v107.74c0,16.43,13.32,29.76,29.76,29.76h65.49c16.43,0,29.76-13.32,29.76-29.76
			V49.97C161.36,43.07,155.76,37.47,148.86,37.47L148.86,37.47z"/>
	</g>
</g>
<g>
	<path class="st0" d="M167.61,50.16H30.11c-3.45,0-6.25-2.8-6.25-6.25s2.8-6.25,6.25-6.25h137.5c3.45,0,6.25,2.8,6.25,6.25
		S171.06,50.16,167.61,50.16z"/>
</g>
<g>
	<g>
		<path class="st0" d="M67.61,154.13c-3.45,0-6.25-2.8-6.25-6.25V85.76c0-3.45,2.8-6.25,6.25-6.25s6.25,2.8,6.25,6.25v62.12
			C73.86,151.33,71.06,154.13,67.61,154.13z"/>
	</g>
	<g>
		<path class="st0" d="M98.86,154.13c-3.45,0-6.25-2.8-6.25-6.25V85.76c0-3.45,2.8-6.25,6.25-6.25s6.25,2.8,6.25,6.25v62.12
			C105.11,151.33,102.31,154.13,98.86,154.13z"/>
	</g>
	<g>
		<path class="st0" d="M130.11,154.13c-3.45,0-6.25-2.8-6.25-6.25V85.76c0-3.45,2.8-6.25,6.25-6.25s6.25,2.8,6.25,6.25v62.12
			C136.36,151.33,133.56,154.13,130.11,154.13z"/>
	</g>
</g>
<g>
	<path class="st0" d="M60.22,46.92c-3.45,0-6.25-2.8-6.25-6.25v-1.14c0-14.39,11.71-26.1,26.1-26.1h40.47
		c14.39,0,26.1,11.71,26.1,26.1c0,3.45-2.8,6.25-6.25,6.25s-6.25-2.8-6.25-6.25c0-7.5-6.1-13.6-13.6-13.6H80.06
		c-7.5,0-13.6,6.1-13.6,13.6v1.14C66.47,44.12,63.67,46.92,60.22,46.92z"/>
</g>
</svg>
