<?xml version="1.0" encoding="utf-8"?>
<!-- Generator: Adobe Illustrator 23.0.0, SVG Export Plug-In . SVG Version: 6.00 Build 0)  -->
<svg version="1.1" id="图层_1" xmlns="http://www.w3.org/2000/svg" xmlns:xlink="http://www.w3.org/1999/xlink" x="0px" y="0px"
	 viewBox="0 0 200 200" style="enable-background:new 0 0 200 200;" xml:space="preserve">
<style type="text/css">
	.st0{fill:#333333;}
</style>
<g>
	<g>
		<path class="st0" d="M100,154.86c-3.45,0-6.25-2.8-6.25-6.25V36.11c0-3.45,2.8-6.25,6.25-6.25s6.25,2.8,6.25,6.25v112.5
			C106.25,152.06,103.45,154.86,100,154.86z"/>
	</g>
</g>
<g>
	<g>
		<path class="st0" d="M100,166.88c-1.95,0-3.79-0.76-5.17-2.14l-36.75-36.75c-2.44-2.44-2.44-6.4,0-8.84s6.4-2.44,8.84,0
			L100,152.23l33.08-33.08c2.44-2.44,6.4-2.44,8.84,0s2.44,6.4,0,8.84l-36.75,36.75C103.79,166.12,101.95,166.88,100,166.88z"/>
	</g>
</g>
</svg>
