<?xml version="1.0" encoding="utf-8"?>
<!-- Generator: Adobe Illustrator 23.0.0, SVG Export Plug-In . SVG Version: 6.00 Build 0)  -->
<svg version="1.1" id="图层_1" xmlns="http://www.w3.org/2000/svg" xmlns:xlink="http://www.w3.org/1999/xlink" x="0px" y="0px"
	 viewBox="0 0 200 200" style="enable-background:new 0 0 200 200;" xml:space="preserve">
<style type="text/css">
	.st0{fill:#FFFFFF;stroke:#333333;stroke-width:2;stroke-miterlimit:10;}
	.st1{fill:#FFFFFF;}
	.st2{fill:#333333;}
</style>
<g>
	<path class="st0" d="M29.58,107.49"/>
</g>
<g>
	<line class="st1" x1="30.57" y1="155.95" x2="168.5" y2="155.95"/>
	<path class="st2" d="M168.5,162.2H30.57c-3.45,0-6.25-2.8-6.25-6.25s2.8-6.25,6.25-6.25H168.5c3.45,0,6.25,2.8,6.25,6.25
		S171.95,162.2,168.5,162.2z"/>
</g>
<g>
	<path class="st2" d="M30.77,140.64L30.77,140.64l3.1-18.15c0.86-2.59,2.32-4.95,4.25-6.88l82.08-82.08c1.86-1.86,4.87-1.86,6.73,0
		l10.94,10.94c1.86,1.86,1.86,4.87,0,6.73l-82.08,82.08c-1.93,1.93-4.29,3.39-6.88,4.25L30.77,140.64z"/>
</g>
</svg>
