<?xml version="1.0" encoding="utf-8"?>
<!-- Generator: Adobe Illustrator 23.0.0, SVG Export Plug-In . SVG Version: 6.00 Build 0)  -->
<svg version="1.1" id="图层_1" xmlns="http://www.w3.org/2000/svg" xmlns:xlink="http://www.w3.org/1999/xlink" x="0px" y="0px"
	 viewBox="0 0 200 200" style="enable-background:new 0 0 200 200;" xml:space="preserve">
<style type="text/css">
	.st0{fill:#333333;}
</style>
<g>
	<path class="st0" d="M47.53,157.51H24.05c-3.33,0-6.03-2.7-6.03-6.03V73.21c0-3.33,2.7-6.03,6.03-6.03h23.47L47.53,157.51z"/>
</g>
<g>
	<path class="st0" d="M160.07,67.18H133.4c-0.44,0-0.78-0.35-0.74-0.79c0.47-5.18,2.07-34.43-20.66-45.24
		c-8.2-3.9-17.65,2.65-17.57,11.88c0.14,16.03-5.74,34.14-21.41,34.14H62.51c0,0,0,0,0,0h-7.46v90.33h23.47c0,0,0,0,0,0h57.29
		c20.62,0,32.55-17.43,37.33-38.09c4.78-20.67,7.38-31.36,7.38-31.36C180.52,76.53,171.37,67.18,160.07,67.18z"/>
</g>
</svg>
