<?xml version="1.0" encoding="utf-8"?>
<!-- Generator: Adobe Illustrator 23.0.0, SVG Export Plug-In . SVG Version: 6.00 Build 0)  -->
<svg version="1.1" id="图层_1" xmlns="http://www.w3.org/2000/svg" xmlns:xlink="http://www.w3.org/1999/xlink" x="0px" y="0px"
	 viewBox="0 0 200 200" style="enable-background:new 0 0 200 200;" xml:space="preserve">
<style type="text/css">
	.st0{fill:#333333;}
</style>
<g>
	<g>
		<path class="st0" d="M51.38,175H27.91c-6.77,0-12.28-5.51-12.28-12.28V84.45c0-6.77,5.51-12.28,12.28-12.28h23.47
			c3.45,0,6.25,2.8,6.25,6.25v90.33C57.63,172.2,54.83,175,51.38,175z M27.91,84.67l0.22,78.05l17-0.16V84.67H27.91z"/>
	</g>
	<g>
		<path class="st0" d="M133.42,175H52.65c-3.45,0-6.25-2.8-6.25-6.25V78.42c0-3.45,2.8-6.25,6.25-6.25l17.97,0
			c3.17,0,5.77-1.08,7.98-3.31c4.52-4.57,7.28-13.96,7.18-24.53c-0.06-6.68,3.27-12.81,8.89-16.4c5.38-3.43,11.97-3.86,17.61-1.18
			c21.42,10.19,24.4,33.59,24.44,45.42h20.94c14.73,0,26.71,12.17,26.71,27.13c0,0.5-0.06,0.99-0.18,1.48
			c-0.01,0.02-2.6,10.69-7.36,31.29C170.53,159.35,154.7,175,133.42,175z M58.9,162.5h74.52c20.49,0,28.37-20.83,31.24-33.25
			c4.03-17.45,6.52-27.8,7.21-30.63c-0.35-7.75-6.59-13.94-14.2-13.94H131c-1.76,0-4-0.99-5.19-2.29c-1.31-1.45-1.96-3.4-1.77-5.35
			c0.45-4.91,1.73-30.02-17.13-38.99c-2.41-1.14-4.49-0.23-5.51,0.42c-1.98,1.26-3.14,3.41-3.12,5.75
			c0.06,6.72-0.87,23.42-10.8,33.44c-4.54,4.59-10.37,7.01-16.86,7.01H58.9V162.5z"/>
	</g>
</g>
</svg>
