<?xml version="1.0" encoding="utf-8"?>
<!-- Generator: Adobe Illustrator 23.0.0, SVG Export Plug-In . SVG Version: 6.00 Build 0)  -->
<svg version="1.1" id="图层_1" xmlns="http://www.w3.org/2000/svg" xmlns:xlink="http://www.w3.org/1999/xlink" x="0px" y="0px"
	 viewBox="0 0 200 200" style="enable-background:new 0 0 200 200;" xml:space="preserve">
<style type="text/css">
	.st0{fill:#333333;}
</style>
<g>
	<path class="st0" d="M100,31.25c37.91,0,68.75,30.84,68.75,68.75s-30.84,68.75-68.75,68.75S31.25,137.91,31.25,100
		S62.09,31.25,100,31.25 M100,18.75c-44.87,0-81.25,36.38-81.25,81.25s36.38,81.25,81.25,81.25s81.25-36.38,81.25-81.25
		S144.87,18.75,100,18.75L100,18.75z"/>
</g>
<g>
	<g>
		<circle class="st0" cx="75" cy="78.12" r="12.5"/>
	</g>
	<g>
		<circle class="st0" cx="125" cy="78.12" r="12.5"/>
	</g>
</g>
<g>
	<path class="st0" d="M137.5,112.5c0,20.71-16.79,37.5-37.5,37.5s-37.5-16.79-37.5-37.5H137.5z"/>
</g>
</svg>
