<?xml version="1.0" encoding="utf-8"?>
<!-- Generator: Adobe Illustrator 23.0.0, SVG Export Plug-In . SVG Version: 6.00 Build 0)  -->
<svg version="1.1" id="图层_1" xmlns="http://www.w3.org/2000/svg" xmlns:xlink="http://www.w3.org/1999/xlink" x="0px" y="0px"
	 viewBox="0 0 200 200" style="enable-background:new 0 0 200 200;" xml:space="preserve">
<style type="text/css">
	.st0{fill:#333333;}
</style>
<g>
	<g>
		<g>
			<g>
				<path class="st0" d="M100,31.25c37.91,0,68.75,30.84,68.75,68.75s-30.84,68.75-68.75,68.75S31.25,137.91,31.25,100
					S62.09,31.25,100,31.25 M100,18.75c-44.87,0-81.25,36.38-81.25,81.25s36.38,81.25,81.25,81.25s81.25-36.38,81.25-81.25
					S144.87,18.75,100,18.75L100,18.75z"/>
			</g>
		</g>
	</g>
	<g>
		<g>
			<path class="st0" d="M127.39,73.23l-11.81,41.33l-41.33,11.81l11.81-41.33L127.39,73.23 M142.33,56.05
				c-0.2,0-0.41,0.03-0.63,0.09L77.14,74.58c-0.75,0.21-1.33,0.8-1.54,1.54l-18.45,64.56c-0.42,1.48,0.72,2.86,2.15,2.86
				c0.2,0,0.42-0.03,0.63-0.09l64.56-18.45c0.75-0.21,1.33-0.8,1.54-1.54l18.45-64.56C144.9,57.43,143.75,56.05,142.33,56.05
				L142.33,56.05z"/>
		</g>
	</g>
	<g>
		<g>
			<circle class="st0" cx="100.81" cy="99.8" r="9.38"/>
		</g>
	</g>
</g>
</svg>
