<?xml version="1.0" encoding="utf-8"?>
<!-- Generator: Adobe Illustrator 23.0.0, SVG Export Plug-In . SVG Version: 6.00 Build 0)  -->
<svg version="1.1" id="图层_1" xmlns="http://www.w3.org/2000/svg" xmlns:xlink="http://www.w3.org/1999/xlink" x="0px" y="0px"
	 viewBox="0 0 200 200" style="enable-background:new 0 0 200 200;" xml:space="preserve">
<style type="text/css">
	.st0{fill:#333333;}
</style>
<g>
	<g>
		<g>
			<path class="st0" d="M100,18.75c-44.87,0-81.25,36.38-81.25,81.25s36.38,81.25,81.25,81.25c44.87,0,81.25-36.38,81.25-81.25
				S144.87,18.75,100,18.75z M139.6,63.47l-16.39,57.35c-0.19,0.66-0.71,1.18-1.37,1.37l-57.35,16.39c-1.5,0.43-2.9-0.96-2.47-2.47
				l16.39-57.35c0.19-0.66,0.71-1.18,1.37-1.37l57.35-16.39C138.64,60.58,140.03,61.97,139.6,63.47z"/>
		</g>
	</g>
	<g>
		<g>
			<circle class="st0" cx="100.81" cy="99.8" r="12.5"/>
		</g>
	</g>
</g>
</svg>
