<?xml version="1.0" encoding="utf-8"?>
<!-- Generator: Adobe Illustrator 23.0.0, SVG Export Plug-In . SVG Version: 6.00 Build 0)  -->
<svg version="1.1" id="图层_1" xmlns="http://www.w3.org/2000/svg" xmlns:xlink="http://www.w3.org/1999/xlink" x="0px" y="0px"
	 viewBox="0 0 200 200" style="enable-background:new 0 0 200 200;" xml:space="preserve">
<style type="text/css">
	.st0{fill:#333333;}
</style>
<g>
	<g>
		<g>
			<path class="st0" d="M100.34,126.44c-0.06,0-0.12,0-0.19,0c-3.45-0.1-6.16-2.98-6.06-6.43c0.02-0.89-0.02-1.87-0.05-2.91
				c-0.24-6.57-0.68-18.8,13.42-26.1c9.2-3.86,12.08-11.05,11.06-16.58c-1.16-6.28-6.77-10.17-14.99-10.41
				C84.97,63.22,83.7,78.42,83.63,80.13c-0.13,3.45-2.87,6.2-6.48,6c-3.45-0.13-6.14-3.04-6-6.49c0.39-10.04,7.72-28.67,32.75-28.13
				c14.11,0.41,24.68,8.51,26.92,20.63c1.94,10.47-2.9,23.85-18.07,30.17c-6.26,3.27-6.45,7.58-6.2,14.33
				c0.05,1.33,0.09,2.58,0.05,3.73C106.49,123.76,103.71,126.44,100.34,126.44z"/>
		</g>
	</g>
	<g>
		<g>
			<circle class="st0" cx="101.19" cy="140.73" r="9.38"/>
		</g>
	</g>
	<g>
		<g>
			<path class="st0" d="M100,31.25c37.91,0,68.75,30.84,68.75,68.75s-30.84,68.75-68.75,68.75S31.25,137.91,31.25,100
				S62.09,31.25,100,31.25 M100,18.75c-44.87,0-81.25,36.38-81.25,81.25c0,44.87,36.38,81.25,81.25,81.25
				c44.87,0,81.25-36.38,81.25-81.25C181.25,55.13,144.87,18.75,100,18.75L100,18.75z"/>
		</g>
	</g>
</g>
</svg>
