<?xml version="1.0" encoding="utf-8"?>
<!-- Generator: Adobe Illustrator 23.0.0, SVG Export Plug-In . SVG Version: 6.00 Build 0)  -->
<svg version="1.1" id="图层_1" xmlns="http://www.w3.org/2000/svg" xmlns:xlink="http://www.w3.org/1999/xlink" x="0px" y="0px"
	 viewBox="0 0 200 200" style="enable-background:new 0 0 200 200;" xml:space="preserve">
<style type="text/css">
	.st0{fill:#333333;}
</style>
<g>
	<g>
		<path class="st0" d="M100,18.75c-44.87,0-81.25,36.38-81.25,81.25c0,44.87,36.38,81.25,81.25,81.25
			c44.87,0,81.25-36.38,81.25-81.25C181.25,55.13,144.87,18.75,100,18.75z M100.92,150.1c-5.18-0.15-9.25-4.47-9.1-9.64
			c0.15-5.18,4.47-9.25,9.64-9.1c5.18,0.15,9.25,4.47,9.1,9.64S106.09,150.25,100.92,150.1z M112.74,102.31
			c-6.26,3.27-6.45,7.58-6.21,14.34c0.05,1.32,0.09,2.58,0.05,3.72c-0.1,3.39-2.87,6.07-6.24,6.07c-0.06,0-0.12,0-0.18,0
			c-3.45-0.1-6.17-2.98-6.07-6.43c0.02-0.9-0.02-1.87-0.05-2.91c-0.24-6.57-0.68-18.81,13.42-26.1c9.2-3.86,12.08-11.06,11.05-16.58
			c-1.16-6.28-6.77-10.17-14.99-10.41c-18.54-0.78-19.83,14.42-19.9,16.12c-0.13,3.45-2.83,6.34-6.48,6.01
			c-3.45-0.13-6.14-3.03-6-6.48c0.38-10.05,7.84-28.63,32.75-28.14c14.11,0.41,24.68,8.51,26.92,20.63
			C132.75,82.61,127.91,96,112.74,102.31z"/>
	</g>
</g>
</svg>
