<?xml version="1.0" encoding="utf-8"?>
<!-- Generator: Adobe Illustrator 23.0.0, SVG Export Plug-In . SVG Version: 6.00 Build 0)  -->
<svg version="1.1" id="图层_1" xmlns="http://www.w3.org/2000/svg" xmlns:xlink="http://www.w3.org/1999/xlink" x="0px" y="0px"
	 viewBox="0 0 200 200" style="enable-background:new 0 0 200 200;" xml:space="preserve">
<style type="text/css">
	.st0{fill:none;stroke:#333333;stroke-width:2;stroke-miterlimit:10;}
	.st1{fill:#333333;}
</style>
<g>
	<path class="st0" d="M66.78,84.44"/>
</g>
<g>
	<g>
		<path class="st1" d="M99.97,31.37l56.14,57.96c0.07,0.07,0.14,0.24,0.14,0.44v78.57c0,0.25-0.09,0.38-0.07,0.41l-112.27,0.04
			c0,0-0.16-0.12-0.16-0.46V89.76c0-0.2,0.07-0.36,0.14-0.44L99.97,31.37 M99.96,18.75c-3.2,0-6.4,1.26-8.84,3.78l-56.21,58.1
			c-2.34,2.42-3.66,5.7-3.66,9.13v78.58c0,7.13,5.6,12.91,12.5,12.91h112.5c6.9,0,12.5-5.78,12.5-12.91V89.76
			c0-3.43-1.32-6.71-3.66-9.13l-56.29-58.1C106.36,20.01,103.16,18.75,99.96,18.75L99.96,18.75z"/>
	</g>
	<g>
		<path class="st1" d="M61.63,116.22c-3.45,0-6.25-2.8-6.25-6.25c0-15.82,12.87-28.68,28.69-28.68c3.45,0,6.25,2.8,6.25,6.25
			s-2.8,6.25-6.25,6.25c-8.93,0-16.19,7.26-16.19,16.18C67.88,113.42,65.09,116.22,61.63,116.22z"/>
	</g>
</g>
</svg>
