<?xml version="1.0" encoding="utf-8"?>
<!-- Generator: Adobe Illustrator 23.0.0, SVG Export Plug-In . SVG Version: 6.00 Build 0)  -->
<svg version="1.1" id="图层_1" xmlns="http://www.w3.org/2000/svg" xmlns:xlink="http://www.w3.org/1999/xlink" x="0px" y="0px"
	 viewBox="0 0 200 200" style="enable-background:new 0 0 200 200;" xml:space="preserve">
<style type="text/css">
	.st0{fill:none;stroke:#333333;stroke-width:2;stroke-miterlimit:10;}
	.st1{fill:#333333;}
</style>
<g>
	<g>
		<path class="st0" d="M66.87,26"/>
	</g>
</g>
<g>
	<g>
		<path class="st1" d="M165.71,79.64l-56.29-58.1c-4.88-5.04-12.8-5.04-17.68,0.01l-56.21,58.1c-2.34,2.42-3.66,5.7-3.66,9.13v78.58
			c0,7.13,5.6,12.91,12.5,12.91h112.5c6.9,0,12.5-5.78,12.5-12.91V88.77C169.37,85.34,168.06,82.06,165.71,79.64z M84.69,92.79
			c-8.92,0-16.19,7.26-16.19,16.19c0,3.45-2.8,6.25-6.25,6.25c-3.45,0-6.25-2.8-6.25-6.25c0-15.82,12.87-28.69,28.69-28.69
			c3.45,0,6.25,2.8,6.25,6.25S88.15,92.79,84.69,92.79z"/>
	</g>
</g>
</svg>
