<?xml version="1.0" encoding="utf-8"?>
<!-- Generator: Adobe Illustrator 23.0.0, SVG Export Plug-In . SVG Version: 6.00 Build 0)  -->
<svg version="1.1" id="图层_1" xmlns="http://www.w3.org/2000/svg" xmlns:xlink="http://www.w3.org/1999/xlink" x="0px" y="0px"
	 viewBox="0 0 200 200" style="enable-background:new 0 0 200 200;" xml:space="preserve">
<style type="text/css">
	.st0{fill:none;stroke:#333333;stroke-width:2;stroke-linecap:round;stroke-miterlimit:10;}
	.st1{fill:#333333;}
</style>
<g>
	<g>
		<path class="st0" d="M100,142.71"/>
	</g>
</g>
<g>
	<g>
		<path class="st1" d="M74.99,97.69c4.3,0,7.8-3.5,7.8-7.8c0-4.3-3.5-7.8-7.8-7.8c-4.3,0-7.8,3.5-7.8,7.8
			C67.19,94.19,70.68,97.69,74.99,97.69z"/>
	</g>
</g>
<g>
	<g>
		<g>
			<path class="st1" d="M169.2,37.5H30.8c-6.65,0-12.05,5.39-12.05,12.05v100.91c0,6.65,5.39,12.05,12.05,12.05H169.2
				c6.65,0,12.05-5.39,12.05-12.05V49.55C181.25,42.89,175.86,37.5,169.2,37.5z M101.1,135.73c-3.38,0.67-6.69-1.49-7.37-4.87
				c-1.81-8.84-9.69-15.26-18.74-15.26c-9.3,0-17.21,6.63-18.83,15.77c-0.54,3.03-3.17,5.16-6.15,5.16c-0.36,0-0.73-0.03-1.09-0.1
				c-3.4-0.6-5.67-3.84-5.07-7.24c1.9-10.75,9.12-19.32,18.63-23.42c-4.71-3.72-7.79-9.41-7.79-15.87c0-11.21,9.09-20.3,20.3-20.3
				c11.21,0,20.3,9.09,20.3,20.3c0,6.48-3.09,12.18-7.82,15.9c9.25,4.01,16.39,12.25,18.5,22.56
				C106.66,131.74,104.48,135.04,101.1,135.73z M146.88,124.93h-25c-3.45,0-6.25-2.8-6.25-6.25s2.8-6.25,6.25-6.25h25
				c3.45,0,6.25,2.8,6.25,6.25S150.33,124.93,146.88,124.93z M153.12,96.88h-31.25c-3.45,0-6.25-2.8-6.25-6.25s2.8-6.25,6.25-6.25
				h31.25c3.45,0,6.25,2.8,6.25,6.25S156.58,96.88,153.12,96.88z"/>
		</g>
	</g>
</g>
</svg>
