<?xml version="1.0" encoding="utf-8"?>
<!-- Generator: Adobe Illustrator 23.0.0, SVG Export Plug-In . SVG Version: 6.00 Build 0)  -->
<svg version="1.1" id="图层_1" xmlns="http://www.w3.org/2000/svg" xmlns:xlink="http://www.w3.org/1999/xlink" x="0px" y="0px"
	 viewBox="0 0 200 200" style="enable-background:new 0 0 200 200;" xml:space="preserve">
<style type="text/css">
	.st0{fill:#333333;}
</style>
<g>
	<g>
		<path class="st0" d="M98.98,30.92c37.91,0,68.75,30.84,68.75,68.75s-30.84,68.75-68.75,68.75s-68.75-30.84-68.75-68.75
			S61.07,30.92,98.98,30.92 M98.98,18.42c-44.87,0-81.25,36.38-81.25,81.25s36.38,81.25,81.25,81.25s81.25-36.38,81.25-81.25
			S143.85,18.42,98.98,18.42L98.98,18.42z"/>
	</g>
</g>
<g>
	<g>
		<circle class="st0" cx="98.98" cy="58.95" r="9.38"/>
	</g>
</g>
<g>
	<g>
		<path class="st0" d="M98.98,150.84c-3.45,0-6.25-2.8-6.25-6.25V88.34c0-3.45,2.8-6.25,6.25-6.25s6.25,2.8,6.25,6.25v56.25
			C105.23,148.05,102.44,150.84,98.98,150.84z"/>
	</g>
</g>
</svg>
