<?xml version="1.0" encoding="utf-8"?>
<!-- Generator: Adobe Illustrator 23.0.0, SVG Export Plug-In . SVG Version: 6.00 Build 0)  -->
<svg version="1.1" id="图层_1" xmlns="http://www.w3.org/2000/svg" xmlns:xlink="http://www.w3.org/1999/xlink" x="0px" y="0px"
	 viewBox="0 0 200 200" style="enable-background:new 0 0 200 200;" xml:space="preserve">
<style type="text/css">
	.st0{fill:#333333;}
</style>
<path class="st0" d="M163.09,62.3h-6.77V35.04c0-6.03-4.91-10.94-10.94-10.94H54.76c-6.03,0-10.94,4.91-10.94,10.94V62.3H38.2
	c-7.64,0-13.85,6.21-13.85,13.84v87.93c0,7.64,6.21,13.85,13.85,13.85h122.31c7.64,0,13.85-6.21,13.85-13.85V73.56
	C174.35,67.35,169.3,62.3,163.09,62.3z M161.85,74.8v8.04l-5.54,4.04V74.8H161.85z M56.32,36.6h87.5V96l-42.62,31.09
	c-1.1,0.8-2.59,0.8-3.69,0l-41.4-30.2c0.06-0.35,0.21-0.67,0.21-1.04V36.6z M38.2,74.8h5.62v13.13l-6.97-5.08v-6.7
	C36.85,75.4,37.46,74.8,38.2,74.8z"/>
<g>
	<g>
		<path class="st0" d="M118.12,66.18c-1.22-3.75-4.54-6.61-8.45-7.14c-4.01-0.55-7.61,1.21-9.78,4.1c-2.17-2.89-5.77-4.65-9.78-4.1
			c-3.91,0.54-7.23,3.39-8.45,7.14c-0.92,2.84-0.56,5.5,0.55,7.71c5.22,9.33,17.1,18.54,17.65,18.96v0.04c0,0,0.02-0.02,0.03-0.02
			c0,0,0.03,0.02,0.03,0.02v-0.04c0.55-0.42,12.43-9.63,17.65-18.96C118.68,71.68,119.05,69.03,118.12,66.18z"/>
	</g>
</g>
</svg>
