<?xml version="1.0" encoding="utf-8"?>
<!-- Generator: Adobe Illustrator 23.0.0, SVG Export Plug-In . SVG Version: 6.00 Build 0)  -->
<svg version="1.1" id="图层_1" xmlns="http://www.w3.org/2000/svg" xmlns:xlink="http://www.w3.org/1999/xlink" x="0px" y="0px"
	 viewBox="0 0 200 200" style="enable-background:new 0 0 200 200;" xml:space="preserve">
<style type="text/css">
	.st0{fill:#333333;}
</style>
<g>
	<path class="st0" d="M100,111.27c-29.1,0-55.83-13.54-73.34-37.15c-1.89-2.54-1.35-6.13,1.19-8.01c2.53-1.89,6.13-1.36,8.01,1.19
		C51.19,87.96,74.57,99.81,100,99.81c25.45,0,48.83-11.87,64.16-32.55c1.88-2.55,5.47-3.07,8.01-1.19c2.54,1.88,3.08,5.47,1.19,8.01
		C155.85,97.72,129.11,111.27,100,111.27z"/>
</g>
<g>
	<path class="st0" d="M24.88,116.6L24.88,116.6c-2.86-1.94-3.6-5.82-1.66-8.68l14.03-20.69c1.94-2.86,5.82-3.6,8.68-1.66l0,0
		c2.86,1.94,3.6,5.82,1.66,8.68l-14.03,20.69C31.62,117.79,27.73,118.53,24.88,116.6z"/>
</g>
<g>
	<path class="st0" d="M132.98,138.85L132.98,138.85c-3.32,0.94-6.78-0.98-7.72-4.31l-6.83-24.05c-0.94-3.32,0.98-6.78,4.31-7.72h0
		c3.32-0.94,6.78,0.98,7.72,4.31l6.83,24.05C138.23,134.45,136.3,137.9,132.98,138.85z"/>
</g>
<g>
	<path class="st0" d="M182.63,112.06L182.63,112.06c-2.61,2.26-6.56,1.97-8.82-0.64l-16.35-18.91c-2.26-2.61-1.97-6.56,0.64-8.82
		l0,0c2.61-2.26,6.56-1.97,8.82,0.64l16.35,18.91C185.52,105.85,185.24,109.8,182.63,112.06z"/>
</g>
<g>
	<path class="st0" d="M75.19,138.82L75.19,138.82c-3.41-0.55-5.73-3.76-5.18-7.16l3.98-24.68c0.55-3.41,3.76-5.73,7.16-5.18h0
		c3.41,0.55,5.73,3.76,5.18,7.16l-3.98,24.68C81.8,137.05,78.59,139.36,75.19,138.82z"/>
</g>
</svg>
