<?xml version="1.0" encoding="utf-8"?>
<!-- Generator: Adobe Illustrator 23.0.0, SVG Export Plug-In . SVG Version: 6.00 Build 0)  -->
<svg version="1.1" id="图层_1" xmlns="http://www.w3.org/2000/svg" xmlns:xlink="http://www.w3.org/1999/xlink" x="0px" y="0px"
	 viewBox="0 0 200 200" style="enable-background:new 0 0 200 200;" xml:space="preserve">
<style type="text/css">
	.st0{fill:#333333;}
</style>
<g>
	<g>
		<path class="st0" d="M101.69,102.48c-2.36-2.36-3.66-5.5-3.66-8.84s1.3-6.48,3.66-8.84s5.5-3.66,8.84-3.66s6.48,1.3,8.84,3.66
			c2.12,2.11,4.94,3.28,7.94,3.28c3,0,5.82-1.16,7.93-3.28c0.79-0.79,1.69-1.41,2.63-1.96c0.01-0.26,0.04-0.51,0.04-0.77
			c0-20.71-16.79-37.5-37.5-37.5c-20.71,0-37.5,16.79-37.5,37.5s16.79,37.5,37.5,37.5c8.13,0,15.63-2.61,21.77-7.01
			C114.45,111.49,107.29,108.09,101.69,102.48z"/>
	</g>
</g>
<g>
	<g>
		<path class="st0" d="M127.31,106.83c-7.68,0-15.36-2.92-21.2-8.76c-2.44-2.44-2.44-6.4,0-8.84s6.4-2.44,8.84,0
			c6.81,6.81,17.9,6.82,24.71,0c2.44-2.44,6.4-2.44,8.84,0s2.44,6.4,0,8.84C142.66,103.91,134.98,106.83,127.31,106.83z"/>
	</g>
</g>
<g>
	<g>
		<path class="st0" d="M40.29,106.32c-3.45,0-6.25-2.8-6.25-6.25V86.85c0-5.88,4.64-10.71,10.46-11
			c3.14-28.59,26.98-50.01,55.91-50.01c3.45,0,6.25,2.8,6.25,6.25s-2.8,6.25-6.25,6.25c-22.8,0-41.53,17.09-43.57,39.76
			c-0.5,5.6-4.87,9.88-10.3,10.22v11.76C46.54,103.53,43.74,106.32,40.29,106.32z"/>
	</g>
</g>
<g>
	<g>
		<path class="st0" d="M160.4,106.32c-3.45,0-6.25-2.8-6.25-6.25V88.32c-5.43-0.34-9.8-4.62-10.3-10.23
			c-2.04-22.66-20.78-39.75-43.57-39.75c-3.45,0-6.25-2.8-6.25-6.25s2.8-6.25,6.25-6.25c28.93,0,52.77,21.42,55.91,50.01
			c5.82,0.29,10.46,5.11,10.46,11v13.23C166.65,103.53,163.86,106.32,160.4,106.32z M155.64,88.34h0.06H155.64z"/>
	</g>
</g>
<g>
	<g>
		<path class="st0" d="M162.42,174.62c3.79,0,6.76-3.33,6.32-7.1c-3.52-30.12-29.12-53.49-60.18-53.49H92.25
			c-31.06,0-56.66,23.37-60.18,53.49c-0.44,3.77,2.53,7.1,6.32,7.1H162.42z"/>
	</g>
</g>
</svg>
