<?xml version="1.0" encoding="utf-8"?>
<!-- Generator: Adobe Illustrator 23.0.0, SVG Export Plug-In . SVG Version: 6.00 Build 0)  -->
<svg version="1.1" id="图层_1" xmlns="http://www.w3.org/2000/svg" xmlns:xlink="http://www.w3.org/1999/xlink" x="0px" y="0px"
	 viewBox="0 0 200 200" style="enable-background:new 0 0 200 200;" xml:space="preserve">
<style type="text/css">
	.st0{fill:#333333;}
</style>
<g>
	<g>
		<g>
			<path class="st0" d="M94.15,154.56c-1.6,0-3.2-0.61-4.42-1.83l-40.7-40.7c-2.39-2.39-3.7-5.56-3.7-8.94
				c0-3.38,1.32-6.55,3.7-8.94l40.7-40.7c2.44-2.44,6.4-2.44,8.84,0s2.44,6.4,0,8.84l-40.7,40.7l40.7,40.91
				c2.44,2.44,2.44,6.4,0,8.84C97.35,153.95,95.75,154.56,94.15,154.56z"/>
		</g>
	</g>
	<g>
		<g>
			<path class="st0" d="M139.08,154.56c-1.6,0-3.2-0.61-4.42-1.83l-40.7-40.7c-4.93-4.93-4.93-12.95-0.01-17.88l40.71-40.7
				c2.44-2.44,6.4-2.44,8.84,0s2.44,6.4,0,8.84l-40.7,40.7l40.7,40.91c2.44,2.44,2.44,6.4,0,8.84
				C142.27,153.95,140.68,154.56,139.08,154.56z"/>
		</g>
	</g>
</g>
</svg>
