<?xml version="1.0" encoding="utf-8"?>
<!-- Generator: Adobe Illustrator 23.0.0, SVG Export Plug-In . SVG Version: 6.00 Build 0)  -->
<svg version="1.1" id="图层_1" xmlns="http://www.w3.org/2000/svg" xmlns:xlink="http://www.w3.org/1999/xlink" x="0px" y="0px"
	 viewBox="0 0 200 200" style="enable-background:new 0 0 200 200;" xml:space="preserve">
<style type="text/css">
	.st0{fill:#333333;}
</style>
<g>
	<path class="st0" d="M136.04,39.63c1.79,0,3.61,0.15,5.42,0.44c11.96,1.92,22.08,10.86,25.78,22.76c2.5,8.06,1.93,15.87-1.71,23.22
		C149.2,115.08,114.35,146,100,158.04C85.65,146,50.8,115.08,34.47,86.06c-3.64-7.35-4.21-15.17-1.7-23.23
		c3.7-11.91,13.82-20.84,25.78-22.76c1.81-0.29,3.63-0.44,5.42-0.44c10.06,0,19.43,4.66,25.72,12.77c2.49,3.22,6.25,5.06,10.31,5.06
		c4.06,0,7.82-1.85,10.31-5.06C116.6,44.29,125.98,39.63,136.04,39.63 M136.04,27.13c-14.53,0-27.34,6.96-35.6,17.62
		c-0.11,0.15-0.27,0.22-0.43,0.22s-0.32-0.07-0.43-0.22c-8.26-10.66-21.07-17.62-35.6-17.62c-2.42,0-4.89,0.19-7.39,0.59
		C39.8,30.42,25.87,42.9,20.83,59.12c-3.76,12.09-2.15,23.38,2.59,32.79c19.44,34.77,62.07,70.56,73.64,79.91
		c0.87,0.7,1.9,1.05,2.94,1.05c1.04,0,2.07-0.35,2.94-1.05c11.56-9.34,54.19-45.13,73.63-79.91c4.74-9.41,6.35-20.69,2.6-32.78
		c-5.03-16.22-18.97-28.71-35.73-31.4C140.93,27.33,138.46,27.13,136.04,27.13L136.04,27.13z"/>
</g>
</svg>
