<?xml version="1.0" encoding="utf-8"?>
<!-- Generator: Adobe Illustrator 23.0.0, SVG Export Plug-In . SVG Version: 6.00 Build 0)  -->
<svg version="1.1" id="图层_1" xmlns="http://www.w3.org/2000/svg" xmlns:xlink="http://www.w3.org/1999/xlink" x="0px" y="0px"
	 viewBox="0 0 200 200" style="enable-background:new 0 0 200 200;" xml:space="preserve">
<style type="text/css">
	.st0{fill:#333333;}
</style>
<g>
	<path class="st0" d="M100.24,190.23"/>
</g>
<g>
	<path class="st0" d="M100.12,190.13"/>
</g>
<g>
	<path class="st0" d="M23.67,102.27c-4.74-9.41-6.35-20.7-2.59-32.79c5.04-16.22,18.97-28.71,35.74-31.39
		c17.79-2.85,33.84,4.81,43.43,17.59c9.59-12.78,25.64-20.44,43.44-17.59c16.77,2.69,30.7,15.18,35.73,31.4
		c3.75,12.09,2.14,23.37-2.6,32.78c-19.41,34.71-61.92,70.43-73.57,79.86c-1.77,1.43-4.24,1.43-6.01,0
		C85.59,172.71,43.07,136.98,23.67,102.27z"/>
</g>
</svg>
