<?xml version="1.0" encoding="utf-8"?>
<!-- Generator: Adobe Illustrator 23.0.0, SVG Export Plug-In . SVG Version: 6.00 Build 0)  -->
<svg version="1.1" id="图层_1" xmlns="http://www.w3.org/2000/svg" xmlns:xlink="http://www.w3.org/1999/xlink" x="0px" y="0px"
	 viewBox="0 0 200 200" style="enable-background:new 0 0 200 200;" xml:space="preserve">
<style type="text/css">
	.st0{fill:#333333;}
</style>
<g>
	<path class="st0" d="M169.08,174.4H37.83c-6.89,0-12.5-5.61-12.5-12.5V30.65c0-3.45,2.8-6.25,6.25-6.25s6.25,2.8,6.25,6.25V161.9
		h131.25c3.45,0,6.25,2.8,6.25,6.25S172.53,174.4,169.08,174.4z"/>
</g>
<g>
	<path class="st0" d="M173.23,80.8c2.44-2.44,2.44-6.4,0-8.84s-6.4-2.44-8.84,0l-30.93,30.93l-30.93-30.93
		c-2.44-2.44-6.4-2.44-8.84,0l-35.35,35.36c-2.44,2.44-2.44,6.4,0,8.84c1.22,1.22,2.82,1.83,4.42,1.83s3.2-0.61,4.42-1.83
		l30.93-30.94l30.93,30.93c2.44,2.44,6.4,2.44,8.84,0L173.23,80.8z"/>
</g>
</svg>
