<?xml version="1.0" encoding="utf-8"?>
<!-- Generator: Adobe Illustrator 23.0.0, SVG Export Plug-In . SVG Version: 6.00 Build 0)  -->
<svg version="1.1" id="图层_1" xmlns="http://www.w3.org/2000/svg" xmlns:xlink="http://www.w3.org/1999/xlink" x="0px" y="0px"
	 viewBox="0 0 200 200" style="enable-background:new 0 0 200 200;" xml:space="preserve">
<style type="text/css">
	.st0{fill:#333333;}
</style>
<g>
	<g>
		<path class="st0" d="M116.98,131.05c-9.47,0-18.37-3.69-25.06-10.38l-9.64-9.64c-2.44-2.44-2.44-6.4,0-8.84s6.4-2.44,8.84,0
			l9.64,9.64c8.67,8.67,23.78,8.67,32.45,0l32.5-32.5c4.33-4.33,6.72-10.1,6.72-16.22s-2.39-11.89-6.72-16.22l-7.9-7.9
			c-8.95-8.94-23.5-8.94-32.45,0L110.1,54.24c-2.44,2.44-6.4,2.44-8.84,0s-2.44-6.4,0-8.84l15.25-15.25
			c13.82-13.82,36.3-13.82,50.12,0l7.9,7.9c13.82,13.82,13.82,36.3,0,50.12l-32.5,32.5C135.35,127.36,126.45,131.05,116.98,131.05z"
			/>
	</g>
	<g>
		<path class="st0" d="M67.8,180.22c-9.08,0-18.15-3.45-25.06-10.36l-7.9-7.9c-13.82-13.82-13.82-36.3,0-50.12l32.5-32.5
			c6.69-6.7,15.59-10.38,25.06-10.38c9.47,0,18.37,3.69,25.06,10.38l3.95,3.95c2.44,2.44,2.44,6.4,0,8.84
			c-2.44,2.44-6.4,2.44-8.84,0l-3.95-3.95c-8.66-8.67-23.78-8.67-32.44,0l-32.5,32.5c-8.94,8.94-8.94,23.5,0,32.45l7.9,7.9
			c8.95,8.94,23.5,8.94,32.45,0l17.24-17.24c2.44-2.44,6.4-2.44,8.84,0s2.44,6.4,0,8.84l-17.24,17.24
			C85.95,176.76,76.87,180.22,67.8,180.22z"/>
	</g>
</g>
</svg>
