<?xml version="1.0" encoding="utf-8"?>
<!-- Generator: Adobe Illustrator 23.0.0, SVG Export Plug-In . SVG Version: 6.00 Build 0)  -->
<svg version="1.1" id="图层_1" xmlns="http://www.w3.org/2000/svg" xmlns:xlink="http://www.w3.org/1999/xlink" x="0px" y="0px"
	 viewBox="0 0 200 200" style="enable-background:new 0 0 200 200;" xml:space="preserve">
<style type="text/css">
	.st0{fill:#333333;}
</style>
<g>
	<g>
		<g>
			<g>
				<path class="st0" d="M149.37,64.67H74.4c-3.45,0-6.25-2.8-6.25-6.25s2.8-6.25,6.25-6.25h74.97c3.45,0,6.25,2.8,6.25,6.25
					S152.82,64.67,149.37,64.67z"/>
			</g>
		</g>
		<g>
			<g>
				<circle class="st0" cx="52.85" cy="58.42" r="6.25"/>
			</g>
		</g>
	</g>
	<g>
		<g>
			<g>
				<path class="st0" d="M149.37,106.33H74.4c-3.45,0-6.25-2.8-6.25-6.25s2.8-6.25,6.25-6.25h74.97c3.45,0,6.25,2.8,6.25,6.25
					S152.82,106.33,149.37,106.33z"/>
			</g>
		</g>
		<g>
			<g>
				<circle class="st0" cx="52.85" cy="100.08" r="6.25"/>
			</g>
		</g>
	</g>
	<g>
		<g>
			<g>
				<path class="st0" d="M149.4,147.83H74.43c-3.45,0-6.25-2.8-6.25-6.25s2.8-6.25,6.25-6.25h74.97c3.45,0,6.25,2.8,6.25,6.25
					S152.85,147.83,149.4,147.83z"/>
			</g>
		</g>
		<g>
			<g>
				<circle class="st0" cx="52.85" cy="141.58" r="6.25"/>
			</g>
		</g>
	</g>
</g>
</svg>
