<?xml version="1.0" encoding="utf-8"?>
<!-- Generator: Adobe Illustrator 23.0.0, SVG Export Plug-In . SVG Version: 6.00 Build 0)  -->
<svg version="1.1" id="图层_1" xmlns="http://www.w3.org/2000/svg" xmlns:xlink="http://www.w3.org/1999/xlink" x="0px" y="0px"
	 viewBox="0 0 200 200" style="enable-background:new 0 0 200 200;" xml:space="preserve">
<style type="text/css">
	.st0{fill:#333333;}
</style>
<path class="st0" d="M157.59,42.76c-0.06-0.06-0.08-0.15-0.14-0.21c-3.65-3.65-7.58-6.83-11.7-9.63c-0.14-0.09-0.26-0.2-0.4-0.29
	c-1.67-1.12-3.39-2.13-5.12-3.11c-0.6-0.35-1.18-0.73-1.8-1.06c-1.4-0.75-2.83-1.39-4.26-2.05c-1.03-0.48-2.04-1-3.1-1.44
	c-1.06-0.44-2.14-0.79-3.22-1.18c-1.47-0.54-2.94-1.1-4.45-1.55c-0.67-0.2-1.35-0.34-2.02-0.52c-1.92-0.53-3.84-1.03-5.82-1.42
	c-0.17-0.03-0.35-0.05-0.52-0.08c-4.89-0.92-9.91-1.45-15.05-1.45c-5.16,0-10.18,0.54-15.08,1.46c-0.16,0.03-0.33,0.04-0.5,0.08
	c-1.98,0.39-3.9,0.89-5.82,1.42c-0.67,0.18-1.35,0.32-2.02,0.52c-1.51,0.46-2.98,1.01-4.45,1.55c-1.07,0.39-2.16,0.74-3.22,1.18
	c-1.05,0.44-2.06,0.95-3.09,1.43c-1.43,0.66-2.86,1.31-4.26,2.06c-0.61,0.33-1.19,0.71-1.79,1.06c-1.73,0.99-3.46,1.99-5.13,3.12
	c-0.13,0.09-0.26,0.2-0.39,0.29c-4.12,2.81-8.06,5.99-11.71,9.64c-3.64,3.64-6.82,7.57-9.62,11.68c-0.1,0.14-0.21,0.27-0.31,0.42
	c-1.12,1.67-2.13,3.39-3.11,5.12c-0.35,0.61-0.73,1.19-1.06,1.8c-0.75,1.39-1.39,2.82-2.05,4.25c-0.48,1.04-1,2.05-1.44,3.11
	c-0.44,1.06-0.79,2.13-1.17,3.2c-0.54,1.48-1.1,2.95-1.56,4.46c-0.2,0.67-0.34,1.35-0.52,2.02c-0.53,1.92-1.03,3.85-1.42,5.82
	c-0.03,0.16-0.04,0.33-0.07,0.49c-0.92,4.89-1.46,9.93-1.46,15.08c0,5.15,0.53,10.17,1.46,15.06c0.03,0.17,0.05,0.35,0.08,0.52
	c0.38,1.97,0.89,3.89,1.41,5.8c0.18,0.68,0.32,1.37,0.53,2.05c0.45,1.5,1.01,2.96,1.55,4.43c0.39,1.08,0.75,2.17,1.19,3.24
	c0.43,1.04,0.94,2.04,1.42,3.07c0.67,1.44,1.32,2.88,2.07,4.29c0.32,0.6,0.69,1.16,1.03,1.75c1,1.75,2.01,3.49,3.14,5.17
	c0.08,0.12,0.17,0.22,0.25,0.34c2.82,4.13,6.01,8.09,9.67,11.75c3.66,3.66,7.61,6.85,11.73,9.66c0.12,0.08,0.23,0.18,0.36,0.26
	c1.68,1.13,3.4,2.14,5.14,3.13c0.6,0.34,1.17,0.72,1.78,1.05c1.39,0.75,2.82,1.39,4.25,2.05c1.04,0.48,2.05,1,3.11,1.44
	c1.05,0.43,2.12,0.78,3.19,1.17c1.49,0.55,2.96,1.11,4.49,1.57c0.65,0.19,1.31,0.33,1.97,0.51c1.94,0.53,3.88,1.04,5.88,1.43
	c0.13,0.03,0.26,0.04,0.39,0.06c4.92,0.93,9.98,1.47,15.17,1.47c0.09,0,0.17-0.05,0.26-0.05c20.72-0.06,41.42-7.97,57.2-23.75
	c2.44-2.44,2.44-6.4,0-8.84c-2.44-2.44-6.4-2.44-8.84,0c-16.66,16.66-39.8,22.95-61.37,18.9c-0.14-0.03-0.28-0.04-0.42-0.06
	c-1.66-0.32-3.3-0.76-4.93-1.2c-0.56-0.15-1.14-0.27-1.7-0.44c-1.28-0.38-2.52-0.86-3.78-1.32c-0.9-0.33-1.82-0.63-2.71-0.99
	c-0.89-0.37-1.76-0.81-2.64-1.22c-1.2-0.56-2.42-1.1-3.59-1.73c-0.52-0.28-1.02-0.61-1.54-0.91c-1.46-0.84-2.92-1.68-4.31-2.62
	c-0.13-0.09-0.25-0.19-0.38-0.28c-7.06-4.84-13.17-10.95-18.01-18.01c-0.08-0.12-0.17-0.23-0.25-0.35c-0.94-1.4-1.79-2.86-2.63-4.32
	c-0.29-0.51-0.63-1.01-0.9-1.53c-0.63-1.17-1.17-2.38-1.73-3.59c-0.41-0.88-0.85-1.74-1.22-2.64c-0.37-0.89-0.66-1.81-1-2.72
	c-0.46-1.25-0.94-2.5-1.32-3.77c-0.17-0.57-0.29-1.15-0.44-1.73c-0.44-1.63-0.88-3.26-1.2-4.91c-0.03-0.14-0.04-0.28-0.06-0.42
	c-1.58-8.42-1.58-17.08,0-25.5c0.03-0.14,0.04-0.29,0.07-0.43c0.32-1.65,0.75-3.28,1.19-4.9c0.16-0.57,0.28-1.17,0.45-1.73
	c0.38-1.27,0.86-2.51,1.31-3.76c0.33-0.91,0.63-1.83,1-2.72c0.37-0.89,0.81-1.76,1.22-2.64c0.56-1.2,1.1-2.42,1.73-3.59
	c0.28-0.52,0.61-1.02,0.9-1.53c0.84-1.47,1.69-2.93,2.63-4.32c0.08-0.12,0.17-0.23,0.25-0.35c4.84-7.07,10.96-13.2,18.04-18.04
	c0.12-0.08,0.23-0.17,0.35-0.25c1.4-0.94,2.86-1.79,4.32-2.63c0.51-0.29,1.01-0.63,1.53-0.9c1.17-0.63,2.38-1.17,3.59-1.73
	c0.88-0.41,1.74-0.85,2.64-1.22c0.89-0.37,1.81-0.66,2.72-1c1.25-0.46,2.5-0.94,3.77-1.32c0.57-0.17,1.15-0.29,1.73-0.44
	c1.63-0.44,3.26-0.88,4.91-1.2c0.14-0.03,0.28-0.04,0.42-0.06c8.42-1.58,17.09-1.58,25.51,0c0.14,0.03,0.28,0.04,0.42,0.06
	c1.65,0.32,3.28,0.75,4.91,1.2c0.57,0.16,1.16,0.27,1.73,0.44c1.27,0.38,2.52,0.86,3.77,1.32c0.91,0.33,1.83,0.63,2.72,1
	c0.89,0.37,1.76,0.81,2.64,1.22c1.2,0.56,2.42,1.1,3.59,1.73c0.52,0.28,1.02,0.61,1.53,0.9c1.47,0.84,2.93,1.69,4.32,2.63
	c0.12,0.08,0.23,0.17,0.35,0.25c18.11,12.39,30.03,33.21,30.03,56.76c0,3.45,2.8,6.25,6.25,6.25s6.25-2.8,6.25-6.25
	C181.25,77.69,172.2,57.46,157.59,42.76z"/>
</svg>
