<?xml version="1.0" encoding="utf-8"?>
<!-- Generator: Adobe Illustrator 23.0.0, SVG Export Plug-In . SVG Version: 6.00 Build 0)  -->
<svg version="1.1" id="图层_1" xmlns="http://www.w3.org/2000/svg" xmlns:xlink="http://www.w3.org/1999/xlink" x="0px" y="0px"
	 viewBox="0 0 200 200" style="enable-background:new 0 0 200 200;" xml:space="preserve">
<style type="text/css">
	.st0{fill:none;stroke:#333333;stroke-width:2;stroke-miterlimit:10;}
	.st1{fill:#333333;}
</style>
<g>
	<g>
		<path class="st0" d="M174.98,93.62"/>
	</g>
</g>
<g>
	<g>
		<g>
			<path class="st1" d="M170.87,88.12h-0.18C168.85,50.2,137.61,20,99.24,20c-38.38,0-69.61,30.2-71.46,68.12H27.6l0.16,0.26
				c-0.05,1.09-0.16,2.16-0.16,3.26c0,22.6,10.48,42.73,26.83,55.84c14.23,11.41,27.06,24.47,36.92,39.81l3.37,5.25
				c2.11,3.28,6.9,3.28,9.01,0l3.37-5.25c9.86-15.34,22.69-28.4,36.92-39.81c16.36-13.12,26.83-33.24,26.83-55.84
				c0-1.1-0.12-2.17-0.16-3.26L170.87,88.12z M100.25,111.65c-13.81,0-25-11.19-25-25c0-13.81,11.19-25,25-25
				c13.81,0,25,11.19,25,25C125.25,100.46,114.06,111.65,100.25,111.65z"/>
		</g>
	</g>
</g>
</svg>
