<?xml version="1.0" encoding="utf-8"?>
<!-- Generator: Adobe Illustrator 23.0.0, SVG Export Plug-In . SVG Version: 6.00 Build 0)  -->
<svg version="1.1" id="图层_1" xmlns="http://www.w3.org/2000/svg" xmlns:xlink="http://www.w3.org/1999/xlink" x="0px" y="0px"
	 viewBox="0 0 200 200" style="enable-background:new 0 0 200 200;" xml:space="preserve">
<style type="text/css">
	.st0{fill:#FFFFFF;stroke:#333333;stroke-width:2;stroke-miterlimit:10;}
	.st1{fill:none;stroke:#333333;stroke-width:2;stroke-miterlimit:10;}
	.st2{fill:#333333;}
</style>
<g>
	<g>
		<path class="st0" d="M42.01,112.5"/>
	</g>
</g>
<g>
	<g>
		<path class="st1" d="M174.98,93.62"/>
	</g>
</g>
<g>
	<g>
		<path class="st2" d="M99.24,32.5c31.53,0,57.44,24.7,58.97,56.23l0,0.08l0.01,0.13c0.02,0.5,0.05,0.99,0.09,1.48
			c0.03,0.4,0.06,0.81,0.06,1.22c0,18-8.08,34.8-22.15,46.09c-15.34,12.3-27.48,25.05-36.98,38.85
			c-9.5-13.8-21.64-26.54-36.98-38.85c-13.97-11.2-22.03-27.84-22.15-45.69l0.16-3.31C41.8,57.2,67.7,32.5,99.24,32.5 M99.24,20
			c-38.38,0-69.61,30.2-71.46,68.12H27.6l0.16,0.26c-0.05,1.09-0.16,2.16-0.16,3.26c0,22.6,10.48,42.73,26.83,55.84
			c14.23,11.41,27.06,24.47,36.92,39.81l3.37,5.25c1.05,1.64,2.78,2.46,4.5,2.46s3.45-0.82,4.5-2.46l3.37-5.25
			c9.86-15.34,22.69-28.4,36.92-39.81c16.36-13.12,26.84-33.24,26.84-55.84c0-1.1-0.12-2.17-0.16-3.26l0.16-0.26h-0.18
			C168.85,50.2,137.61,20,99.24,20L99.24,20z"/>
	</g>
</g>
<g>
	<g>
		<path class="st2" d="M100.25,67.9c10.34,0,18.75,8.41,18.75,18.75s-8.41,18.75-18.75,18.75S81.5,96.99,81.5,86.65
			S89.92,67.9,100.25,67.9 M100.25,55.4C83,55.4,69,69.4,69,86.65S83,117.9,100.25,117.9s31.25-13.99,31.25-31.25
			S117.51,55.4,100.25,55.4L100.25,55.4z"/>
	</g>
</g>
</svg>
