<?xml version="1.0" encoding="utf-8"?>
<!-- Generator: Adobe Illustrator 23.0.0, SVG Export Plug-In . SVG Version: 6.00 Build 0)  -->
<svg version="1.1" id="图层_1" xmlns="http://www.w3.org/2000/svg" xmlns:xlink="http://www.w3.org/1999/xlink" x="0px" y="0px"
	 viewBox="0 0 200 200" style="enable-background:new 0 0 200 200;" xml:space="preserve">
<style type="text/css">
	.st0{fill:#333333;}
</style>
<path class="st0" d="M159.9,61.02h-4.77c-3.97-27.16-27.35-48.1-55.59-48.1s-51.62,20.94-55.59,48.1h-5.79
	c-7.8,0-14.13,6.33-14.13,14.13v84.24c0,7.8,6.33,14.13,14.13,14.13H159.9c7.8,0,14.13-6.33,14.13-14.13V75.15
	C174.03,67.34,167.7,61.02,159.9,61.02z M99.54,25.42c21.34,0,39.13,15.36,42.96,35.6H56.58C60.41,40.78,78.2,25.42,99.54,25.42z
	 M161.53,159.39c0,0.9-0.73,1.63-1.63,1.63H38.16c-0.9,0-1.63-0.73-1.63-1.63V75.15c0-0.9,0.73-1.63,1.63-1.63H159.9
	c0.9,0,1.63,0.73,1.63,1.63V159.39z"/>
<g>
	<g>
		<path class="st0" d="M99.03,136.02c-3.45,0-6.25-2.8-6.25-6.25v-25c0-3.45,2.8-6.25,6.25-6.25s6.25,2.8,6.25,6.25v25
			C105.28,133.22,102.48,136.02,99.03,136.02z"/>
	</g>
</g>
</svg>
