<?xml version="1.0" encoding="utf-8"?>
<!-- Generator: Adobe Illustrator 23.0.0, SVG Export Plug-In . SVG Version: 6.00 Build 0)  -->
<svg version="1.1" id="图层_1" xmlns="http://www.w3.org/2000/svg" xmlns:xlink="http://www.w3.org/1999/xlink" x="0px" y="0px"
	 viewBox="0 0 200 200" style="enable-background:new 0 0 200 200;" xml:space="preserve">
<style type="text/css">
	.st0{fill:#333333;}
</style>
<g>
	<g>
		<path class="st0" d="M174.8,51.6v100h-150v-100H174.8 M174.8,39.1h-150c-6.9,0-12.5,5.6-12.5,12.5v100c0,6.9,5.6,12.5,12.5,12.5
			h150c6.9,0,12.5-5.6,12.5-12.5v-100C187.3,44.7,181.7,39.1,174.8,39.1L174.8,39.1z"/>
	</g>
</g>
<g>
	<g>
		<path class="st0" d="M174.8,63.39v88.21h-7H31.8h-7V63.39l63.57,45.41c3.35,2.4,7.31,3.66,11.43,3.66c4.12,0,8.07-1.27,11.43-3.66
			L174.8,63.39 M181.03,44.98c-1.22,0-2.48,0.37-3.61,1.18l-73.45,52.47c-1.25,0.89-2.7,1.33-4.16,1.33s-2.92-0.44-4.16-1.33
			L22.18,46.16c-1.13-0.81-2.39-1.18-3.61-1.18c-3.24,0-6.27,2.57-6.27,6.26V151.6c0,6.9,5.6,12.5,12.5,12.5h7h135.99h7
			c6.9,0,12.5-5.6,12.5-12.5V51.24C187.3,47.55,184.27,44.98,181.03,44.98L181.03,44.98z"/>
	</g>
</g>
</svg>
