<?xml version="1.0" encoding="utf-8"?>
<!-- Generator: Adobe Illustrator 23.0.0, SVG Export Plug-In . SVG Version: 6.00 Build 0)  -->
<svg version="1.1" id="图层_1" xmlns="http://www.w3.org/2000/svg" xmlns:xlink="http://www.w3.org/1999/xlink" x="0px" y="0px"
	 viewBox="0 0 200 200" style="enable-background:new 0 0 200 200;" xml:space="preserve">
<style type="text/css">
	.st0{fill:#333333;}
</style>
<g>
	<g>
		<path class="st0" d="M108.68,114.32c-2.54,1.82-5.52,2.72-8.51,2.72c-2.98,0-5.96-0.91-8.5-2.72L12.3,57.62v93.98
			c0,6.9,5.6,12.5,12.5,12.5h150c6.9,0,12.5-5.6,12.5-12.5V58.17L108.68,114.32z"/>
	</g>
	<g>
		<path class="st0" d="M98.94,104.15c0.74,0.53,1.74,0.53,2.48,0l83.6-59.71c-2.26-3.22-5.99-5.34-10.22-5.34h-150
			c-4.07,0-7.66,1.98-9.94,4.99L98.94,104.15z"/>
	</g>
</g>
<g>
	<g>
		<path class="st0" d="M137.97,125.99c12.06,0,12.08-18.75,0-18.75C125.91,107.24,125.89,125.99,137.97,125.99L137.97,125.99z"/>
	</g>
</g>
</svg>
