<?xml version="1.0" encoding="utf-8"?>
<!-- Generator: Adobe Illustrator 23.0.0, SVG Export Plug-In . SVG Version: 6.00 Build 0)  -->
<svg version="1.1" id="图层_1" xmlns="http://www.w3.org/2000/svg" xmlns:xlink="http://www.w3.org/1999/xlink" x="0px" y="0px"
	 viewBox="0 0 200 200" style="enable-background:new 0 0 200 200;" xml:space="preserve">
<style type="text/css">
	.st0{fill:#333333;}
</style>
<g>
	<g>
		<g>
			<path class="st0" d="M149.99,56.25H50.02c-3.45,0-6.25-2.8-6.25-6.25s2.8-6.25,6.25-6.25h99.98c3.45,0,6.25,2.8,6.25,6.25
				S153.44,56.25,149.99,56.25z"/>
		</g>
	</g>
	<g>
		<g>
			<path class="st0" d="M149.99,106.25H50.02c-3.45,0-6.25-2.8-6.25-6.25s2.8-6.25,6.25-6.25h99.98c3.45,0,6.25,2.8,6.25,6.25
				S153.44,106.25,149.99,106.25z"/>
		</g>
	</g>
	<g>
		<g>
			<path class="st0" d="M150.02,156.25H50.04c-3.45,0-6.25-2.8-6.25-6.25s2.8-6.25,6.25-6.25h99.97c3.45,0,6.25,2.8,6.25,6.25
				S153.47,156.25,150.02,156.25z"/>
		</g>
	</g>
</g>
</svg>
