<?xml version="1.0" encoding="utf-8"?>
<!-- Generator: Adobe Illustrator 23.0.0, SVG Export Plug-In . SVG Version: 6.00 Build 0)  -->
<svg version="1.1" id="图层_1" xmlns="http://www.w3.org/2000/svg" xmlns:xlink="http://www.w3.org/1999/xlink" x="0px" y="0px"
	 viewBox="0 0 200 200" style="enable-background:new 0 0 200 200;" xml:space="preserve">
<style type="text/css">
	.st0{fill:#333333;}
</style>
<g>
	<g>
		<path class="st0" d="M89.78,20.18c-36.3,4.44-65.66,33.69-70.31,69.97c-1.11,8.66-0.84,17.08,0.6,25.1
			c1.36,7.56,2.02,15.21,1.42,22.87l-2.43,31.02c-0.22,2.84,1.99,5.28,4.83,5.34l30.6,0.63c7.98,0.16,15.82,1.74,23.5,3.91
			c10.52,2.98,21.91,3.89,33.72,2.23c35.88-5.06,64.6-34.3,68.96-70.28C187.08,58.08,142.66,13.7,89.78,20.18z M131.63,121.43
			c-5.01,12.86-17.16,21.17-30.96,21.17c-13.39,0-25.4-7.97-30.62-20.29c-1.34-3.18,0.14-6.85,3.32-8.19
			c3.17-1.35,6.85,0.14,8.19,3.32c3.25,7.69,10.75,12.66,19.1,12.66c8.61,0,16.19-5.18,19.32-13.21c1.26-3.22,4.88-4.82,8.09-3.55
			C131.29,114.59,132.88,118.22,131.63,121.43z"/>
	</g>
</g>
</svg>
