<?xml version="1.0" encoding="utf-8"?>
<!-- Generator: Adobe Illustrator 23.0.0, SVG Export Plug-In . SVG Version: 6.00 Build 0)  -->
<svg version="1.1" id="图层_1" xmlns="http://www.w3.org/2000/svg" xmlns:xlink="http://www.w3.org/1999/xlink" x="0px" y="0px"
	 viewBox="0 0 200 200" style="enable-background:new 0 0 200 200;" xml:space="preserve">
<style type="text/css">
	.st0{fill:#333333;}
</style>
<g>
	<g>
		<path class="st0" d="M100,31.25c19.66,0,38.42,8.45,51.47,23.17c13.23,14.93,19.18,34.18,16.75,54.22
			c-3.65,30.17-28.17,55.15-58.3,59.4c-3.3,0.47-6.64,0.7-9.93,0.7c-6.32,0-12.6-0.87-18.65-2.58c-9.97-2.82-18.43-4.21-26.65-4.38
			l-22.6-0.46l1.81-23.04c0.64-8.11,0.12-16.63-1.58-26.06c-1.25-6.97-1.42-14.13-0.51-21.29c3.91-30.54,28.91-55.41,59.43-59.15
			C94.17,31.43,97.11,31.25,100,31.25 M100,18.75c-3.38,0-6.8,0.21-10.26,0.63c-36.3,4.44-65.66,33.69-70.31,69.97
			c-1.11,8.66-0.84,17.08,0.6,25.1c1.36,7.56,2.02,15.21,1.42,22.87l-2.43,31.02c-0.22,2.84,1.99,5.28,4.83,5.34l30.6,0.63
			c7.98,0.16,15.82,1.74,23.5,3.91c7.01,1.98,14.4,3.05,22.05,3.05c3.83,0,7.73-0.27,11.67-0.82c35.88-5.06,64.6-34.3,68.96-70.28
			C186.62,60.74,148.21,18.75,100,18.75L100,18.75z"/>
	</g>
	<g>
		<path class="st0" d="M100.62,141.8c-13.39,0-25.4-7.97-30.62-20.29c-1.34-3.18,0.14-6.85,3.32-8.19c3.18-1.34,6.85,0.14,8.19,3.32
			c3.25,7.69,10.75,12.66,19.1,12.66c8.61,0,16.19-5.18,19.32-13.2c1.25-3.22,4.88-4.81,8.09-3.56c3.22,1.25,4.8,4.87,3.55,8.09
			C126.57,133.5,114.42,141.8,100.62,141.8z"/>
	</g>
</g>
</svg>
