<?xml version="1.0" encoding="utf-8"?>
<!-- Generator: Adobe Illustrator 23.0.0, SVG Export Plug-In . SVG Version: 6.00 Build 0)  -->
<svg version="1.1" id="图层_1" xmlns="http://www.w3.org/2000/svg" xmlns:xlink="http://www.w3.org/1999/xlink" x="0px" y="0px"
	 viewBox="0 0 200 200" style="enable-background:new 0 0 200 200;" xml:space="preserve">
<style type="text/css">
	.st0{fill:#333333;}
</style>
<g>
	<g>
		<path class="st0" d="M118.61,40.51h-37.5c-1.73,0-3.12-1.4-3.12-3.12s1.4-3.12,3.12-3.12h37.5c1.73,0,3.12,1.4,3.12,3.12
			S120.34,40.51,118.61,40.51z"/>
	</g>
</g>
<path class="st0" d="M139.12,12.5H60.88c-12.91,0-23.38,10.47-23.38,23.38v128.25c0,12.91,10.47,23.38,23.38,23.38h78.25
	c12.91,0,23.38-10.47,23.38-23.38V35.88C162.5,22.97,152.03,12.5,139.12,12.5z M60.88,25h78.25c6,0,10.88,4.88,10.88,10.88V48.7H50
	V35.88C50,29.88,54.88,25,60.88,25z M150,61.2v73.86H50V61.2H150z M139.12,175H60.88c-6,0-10.88-4.88-10.88-10.88v-16.56h100v16.56
	C150,170.12,145.12,175,139.12,175z"/>
<g>
	<g>
		<circle class="st0" cx="100.53" cy="160.16" r="9.38"/>
	</g>
</g>
<g>
	<g>
		<circle class="st0" cx="137.16" cy="37.39" r="6.25"/>
	</g>
</g>
</svg>
