<?xml version="1.0" encoding="utf-8"?>
<!-- Generator: Adobe Illustrator 23.0.0, SVG Export Plug-In . SVG Version: 6.00 Build 0)  -->
<svg version="1.1" id="图层_1" xmlns="http://www.w3.org/2000/svg" xmlns:xlink="http://www.w3.org/1999/xlink" x="0px" y="0px"
	 viewBox="0 0 200 200" style="enable-background:new 0 0 200 200;" xml:space="preserve">
<style type="text/css">
	.st0{fill:#333333;}
</style>
<g>
	<polygon class="st0" points="72.78,111.41 72.78,111.34 72.75,111.37 	"/>
	<polygon class="st0" points="88.65,127.43 88.7,127.43 88.65,127.38 	"/>
	<polygon class="st0" points="72.73,88.7 72.77,88.66 72.73,88.66 	"/>
	<polygon class="st0" points="111.21,127.42 111.15,127.42 111.18,127.45 	"/>
	<polygon class="st0" points="111.35,72.57 111.31,72.57 111.35,72.62 	"/>
	<polygon class="st0" points="127.19,88.39 127.19,88.45 127.22,88.42 	"/>
	<path class="st0" d="M100,18.75c-44.87,0-81.25,36.38-81.25,81.25s36.38,81.25,81.25,81.25s81.25-36.38,81.25-81.25
		S144.87,18.75,100,18.75z M117.12,91.39v-2.57V59.5c3.55,1.51,6.94,3.5,10.07,5.99c1.28,1.02,2.52,2.11,3.7,3.29
		c2.77,2.77,5.07,5.82,6.93,9.06c0.47,0.81,0.91,1.64,1.32,2.48l-22.03,22.03c0.21-1.33,0.28-2.68,0.18-4.02
		c-0.04-0.51-0.1-1.01-0.18-1.51V91.39z M95.12,56.39c1.62-0.19,3.27-0.29,4.94-0.29c3.92,0,7.7,0.53,11.31,1.5
		c0.91,0.24,1.8,0.52,2.69,0.82h0v31.15c-0.79-1.09-1.7-2.09-2.72-2.96c-0.38-0.33-0.78-0.65-1.2-0.94l-3.84-3.84L104.49,80
		L83.76,59.27C87.34,57.83,91.15,56.84,95.12,56.39z M65.69,72.75c1.02-1.28,2.11-2.52,3.29-3.7c2.77-2.77,5.82-5.07,9.06-6.93
		c0.81-0.47,1.64-0.91,2.48-1.32l22.03,22.03c-1.33-0.21-2.68-0.28-4.02-0.18c-0.51,0.04-1.01,0.1-1.51,0.18h-5.44h-2.57H59.7
		C61.2,79.27,63.2,75.88,65.69,72.75z M82.85,108.4v2.57l0,29.31c-3.55-1.51-6.94-3.5-10.07-5.99c-1.28-1.02-2.52-2.11-3.7-3.29
		c-2.77-2.77-5.07-5.82-6.93-9.06c-0.47-0.81-0.91-1.64-1.32-2.48l22.03-22.03c-0.21,1.33-0.28,2.68-0.18,4.02
		c0.04,0.51,0.1,1.01,0.18,1.51V108.4z M81.98,93.7l-1.82,1.82l-20.73,20.73c-1.45-3.58-2.43-7.39-2.89-11.36
		c-0.19-1.62-0.29-3.27-0.29-4.94c0-3.92,0.53-7.7,1.5-11.31c0.24-0.91,0.52-1.8,0.82-2.69h31.15c-1.09,0.79-2.09,1.7-2.96,2.72
		c-0.33,0.38-0.65,0.78-0.94,1.2L81.98,93.7z M104.88,143.61c-1.62,0.19-3.27,0.29-4.94,0.29c-3.92,0-7.7-0.53-11.31-1.5
		c-0.91-0.24-1.8-0.52-2.69-0.82v-31.15c0.79,1.09,1.7,2.09,2.72,2.96c0.38,0.33,0.78,0.64,1.2,0.94l3.84,3.84l1.82,1.82
		l20.73,20.73C112.67,142.17,108.85,143.16,104.88,143.61z M134.11,127.42c-1.02,1.28-2.11,2.52-3.29,3.7
		c-2.77,2.77-5.82,5.07-9.06,6.93c-0.81,0.47-1.64,0.91-2.48,1.32l-22.03-22.03c1.33,0.21,2.68,0.28,4.02,0.18
		c0.51-0.04,1.01-0.1,1.51-0.18h5.44h2.57h29.31C138.59,120.9,136.59,124.29,134.11,127.42z M142.25,111.38
		c-0.24,0.91-0.52,1.8-0.82,2.69h-31.15c1.09-0.79,2.09-1.7,2.96-2.72c0.33-0.38,0.64-0.78,0.94-1.2l3.84-3.84l1.82-1.82
		l20.73-20.73c1.45,3.58,2.43,7.39,2.89,11.36c0.19,1.62,0.29,3.27,0.29,4.94C143.75,103.99,143.22,107.78,142.25,111.38z"/>
	<polygon class="st0" points="88.58,72.75 88.64,72.75 88.61,72.72 	"/>
	<polygon class="st0" points="127.27,111.36 127.27,111.32 127.23,111.36 	"/>
</g>
</svg>
