<?xml version="1.0" encoding="utf-8"?>
<!-- Generator: Adobe Illustrator 23.0.0, SVG Export Plug-In . SVG Version: 6.00 Build 0)  -->
<svg version="1.1" id="图层_1" xmlns="http://www.w3.org/2000/svg" xmlns:xlink="http://www.w3.org/1999/xlink" x="0px" y="0px"
	 viewBox="0 0 200 200" style="enable-background:new 0 0 200 200;" xml:space="preserve">
<style type="text/css">
	.st0{fill:#333333;}
</style>
<g>
	<g>
		<path class="st0" d="M56.25,115.62c-8.62,0-15.62-7.01-15.62-15.62s7.01-15.62,15.62-15.62S71.87,91.38,71.87,100
			S64.87,115.62,56.25,115.62z M56.25,90.62c-5.17,0-9.38,4.21-9.38,9.38s4.21,9.38,9.38,9.38s9.38-4.21,9.38-9.38
			S61.42,90.62,56.25,90.62z"/>
	</g>
</g>
<g>
	<g>
		<path class="st0" d="M100,115.62c-8.62,0-15.62-7.01-15.62-15.62S91.38,84.37,100,84.37s15.62,7.01,15.62,15.62
			S108.62,115.62,100,115.62z M100,90.62c-5.17,0-9.38,4.21-9.38,9.38s4.21,9.38,9.38,9.38s9.38-4.21,9.38-9.38
			S105.17,90.62,100,90.62z"/>
	</g>
</g>
<g>
	<g>
		<path class="st0" d="M143.75,115.62c-8.62,0-15.62-7.01-15.62-15.62s7.01-15.62,15.62-15.62s15.62,7.01,15.62,15.62
			S152.37,115.62,143.75,115.62z M143.75,90.62c-5.17,0-9.38,4.21-9.38,9.38s4.21,9.38,9.38,9.38s9.38-4.21,9.38-9.38
			S148.92,90.62,143.75,90.62z"/>
	</g>
</g>
</svg>
