<?xml version="1.0" encoding="utf-8"?>
<!-- Generator: Adobe Illustrator 23.0.0, SVG Export Plug-In . SVG Version: 6.00 Build 0)  -->
<svg version="1.1" id="图层_1" xmlns="http://www.w3.org/2000/svg" xmlns:xlink="http://www.w3.org/1999/xlink" x="0px" y="0px"
	 viewBox="0 0 200 200" style="enable-background:new 0 0 200 200;" xml:space="preserve">
<style type="text/css">
	.st0{fill:#333333;}
</style>
<g>
	<g>
		<g>
			<path class="st0" d="M100,36.34c17.23,0,31.25,14.02,31.25,31.25S117.23,98.84,100,98.84S68.75,84.82,68.75,67.59
				S82.77,36.34,100,36.34 M100,23.84c-24.16,0-43.75,19.59-43.75,43.75s19.59,43.75,43.75,43.75s43.75-19.59,43.75-43.75
				S124.16,23.84,100,23.84L100,23.84z"/>
		</g>
	</g>
	<g>
		<path class="st0" d="M122.67,126.16c18.52,0,33.58,15.07,33.58,33.58c0,2.16-1.76,3.92-3.92,3.92H47.67
			c-2.16,0-3.92-1.76-3.92-3.92c0-18.52,15.07-33.58,33.58-33.58H122.67 M122.67,113.66H77.33c-25.45,0-46.08,20.63-46.08,46.08v0
			c0,9.07,7.35,16.42,16.42,16.42h104.66c9.07,0,16.42-7.35,16.42-16.42v0C168.75,134.3,148.12,113.66,122.67,113.66L122.67,113.66z
			"/>
	</g>
</g>
</svg>
