<?xml version="1.0" encoding="utf-8"?>
<!-- Generator: Adobe Illustrator 23.0.0, SVG Export Plug-In . SVG Version: 6.00 Build 0)  -->
<svg version="1.1" id="图层_1" xmlns="http://www.w3.org/2000/svg" xmlns:xlink="http://www.w3.org/1999/xlink" x="0px" y="0px"
	 viewBox="0 0 200 200" style="enable-background:new 0 0 200 200;" xml:space="preserve">
<style type="text/css">
	.st0{fill:#333333;}
</style>
<g>
	<circle class="st0" cx="103.1" cy="154.36" r="9.38"/>
</g>
<g>
	<path class="st0" d="M86.65,112.96c-5.57,2.21-10.68,5.53-15.05,9.89c-2.44,2.44-2.44,6.4,0,8.84c2.44,2.44,6.4,2.44,8.84,0
		c4.24-4.24,9.5-7.06,15.19-8.42L86.65,112.96z"/>
</g>
<g>
	<g>
		<path class="st0" d="M111.67,84.59c15.52,1.88,29.9,8.77,41.14,19.99c2.44,2.43,6.4,2.44,8.84-0.01c2.44-2.44,2.44-6.4-0.01-8.84
			c-15.64-15.62-36.43-24.22-58.54-24.22c-0.91,0-1.8,0.1-2.7,0.13L111.67,84.59z"/>
	</g>
	<g>
		<path class="st0" d="M60.76,83.23c-5.83,3.49-11.32,7.63-16.25,12.56c-2.44,2.44-2.44,6.4,0,8.84c1.22,1.22,2.82,1.83,4.42,1.83
			s3.2-0.61,4.42-1.83c4.73-4.74,10.04-8.68,15.74-11.83L60.76,83.23z"/>
	</g>
</g>
<g>
	<g>
		<path class="st0" d="M35.29,53.98c-6.35,4.31-12.35,9.22-17.89,14.77c-2.44,2.44-2.44,6.4,0.01,8.84
			c1.22,1.22,2.82,1.83,4.42,1.83s3.2-0.61,4.42-1.83c5.34-5.34,11.16-10.03,17.32-14.09L35.29,53.98z"/>
	</g>
	<g>
		<path class="st0" d="M188.75,68.7c-22.88-22.87-53.29-35.47-85.64-35.47c-11.08,0-21.89,1.58-32.29,4.44l9.21,10.57
			c7.51-1.62,15.22-2.52,23.08-2.52c29.01,0,56.29,11.3,76.81,31.81c2.44,2.44,6.4,2.44,8.84,0S191.19,71.13,188.75,68.7z"/>
	</g>
</g>
<g>
	<path class="st0" d="M155.29,169.67c-1.69-0.04-3.36-0.77-4.56-2.14L34.4,33.92c-2.27-2.6-2-6.55,0.61-8.82
		c2.6-2.27,6.55-2,8.82,0.61l116.33,133.6c2.27,2.6,2,6.55-0.61,8.82C158.32,169.2,156.8,169.7,155.29,169.67z"/>
</g>
</svg>
