<?xml version="1.0" encoding="utf-8"?>
<!-- Generator: Adobe Illustrator 23.0.0, SVG Export Plug-In . SVG Version: 6.00 Build 0)  -->
<svg version="1.1" id="图层_1" xmlns="http://www.w3.org/2000/svg" xmlns:xlink="http://www.w3.org/1999/xlink" x="0px" y="0px"
	 viewBox="0 0 200 200" style="enable-background:new 0 0 200 200;" xml:space="preserve">
<style type="text/css">
	.st0{fill:#333333;}
</style>
<g>
	<g>
		<path class="st0" d="M98.79,34.8v130.41l-34.96-23.13c-4.27-2.83-9.23-4.32-14.36-4.32H27.36c-1.3,0-2.36-0.94-2.36-2.09V62.7
			c0-1.15,1.06-2.09,2.36-2.09h24.59c5.12,0,10.08-1.49,14.36-4.32L98.79,34.8 M100.96,20.42c-1.93,0-3.91,0.54-5.73,1.74
			l-35.82,23.7c-2.21,1.46-4.81,2.24-7.46,2.24H27.36c-8.2,0-14.86,6.53-14.86,14.59v72.96c0,8.06,6.65,14.59,14.86,14.59h22.12
			c2.65,0,5.25,0.78,7.46,2.24l38.29,25.33c1.81,1.2,3.8,1.74,5.73,1.74c5.36,0,10.34-4.18,10.34-10.14V30.56
			C111.29,24.61,106.31,20.42,100.96,20.42L100.96,20.42z"/>
	</g>
	<g>
		<path class="st0" d="M138.62,140.98c-1.6,0-3.2-0.61-4.42-1.83c-2.44-2.44-2.44-6.4,0-8.84c8.1-8.1,12.55-18.86,12.55-30.31
			c0-11.45-4.46-22.21-12.55-30.3c-2.44-2.44-2.44-6.4,0-8.84s6.4-2.44,8.84,0c10.46,10.46,16.22,24.36,16.22,39.14
			c0,14.79-5.76,28.69-16.22,39.14C141.82,140.36,140.22,140.98,138.62,140.98z"/>
	</g>
	<g>
		<path class="st0" d="M163.53,164.13c-1.6,0-3.2-0.61-4.42-1.83c-2.44-2.44-2.44-6.4,0-8.84c29.47-29.48,29.47-77.44,0-106.91
			c-2.44-2.44-2.44-6.4,0-8.84s6.4-2.44,8.84,0c34.35,34.35,34.35,90.24,0,124.59C166.73,163.52,165.13,164.13,163.53,164.13z"/>
	</g>
</g>
</svg>
