<?xml version="1.0" encoding="utf-8"?>
<!-- Generator: Adobe Illustrator 23.0.0, SVG Export Plug-In . SVG Version: 6.00 Build 0)  -->
<svg version="1.1" id="图层_1" xmlns="http://www.w3.org/2000/svg" xmlns:xlink="http://www.w3.org/1999/xlink" x="0px" y="0px"
	 viewBox="0 0 200 200" style="enable-background:new 0 0 200 200;" xml:space="preserve">
<style type="text/css">
	.st0{fill:#333333;}
</style>
<g>
	<path class="st0" d="M88.5,24.27L53.52,47.42c-2.76,1.83-6,2.8-9.31,2.8H20.63c-8.2,0-14.86,6.53-14.86,14.59v72.96
		c0,8.06,6.65,14.59,14.86,14.59h21.12c3.31,0,6.55,0.97,9.31,2.8l37.45,24.78c6.85,4.53,16.07-0.29,16.07-8.4V32.67
		C104.57,24.56,95.35,19.74,88.5,24.27z"/>
</g>
<g>
	<path class="st0" d="M131.89,143.08c-1.6,0-3.2-0.61-4.42-1.83c-2.44-2.44-2.44-6.4,0-8.84c8.1-8.1,12.55-18.86,12.55-30.31
		c0-11.45-4.46-22.21-12.55-30.3c-2.44-2.44-2.44-6.4,0-8.84s6.4-2.44,8.84,0c10.46,10.46,16.22,24.36,16.22,39.14
		c0,14.79-5.76,28.69-16.22,39.14C135.09,142.47,133.49,143.08,131.89,143.08z"/>
</g>
<g>
	<path class="st0" d="M156.8,166.23c-1.6,0-3.2-0.61-4.42-1.83c-2.44-2.44-2.44-6.4,0-8.84c29.47-29.48,29.47-77.44,0-106.91
		c-2.44-2.44-2.44-6.4,0-8.84s6.4-2.44,8.84,0c34.35,34.35,34.35,90.24,0,124.59C160,165.62,158.4,166.23,156.8,166.23z"/>
</g>
</svg>
