<?xml version="1.0" encoding="utf-8"?>
<!-- Generator: Adobe Illustrator 23.0.0, SVG Export Plug-In . SVG Version: 6.00 Build 0)  -->
<svg version="1.1" id="图层_1" xmlns="http://www.w3.org/2000/svg" xmlns:xlink="http://www.w3.org/1999/xlink" x="0px" y="0px"
	 viewBox="0 0 200 200" style="enable-background:new 0 0 200 200;" xml:space="preserve">
<style type="text/css">
	.st0{fill:#333333;}
</style>
<g>
	<g>
		<g>
			<path class="st0" d="M156.12,18.75H43.88c-6.98,0-12.63,5.66-12.63,12.63v137.23c0,6.98,5.66,12.63,12.63,12.63h112.23
				c6.98,0,12.63-5.66,12.63-12.63V31.38C168.75,24.41,163.09,18.75,156.12,18.75z M104.46,137.43H68.75c-3.45,0-6.25-2.8-6.25-6.25
				s2.8-6.25,6.25-6.25h35.71c3.45,0,6.25,2.8,6.25,6.25S107.92,137.43,104.46,137.43z M62.5,96.84c0-3.45,2.8-6.25,6.25-6.25h28.57
				c3.45,0,6.25,2.8,6.25,6.25s-2.8,6.25-6.25,6.25H68.75C65.3,103.09,62.5,100.29,62.5,96.84z M118.75,68.75h-50
				c-3.45,0-6.25-2.8-6.25-6.25s2.8-6.25,6.25-6.25h50c3.45,0,6.25,2.8,6.25,6.25S122.2,68.75,118.75,68.75z"/>
		</g>
	</g>
</g>
</svg>
