<?xml version="1.0" encoding="utf-8"?>
<!-- Generator: Adobe Illustrator 23.0.0, SVG Export Plug-In . SVG Version: 6.00 Build 0)  -->
<svg version="1.1" id="图层_1" xmlns="http://www.w3.org/2000/svg" xmlns:xlink="http://www.w3.org/1999/xlink" x="0px" y="0px"
	 viewBox="0 0 200 200" style="enable-background:new 0 0 200 200;" xml:space="preserve">
<style type="text/css">
	.st0{fill:#333333;}
</style>
<g>
	<g>
		<path class="st0" d="M104.46,137.43H68.75c-3.45,0-6.25-2.8-6.25-6.25s2.8-6.25,6.25-6.25h35.71c3.45,0,6.25,2.8,6.25,6.25
			S107.92,137.43,104.46,137.43z"/>
	</g>
</g>
<g>
	<g>
		<path class="st0" d="M97.32,103.09H68.75c-3.45,0-6.25-2.8-6.25-6.25s2.8-6.25,6.25-6.25h28.57c3.45,0,6.25,2.8,6.25,6.25
			S100.77,103.09,97.32,103.09z"/>
	</g>
</g>
<g>
	<g>
		<path class="st0" d="M118.75,68.75h-50c-3.45,0-6.25-2.8-6.25-6.25s2.8-6.25,6.25-6.25h50c3.45,0,6.25,2.8,6.25,6.25
			S122.2,68.75,118.75,68.75z"/>
	</g>
</g>
<g>
	<path class="st0" d="M156.12,31.25l0.13,0.13l-0.13,137.37l-112.37-0.13l0.13-137.37H156.12 M156.12,18.75H43.88
		c-6.98,0-12.63,5.66-12.63,12.63v137.23c0,6.98,5.66,12.63,12.63,12.63h112.23c6.98,0,12.63-5.66,12.63-12.63V31.38
		C168.75,24.41,163.09,18.75,156.12,18.75L156.12,18.75z"/>
</g>
</svg>
