<?xml version="1.0" encoding="utf-8"?>
<!-- Generator: Adobe Illustrator 23.0.0, SVG Export Plug-In . SVG Version: 6.00 Build 0)  -->
<svg version="1.1" id="图层_1" xmlns="http://www.w3.org/2000/svg" xmlns:xlink="http://www.w3.org/1999/xlink" x="0px" y="0px"
	 viewBox="0 0 200 200" style="enable-background:new 0 0 200 200;" xml:space="preserve">
<style type="text/css">
	.st0{fill:none;stroke:#333333;stroke-width:2;stroke-linecap:round;stroke-miterlimit:10;}
	.st1{fill:#333333;}
</style>
<g>
	<path class="st0" d="M122.88,31.25"/>
</g>
<g>
	<path class="st1" d="M157.29,175H42.71C32.94,175,25,167.06,25,157.29V42.71C25,32.94,32.94,25,42.71,25h44.84
		c3.45,0,6.25,2.8,6.25,6.25S91,37.5,87.55,37.5H42.71c-2.87,0-5.21,2.34-5.21,5.21v114.58c0,2.87,2.34,5.21,5.21,5.21h114.58
		c2.87,0,5.21-2.34,5.21-5.21v-45.03c0-3.45,2.8-6.25,6.25-6.25s6.25,2.8,6.25,6.25v45.03C175,167.06,167.06,175,157.29,175z"/>
</g>
<g>
	<path class="st1" d="M118.75,123.86c-3.45,0-6.25-2.8-6.25-6.25V80.77c0-19.79,16.1-35.89,35.89-35.89h23.21
		c3.45,0,6.25,2.8,6.25,6.25s-2.8,6.25-6.25,6.25h-23.21c-12.9,0-23.39,10.49-23.39,23.39v36.84
		C125,121.07,122.2,123.86,118.75,123.86z"/>
</g>
<g>
	<path class="st1" d="M169.2,55.19c-1.6,0-3.2-0.61-4.42-1.83L139.33,27.9c-2.44-2.44-2.44-6.4,0-8.84s6.4-2.44,8.84,0l25.45,25.45
		c2.44,2.44,2.44,6.4,0,8.84C172.4,54.58,170.8,55.19,169.2,55.19z"/>
</g>
</svg>
