<?xml version="1.0" encoding="utf-8"?>
<!-- Generator: Adobe Illustrator 23.0.0, SVG Export Plug-In . SVG Version: 6.00 Build 0)  -->
<svg version="1.1" id="图层_1" xmlns="http://www.w3.org/2000/svg" xmlns:xlink="http://www.w3.org/1999/xlink" x="0px" y="0px"
	 viewBox="0 0 200 200" style="enable-background:new 0 0 200 200;" xml:space="preserve">
<style type="text/css">
	.st0{fill:#333333;}
</style>
<g>
	<g>
		<path class="st0" d="M169.15,34.79H31.65c-6.9,0-12.5,5.6-12.5,12.5v100c0,6.9,5.6,12.5,12.5,12.5h137.5c6.9,0,12.5-5.6,12.5-12.5
			v-100C181.65,40.39,176.06,34.79,169.15,34.79z M62.5,62.5C69.4,62.5,75,68.1,75,75c0,6.9-5.6,12.5-12.5,12.5
			C55.6,87.5,50,81.9,50,75C50,68.1,55.6,62.5,62.5,62.5z M166.83,144.96c0,0-116.24,0-125.94,0c0-9.5,8.36-29.12,27.83-36.67
			c24.84-9.63,36.91,16.48,59.58,6.27c22.67-10.21,12.45-44.81,38.54-44.81V144.96z"/>
	</g>
</g>
</svg>
