<?xml version="1.0" encoding="utf-8"?>
<!-- Generator: Adobe Illustrator 23.0.0, SVG Export Plug-In . SVG Version: 6.00 Build 0)  -->
<svg version="1.1" id="图层_1" xmlns="http://www.w3.org/2000/svg" xmlns:xlink="http://www.w3.org/1999/xlink" x="0px" y="0px"
	 viewBox="0 0 200 200" style="enable-background:new 0 0 200 200;" xml:space="preserve">
<style type="text/css">
	.st0{fill:#333333;}
</style>
<g>
	<circle class="st0" cx="63.26" cy="75" r="12.5"/>
</g>
<g>
	<path class="st0" d="M60.87,144.59c-1.46,0-2.92-0.51-4.1-1.54c-2.6-2.27-2.87-6.21-0.61-8.82c2.22-2.55,3.62-5.86,5.11-9.36
		c3.03-7.14,6.79-16.02,18.84-20.69c12.06-4.68,20.83-0.66,27.88,2.57c6.4,2.93,11.03,5.04,18.15,2.28
		c7.13-2.77,9.12-7.45,11.87-13.93c3.03-7.14,6.8-16.02,18.85-20.69c3.22-1.26,6.84,0.34,8.09,3.56c1.25,3.22-0.35,6.84-3.56,8.09
		c-7.14,2.77-9.12,7.45-11.87,13.93c-3.03,7.14-6.8,16.02-18.85,20.69c-12.06,4.68-20.83,0.66-27.88-2.57
		c-6.39-2.93-11.02-5.04-18.15-2.28c-7.13,2.76-9.11,7.44-11.86,13.92c-1.72,4.05-3.66,8.64-7.19,12.69
		C64.35,143.86,62.61,144.59,60.87,144.59z"/>
</g>
<g>
	<path class="st0" d="M169.15,169.1H31.65c-10.34,0-18.75-8.41-18.75-18.75v-100c0-10.34,8.41-18.75,18.75-18.75h137.5
		c10.34,0,18.75,8.41,18.75,18.75v100C187.9,160.68,179.49,169.1,169.15,169.1z M31.65,44.1c-3.45,0-6.25,2.8-6.25,6.25v100
		c0,3.45,2.8,6.25,6.25,6.25h137.5c3.45,0,6.25-2.8,6.25-6.25v-100c0-3.45-2.8-6.25-6.25-6.25H31.65z"/>
</g>
</svg>
