<?xml version="1.0" encoding="utf-8"?>
<!-- Generator: Adobe Illustrator 23.0.0, SVG Export Plug-In . SVG Version: 6.00 Build 0)  -->
<svg version="1.1" id="图层_1" xmlns="http://www.w3.org/2000/svg" xmlns:xlink="http://www.w3.org/1999/xlink" x="0px" y="0px"
	 viewBox="0 0 200 200" style="enable-background:new 0 0 200 200;" xml:space="preserve">
<style type="text/css">
	.st0{fill:#333333;}
</style>
<path class="st0" d="M175.34,69.84c-7.58-18.59-21.7-33.76-39.75-42.73c-3.09-1.54-6.85-0.27-8.38,2.82
	c-1.54,3.09-0.27,6.84,2.82,8.37c15.32,7.61,27.3,20.49,33.74,36.26c0.99,2.42,3.32,3.89,5.79,3.89c0.78,0,1.58-0.15,2.36-0.46
	C175.11,76.69,176.64,73.04,175.34,69.84z"/>
<g>
	<g>
		<path class="st0" d="M96.1,31.36v55.66c0,8.92,7.26,16.18,16.18,16.18h56.4c-1.68,36.43-31.84,65.55-68.68,65.55
			c-0.89,0-1.79-0.02-2.69-0.05c-35.06-1.33-64.68-30.94-66.01-66.01c-0.72-18.9,6.09-36.78,19.16-50.37
			C62.64,39.68,78.72,32.32,96.1,31.36 M100,18.75c-45.92,0-82.95,38.1-81.19,84.41c1.59,41.83,36.2,76.44,78.02,78.03
			c1.06,0.04,2.12,0.06,3.17,0.06c44.87,0,81.25-36.38,81.25-81.25c0-3.15-0.22-6.25-0.57-9.3h-68.4c-2.03,0-3.68-1.65-3.68-3.68
			v-67.8C105.77,18.92,102.91,18.75,100,18.75L100,18.75z"/>
	</g>
</g>
</svg>
