<?xml version="1.0" encoding="utf-8"?>
<!-- Generator: Adobe Illustrator 23.0.0, SVG Export Plug-In . SVG Version: 6.00 Build 0)  -->
<svg version="1.1" id="图层_1" xmlns="http://www.w3.org/2000/svg" xmlns:xlink="http://www.w3.org/1999/xlink" x="0px" y="0px"
	 viewBox="0 0 200 200" style="enable-background:new 0 0 200 200;" xml:space="preserve">
<style type="text/css">
	.st0{fill:#333333;}
</style>
<g>
	<g>
		<g>
			<path class="st0" d="M100,18.75c-44.87,0-81.25,36.38-81.25,81.25s36.38,81.25,81.25,81.25c44.87,0,81.25-36.38,81.25-81.25
				S144.87,18.75,100,18.75z M137.5,106.25h-31.25v31.25c0,3.45-2.8,6.25-6.25,6.25c-3.45,0-6.25-2.8-6.25-6.25v-31.25H62.5
				c-3.45,0-6.25-2.8-6.25-6.25c0-3.45,2.8-6.25,6.25-6.25h31.25V62.5c0-3.45,2.8-6.25,6.25-6.25c3.45,0,6.25,2.8,6.25,6.25v31.25
				h31.25c3.45,0,6.25,2.8,6.25,6.25C143.75,103.45,140.95,106.25,137.5,106.25z"/>
		</g>
	</g>
</g>
</svg>
