<?xml version="1.0" encoding="utf-8"?>
<!-- Generator: Adobe Illustrator 23.0.0, SVG Export Plug-In . SVG Version: 6.00 Build 0)  -->
<svg version="1.1" id="图层_1" xmlns="http://www.w3.org/2000/svg" xmlns:xlink="http://www.w3.org/1999/xlink" x="0px" y="0px"
	 viewBox="0 0 200 200" style="enable-background:new 0 0 200 200;" xml:space="preserve">
<style type="text/css">
	.st0{fill:#333333;}
</style>
<g>
	<g>
		<path class="st0" d="M100,37.5c17.23,0,31.25,14.02,31.25,31.25S117.23,100,100,100S68.75,85.98,68.75,68.75S82.77,37.5,100,37.5
			 M100,25c-24.16,0-43.75,19.59-43.75,43.75S75.84,112.5,100,112.5s43.75-19.59,43.75-43.75S124.16,25,100,25L100,25z"/>
	</g>
</g>
<g>
	<path class="st0" d="M152.94,168.75H47.06c-8.72,0-15.81-7.09-15.81-15.81c0-22.32,18.12-40.44,40.4-40.44h56.71
		c22.27,0,40.4,18.12,40.4,40.4C168.75,161.66,161.66,168.75,152.94,168.75z M71.65,125c-15.38,0-27.9,12.52-27.9,27.9
		c0,1.87,1.49,3.35,3.31,3.35h105.88c1.82,0,3.31-1.49,3.31-3.31c0-15.42-12.52-27.94-27.9-27.94H71.65z"/>
</g>
<g>
	<path class="st0" d="M134.38,147.19h-18.75c-3.45,0-6.25-2.8-6.25-6.25s2.8-6.25,6.25-6.25h18.75c3.45,0,6.25,2.8,6.25,6.25
		S137.83,147.19,134.38,147.19z"/>
</g>
</svg>
