<?xml version="1.0" encoding="utf-8"?>
<!-- Generator: Adobe Illustrator 23.0.0, SVG Export Plug-In . SVG Version: 6.00 Build 0)  -->
<svg version="1.1" id="图层_1" xmlns="http://www.w3.org/2000/svg" xmlns:xlink="http://www.w3.org/1999/xlink" x="0px" y="0px"
	 viewBox="0 0 200 200" style="enable-background:new 0 0 200 200;" xml:space="preserve">
<style type="text/css">
	.st0{fill:#333333;}
</style>
<path class="st0" d="M100,18.75c-44.87,0-81.25,36.38-81.25,81.25c0,44.87,36.38,81.25,81.25,81.25s81.25-36.38,81.25-81.25
	C181.25,55.13,144.87,18.75,100,18.75z M135.67,96.45c-1.22,1.22-2.82,1.83-4.42,1.83s-3.2-0.61-4.42-1.83l-20.58-20.58v62.97
	c0,3.45-2.8,6.25-6.25,6.25s-6.25-2.8-6.25-6.25V75.87L73.17,96.45c-2.44,2.44-6.4,2.44-8.84,0s-2.44-6.4,0-8.84l30.62-30.62
	c2.78-2.78,7.31-2.78,10.09,0l30.62,30.62C138.11,90.06,138.11,94.01,135.67,96.45z"/>
</svg>
