<?xml version="1.0" encoding="utf-8"?>
<!-- Generator: Adobe Illustrator 23.0.0, SVG Export Plug-In . SVG Version: 6.00 Build 0)  -->
<svg version="1.1" id="图层_1" xmlns="http://www.w3.org/2000/svg" xmlns:xlink="http://www.w3.org/1999/xlink" x="0px" y="0px"
	 viewBox="0 0 200 200" style="enable-background:new 0 0 200 200;" xml:space="preserve">
<style type="text/css">
	.st0{fill:#333333;}
</style>
<g>
	<g>
		<g>
			<path class="st0" d="M100,31.25c37.91,0,68.75,30.84,68.75,68.75s-30.84,68.75-68.75,68.75S31.25,137.91,31.25,100
				S62.09,31.25,100,31.25 M100,18.75c-44.87,0-81.25,36.38-81.25,81.25c0,44.87,36.38,81.25,81.25,81.25
				c44.87,0,81.25-36.38,81.25-81.25C181.25,55.13,144.87,18.75,100,18.75L100,18.75z"/>
		</g>
	</g>
	<g>
		<g>
			<path class="st0" d="M100,142.41c-3.45,0-6.25-2.8-6.25-6.25v-75c0-3.45,2.8-6.25,6.25-6.25s6.25,2.8,6.25,6.25v75
				C106.25,139.62,103.45,142.41,100,142.41z"/>
		</g>
	</g>
	<g>
		<g>
			<path class="st0" d="M99.99,145.08c-1.82,0-3.63-0.68-5.02-2.06l-30.64-30.65c-2.44-2.44-2.44-6.4,0-8.84
				c2.44-2.44,6.4-2.44,8.84,0L100,130.37l26.83-26.83c2.44-2.44,6.4-2.44,8.84,0s2.44,6.4,0,8.84l-30.62,30.63
				C103.65,144.39,101.82,145.08,99.99,145.08z"/>
		</g>
	</g>
</g>
</svg>
