<?xml version="1.0" encoding="utf-8"?>
<!-- Generator: Adobe Illustrator 23.0.0, SVG Export Plug-In . SVG Version: 6.00 Build 0)  -->
<svg version="1.1" id="图层_1" xmlns="http://www.w3.org/2000/svg" xmlns:xlink="http://www.w3.org/1999/xlink" x="0px" y="0px"
	 viewBox="0 0 200 200" style="enable-background:new 0 0 200 200;" xml:space="preserve">
<style type="text/css">
	.st0{fill:#333333;}
</style>
<g>
	<g>
		<g>
			<path class="st0" d="M100,18.75c-44.87,0-81.25,36.38-81.25,81.25c0,44.87,36.38,81.25,81.25,81.25s81.25-36.38,81.25-81.25
				C181.25,55.13,144.87,18.75,100,18.75z M135.67,112.38l-30.62,30.63c-1.4,1.39-3.23,2.08-5.05,2.08c-1.82,0-3.63-0.68-5.02-2.06
				l-30.65-30.65c-2.44-2.44-2.44-6.4,0-8.84s6.4-2.44,8.84,0l20.58,20.58V61.16c0-3.45,2.8-6.25,6.25-6.25s6.25,2.8,6.25,6.25
				v62.96l20.58-20.58c2.44-2.44,6.4-2.44,8.84,0S138.11,109.94,135.67,112.38z"/>
		</g>
	</g>
</g>
</svg>
