<?xml version="1.0" encoding="utf-8"?>
<!-- Generator: Adobe Illustrator 23.0.0, SVG Export Plug-In . SVG Version: 6.00 Build 0)  -->
<svg version="1.1" id="图层_1" xmlns="http://www.w3.org/2000/svg" xmlns:xlink="http://www.w3.org/1999/xlink" x="0px" y="0px"
	 viewBox="0 0 200 200" style="enable-background:new 0 0 200 200;" xml:space="preserve">
<style type="text/css">
	.st0{fill:#333333;}
</style>
<g>
	<path class="st0" d="M98.98,30.92c37.91,0,68.75,30.84,68.75,68.75s-30.84,68.75-68.75,68.75s-68.75-30.84-68.75-68.75
		S61.07,30.92,98.98,30.92 M98.98,18.42c-44.87,0-81.25,36.38-81.25,81.25s36.38,81.25,81.25,81.25c44.87,0,81.25-36.38,81.25-81.25
		S143.86,18.42,98.98,18.42L98.98,18.42z"/>
</g>
<g>
	<path class="st0" d="M98.98,144.76c-3.45,0-6.25-2.8-6.25-6.25v-75c0-3.45,2.8-6.25,6.25-6.25s6.25,2.8,6.25,6.25v75
		C105.23,141.97,102.44,144.76,98.98,144.76z"/>
</g>
<g>
	<path class="st0" d="M130.23,97.96c-1.6,0-3.2-0.61-4.42-1.83L98.98,69.3L72.15,96.13c-2.44,2.44-6.4,2.44-8.84,0s-2.44-6.4,0-8.84
		l30.63-30.62c2.66-2.68,7.4-2.7,10.1,0.02l30.61,30.61c2.44,2.44,2.44,6.4,0,8.84C133.43,97.35,131.83,97.96,130.23,97.96z
		 M95.19,65.5c0.01,0.01,0.02,0.02,0.03,0.03L95.19,65.5z M102.8,65.49l-0.03,0.03C102.78,65.51,102.79,65.49,102.8,65.49z"/>
</g>
</svg>
