<?xml version="1.0" encoding="utf-8"?>
<!-- Generator: Adobe Illustrator 23.0.0, SVG Export Plug-In . SVG Version: 6.00 Build 0)  -->
<svg version="1.1" id="图层_1" xmlns="http://www.w3.org/2000/svg" xmlns:xlink="http://www.w3.org/1999/xlink" x="0px" y="0px"
	 viewBox="0 0 200 200" style="enable-background:new 0 0 200 200;" xml:space="preserve">
<style type="text/css">
	.st0{fill:#333333;}
</style>
<g>
	<g>
		<path class="st0" d="M89.57,19.4C52.9,23.96,23.46,53.82,19.29,90.54c-1.74,15.27,0.8,29.8,6.53,42.58
			c3.85,8.59,4.56,18.25,2.12,27.34l-3.54,13.23l14.96-4.01c7.78-2.08,16.1-1.33,23.24,2.4c13.41,7.01,29,10.4,45.52,8.78
			c37.3-3.65,67.91-33.32,72.5-70.52C187.15,57.33,142.58,12.8,89.57,19.4z M99.73,151.91c-3.45,0-6.25-2.8-6.25-6.25
			c0-3.45,2.8-6.25,6.25-6.25s6.25,2.8,6.25,6.25C105.98,149.11,103.18,151.91,99.73,151.91z M110.17,102.71
			c-6.16,3.44-6.23,7.76-5.79,14.5c0.09,1.32,0.16,2.58,0.16,3.72c0,3.45-2.8,6.25-6.25,6.25s-6.25-2.8-6.25-6.25
			c0-0.9-0.07-1.87-0.13-2.91c-0.43-6.57-1.23-18.79,12.66-26.48c9.08-4.12,11.75-11.4,10.57-16.89c-1.34-6.24-7.05-9.97-15.28-9.97
			c-18.09,0-19.36,13.94-19.43,16.74c-0.09,3.39-2.87,6.12-6.25,6.12c-0.04,0-0.07,0-0.11,0c-3.43-0.06-6.18-2.86-6.14-6.29
			c0.1-10.05,6.9-29.06,31.93-29.06c14.11,0,24.91,7.79,27.5,19.84C129.6,82.44,125.15,95.96,110.17,102.71z"/>
	</g>
</g>
</svg>
