<?xml version="1.0" encoding="utf-8"?>
<!-- Generator: Adobe Illustrator 23.0.0, SVG Export Plug-In . SVG Version: 6.00 Build 0)  -->
<svg version="1.1" id="图层_1" xmlns="http://www.w3.org/2000/svg" xmlns:xlink="http://www.w3.org/1999/xlink" x="0px" y="0px"
	 viewBox="0 0 200 200" style="enable-background:new 0 0 200 200;" xml:space="preserve">
<style type="text/css">
	.st0{fill:#333333;}
</style>
<path class="st0" d="M100,18.75c-44.87,0-81.25,36.38-81.25,81.25s36.38,81.25,81.25,81.25s81.25-36.38,81.25-81.25
	S144.87,18.75,100,18.75z M136.54,128.65c-2.01,0.24-7.81-9.19-7.81-9.19c0,5.46-2.81,12.59-8.89,17.73c2.93,0.9,9.55,3.34,7.98,6
	c-1.27,2.15-21.86,1.37-27.81,0.7c-5.94,0.67-26.53,1.45-27.81-0.7c-1.58-2.66,5.04-5.09,7.98-5.99
	c-6.08-5.15-8.89-12.27-8.89-17.73c0,0-5.81,9.43-7.81,9.19c-0.94-0.11-2.16-5.16,1.63-17.37c1.79-5.75,3.83-10.54,6.99-18.43
	C71.55,72.49,79.96,55.41,100,55.41c19.81,0,28.42,16.75,27.92,37.45c3.16,7.88,5.21,12.69,6.99,18.43
	C138.7,123.48,137.47,128.53,136.54,128.65z"/>
</svg>
