<?xml version="1.0" encoding="utf-8"?>
<!-- Generator: Adobe Illustrator 23.0.0, SVG Export Plug-In . SVG Version: 6.00 Build 0)  -->
<svg version="1.1" id="图层_1" xmlns="http://www.w3.org/2000/svg" xmlns:xlink="http://www.w3.org/1999/xlink" x="0px" y="0px"
	 viewBox="0 0 200 200" style="enable-background:new 0 0 200 200;" xml:space="preserve">
<style type="text/css">
	.st0{fill:#333333;}
</style>
<g>
	<path class="st0" d="M76.56,37.5c2.58,0,4.69,2.1,4.69,4.69v34.38c0,2.58-2.1,4.69-4.69,4.69H42.19c-2.58,0-4.69-2.1-4.69-4.69
		V42.19c0-2.58,2.1-4.69,4.69-4.69H76.56 M76.56,25H42.19C32.7,25,25,32.7,25,42.19v34.38c0,9.49,7.7,17.19,17.19,17.19h34.38
		c9.49,0,17.19-7.7,17.19-17.19V42.19C93.75,32.7,86.05,25,76.56,25L76.56,25z"/>
</g>
<g>
	<path class="st0" d="M157.81,37.5c2.58,0,4.69,2.1,4.69,4.69v34.38c0,2.58-2.1,4.69-4.69,4.69h-34.38c-2.58,0-4.69-2.1-4.69-4.69
		V42.19c0-2.58,2.1-4.69,4.69-4.69H157.81 M157.81,25h-34.38c-9.49,0-17.19,7.7-17.19,17.19v34.38c0,9.49,7.7,17.19,17.19,17.19
		h34.38c9.49,0,17.19-7.7,17.19-17.19V42.19C175,32.7,167.3,25,157.81,25L157.81,25z"/>
</g>
<g>
	<path class="st0" d="M76.56,118.75c2.58,0,4.69,2.1,4.69,4.69v34.38c0,2.58-2.1,4.69-4.69,4.69H42.19c-2.58,0-4.69-2.1-4.69-4.69
		v-34.38c0-2.58,2.1-4.69,4.69-4.69H76.56 M76.56,106.25H42.19c-9.49,0-17.19,7.7-17.19,17.19v34.38C25,167.3,32.7,175,42.19,175
		h34.38c9.49,0,17.19-7.7,17.19-17.19v-34.38C93.75,113.95,86.05,106.25,76.56,106.25L76.56,106.25z"/>
</g>
<g>
	<path class="st0" d="M118.98,129.62c-3.45,0-6.25-2.8-6.25-6.25v-9.46c0-3.45,2.8-6.25,6.25-6.25s6.25,2.8,6.25,6.25v9.46
		C125.23,126.82,122.43,129.62,118.98,129.62z"/>
</g>
<g>
	<path class="st0" d="M118.98,171.5c-3.45,0-6.25-2.8-6.25-6.25v-25c0-3.45,2.8-6.25,6.25-6.25s6.25,2.8,6.25,6.25v25
		C125.23,168.7,122.43,171.5,118.98,171.5z"/>
</g>
<g>
	<path class="st0" d="M142.05,142.15c-3.45,0-6.25-2.8-6.25-6.25v-21.99c0-3.45,2.8-6.25,6.25-6.25s6.25,2.8,6.25,6.25v21.99
		C148.3,139.36,145.51,142.15,142.05,142.15z"/>
</g>
<g>
	<path class="st0" d="M142.05,171.53c-3.45,0-6.25-2.8-6.25-6.25v-12.5c0-3.45,2.8-6.25,6.25-6.25s6.25,2.8,6.25,6.25v12.5
		C148.3,168.73,145.51,171.53,142.05,171.53z"/>
</g>
<g>
	<path class="st0" d="M165.13,129.76c-3.45,0-6.25-2.8-6.25-6.25v-9.6c0-3.45,2.8-6.25,6.25-6.25s6.25,2.8,6.25,6.25v9.6
		C171.38,126.97,168.59,129.76,165.13,129.76z"/>
</g>
<g>
	<path class="st0" d="M165.13,171.64c-3.45,0-6.25-2.8-6.25-6.25v-25c0-3.45,2.8-6.25,6.25-6.25s6.25,2.8,6.25,6.25v25
		C171.38,168.84,168.59,171.64,165.13,171.64z"/>
</g>
</svg>
