<?xml version="1.0" encoding="utf-8"?>
<!-- Generator: Adobe Illustrator 23.0.0, SVG Export Plug-In . SVG Version: 6.00 Build 0)  -->
<svg version="1.1" id="图层_1" xmlns="http://www.w3.org/2000/svg" xmlns:xlink="http://www.w3.org/1999/xlink" x="0px" y="0px"
	 viewBox="0 0 200 200" style="enable-background:new 0 0 200 200;" xml:space="preserve">
<style type="text/css">
	.st0{fill:#333333;}
</style>
<path class="st0" d="M168.74,31.32c0-0.02,0-0.04,0-0.07h-0.01c-0.07-6.91-5.69-12.5-12.62-12.5H43.88
	c-6.93,0-12.55,5.59-12.62,12.5h-0.02c0,0.04,0.01,0.07,0.01,0.11c0,0.01,0,0.02,0,0.02v137.23c0,6.98,5.66,12.63,12.63,12.63
	h112.23c6.98,0,12.63-5.66,12.63-12.63V31.38C168.75,31.36,168.74,31.34,168.74,31.32z M156.12,31.25l0.12,0.12
	c-0.05,25.22-16.79,46.59-39.74,53.65C113.35,79.09,107.19,75,100,75c-7.19,0-13.35,4.09-16.5,10.02
	C61.32,78.2,45.01,58,43.88,33.89l0-2.64H156.12z M100,87.5C99.99,87.5,99.99,87.5,100,87.5C99.99,87.5,100,87.5,100,87.5
	C100,87.5,100,87.5,100,87.5C100,87.5,100,87.5,100,87.5z M43.75,168.62l0.09-97.83c9.04,12.79,22.31,22.34,37.78,26.65
	c1.71,8.59,9.28,15.07,18.38,15.07c9.09,0,16.67-6.48,18.38-15.07c15.5-4.31,28.8-13.89,37.83-26.73l-0.09,98.05L43.75,168.62z"/>
</svg>
