<?xml version="1.0" encoding="utf-8"?>
<!-- Generator: Adobe Illustrator 23.0.0, SVG Export Plug-In . SVG Version: 6.00 Build 0)  -->
<svg version="1.1" id="图层_1" xmlns="http://www.w3.org/2000/svg" xmlns:xlink="http://www.w3.org/1999/xlink" x="0px" y="0px"
	 viewBox="0 0 200 200" style="enable-background:new 0 0 200 200;" xml:space="preserve">
<style type="text/css">
	.st0{fill:#333333;}
</style>
<g>
	<path class="st0" d="M100.32,181.27c-18.82,0-36.88-6.49-51.65-18.71C16.16,135.67,9.77,87.62,34.12,53.17
		c12.89-18.24,32.12-30.13,54.14-33.49c22.07-3.36,43.93,2.25,61.63,15.8c6.99,5.35,13,11.72,17.86,18.88l-0.25-13.67
		c-0.06-3.45,2.69-6.3,6.14-6.37c0.04,0,0.08,0,0.12,0c3.4,0,6.18,2.72,6.25,6.13l0.64,35.13l-0.09,0.56
		c-0.58,3.54-3.48,6.22-7.04,6.53c-3.51,0.28-6.87-1.84-8.04-5.23c-4.41-12.74-12.42-23.82-23.17-32.04
		c-14.97-11.46-33.48-16.19-52.15-13.36c-18.64,2.84-34.91,12.91-45.82,28.34c-20.25,28.66-14.73,70.17,12.31,92.54
		c14.57,12.05,32.89,17.5,51.64,15.39c18.74-2.13,35.38-11.55,46.84-26.53c2.1-2.75,6.03-3.25,8.76-1.17
		c2.74,2.09,3.26,6.02,1.16,8.76c-13.54,17.7-33.2,28.83-55.35,31.35C106.55,181.09,103.43,181.27,100.32,181.27z"/>
</g>
</svg>
