<?xml version="1.0" encoding="utf-8"?>
<!-- Generator: Adobe Illustrator 23.0.0, SVG Export Plug-In . SVG Version: 6.00 Build 0)  -->
<svg version="1.1" id="图层_1" xmlns="http://www.w3.org/2000/svg" xmlns:xlink="http://www.w3.org/1999/xlink" x="0px" y="0px"
	 viewBox="0 0 200 200" style="enable-background:new 0 0 200 200;" xml:space="preserve">
<style type="text/css">
	.st0{fill:#333333;}
</style>
<g>
	<g>
		<g>
			<path class="st0" d="M105.85,154.56c-1.6,0-3.2-0.61-4.42-1.83c-2.44-2.44-2.44-6.4,0-8.84l40.7-40.7l-40.7-40.91
				c-2.44-2.44-2.44-6.4,0-8.84s6.4-2.44,8.84,0l40.7,40.7c4.93,4.94,4.93,12.96,0,17.88l-40.7,40.7
				C109.05,153.95,107.45,154.56,105.85,154.56z"/>
		</g>
	</g>
	<g>
		<g>
			<path class="st0" d="M60.93,154.56c-1.6,0-3.2-0.61-4.42-1.83c-2.44-2.44-2.44-6.4,0-8.84l40.7-40.7l-40.7-40.91
				c-2.44-2.44-2.44-6.4,0-8.84s6.4-2.44,8.84,0l40.7,40.7c4.93,4.94,4.93,12.96,0,17.88l-40.7,40.7
				C64.12,153.95,62.52,154.56,60.93,154.56z"/>
		</g>
	</g>
</g>
</svg>
