<?xml version="1.0" encoding="utf-8"?>
<!-- Generator: Adobe Illustrator 23.0.0, SVG Export Plug-In . SVG Version: 6.00 Build 0)  -->
<svg version="1.1" id="图层_1" xmlns="http://www.w3.org/2000/svg" xmlns:xlink="http://www.w3.org/1999/xlink" x="0px" y="0px"
	 viewBox="0 0 200 200" style="enable-background:new 0 0 200 200;" xml:space="preserve">
<style type="text/css">
	.st0{fill:#333333;}
</style>
<path class="st0" d="M144.31,74.42v62.5h-100v-62.5H144.31 M147.26,61.92H41.36c-5.27,0-9.55,4.27-9.55,9.55v68.4
	c0,5.27,4.27,9.55,9.55,9.55h105.9c5.27,0,9.55-4.27,9.55-9.55v-68.4C156.81,66.2,152.53,61.92,147.26,61.92L147.26,61.92z"/>
<path class="st0" d="M136.41,33.9V23.25c0-1.85-2.12-2.9-3.59-1.77L111.54,37.8c-1.17,0.89-1.17,2.65,0,3.55l21.27,16.32
	c1.47,1.13,3.59,0.08,3.59-1.77V46.4c19.16,1.02,34.44,16.89,34.44,36.3c0,3.45,2.8,6.25,6.25,6.25s6.25-2.8,6.25-6.25
	C183.35,56.4,162.46,34.94,136.41,33.9z"/>
</svg>
