<?xml version="1.0" encoding="utf-8"?>
<!-- Generator: Adobe Illustrator 23.0.0, SVG Export Plug-In . SVG Version: 6.00 Build 0)  -->
<svg version="1.1" id="图层_1" xmlns="http://www.w3.org/2000/svg" xmlns:xlink="http://www.w3.org/1999/xlink" x="0px" y="0px"
	 viewBox="0 0 200 200" style="enable-background:new 0 0 200 200;" xml:space="preserve">
<style type="text/css">
	.st0{fill:#333333;}
</style>
<g>
	<g>
		<g>
			<path class="st0" d="M100,31.25c37.91,0,68.75,30.84,68.75,68.75s-30.84,68.75-68.75,68.75S31.25,137.91,31.25,100
				S62.09,31.25,100,31.25 M100,18.75c-44.87,0-81.25,36.38-81.25,81.25c0,44.87,36.38,81.25,81.25,81.25
				c44.87,0,81.25-36.38,81.25-81.25C181.25,55.13,144.87,18.75,100,18.75L100,18.75z"/>
		</g>
	</g>
	<g>
		<g>
			<path class="st0" d="M89.78,137.5c-1.6,0-3.2-0.61-4.42-1.83c-2.44-2.44-2.44-6.4,0-8.84L112.19,100L85.36,73.17
				c-2.44-2.44-2.44-6.4,0-8.84c2.44-2.44,6.4-2.44,8.84,0l30.62,30.63c2.77,2.79,2.77,7.3,0.02,10.07l-30.65,30.64
				C92.97,136.89,91.37,137.5,89.78,137.5z M115.96,103.78h0.06H115.96z"/>
		</g>
	</g>
</g>
</svg>
