<?xml version="1.0" encoding="utf-8"?>
<!-- Generator: Adobe Illustrator 23.0.0, SVG Export Plug-In . SVG Version: 6.00 Build 0)  -->
<svg version="1.1" id="图层_1" xmlns="http://www.w3.org/2000/svg" xmlns:xlink="http://www.w3.org/1999/xlink" x="0px" y="0px"
	 viewBox="0 0 200 200" style="enable-background:new 0 0 200 200;" xml:space="preserve">
<style type="text/css">
	.st0{fill:#333333;}
</style>
<g>
	<g>
		<g>
			<path class="st0" d="M100,18.75c-44.87,0-81.25,36.38-81.25,81.25c0,44.87,36.38,81.25,81.25,81.25
				c44.87,0,81.25-36.38,81.25-81.25C181.25,55.13,144.87,18.75,100,18.75z M124.84,105.53l-30.65,30.65
				c-1.22,1.22-2.82,1.83-4.42,1.83s-3.2-0.61-4.42-1.83c-2.44-2.44-2.44-6.4,0-8.84l26.83-26.83L85.35,73.68
				c-2.44-2.44-2.44-6.4,0-8.84s6.4-2.44,8.84,0l30.63,30.62C127.59,98.25,127.59,102.76,124.84,105.53z"/>
		</g>
	</g>
</g>
</svg>
