<?xml version="1.0" encoding="utf-8"?>
<!-- Generator: Adobe Illustrator 23.0.0, SVG Export Plug-In . SVG Version: 6.00 Build 0)  -->
<svg version="1.1" id="图层_1" xmlns="http://www.w3.org/2000/svg" xmlns:xlink="http://www.w3.org/1999/xlink" x="0px" y="0px"
	 viewBox="0 0 200 200" style="enable-background:new 0 0 200 200;" xml:space="preserve">
<style type="text/css">
	.st0{fill:#333333;}
</style>
<g>
	<path class="st0" d="M31.47,80.31c-3.45,0-6.25-2.8-6.25-6.25V41.78c0-9.76,7.95-17.71,17.71-17.71h32.2c3.45,0,6.25,2.8,6.25,6.25
		s-2.8,6.25-6.25,6.25h-32.2c-2.87,0-5.21,2.33-5.21,5.21v32.28C37.72,77.51,34.93,80.31,31.47,80.31z"/>
</g>
<g>
	<path class="st0" d="M75.2,174.07H42.94c-9.77,0-17.71-7.94-17.71-17.71v-32.3c0-3.45,2.8-6.25,6.25-6.25s6.25,2.8,6.25,6.25v32.3
		c0,2.87,2.34,5.21,5.21,5.21H75.2c3.45,0,6.25,2.8,6.25,6.25S78.65,174.07,75.2,174.07z"/>
</g>
<g>
	<path class="st0" d="M157.52,174.07H125.2c-3.45,0-6.25-2.8-6.25-6.25s2.8-6.25,6.25-6.25h32.32c2.87,0,5.21-2.34,5.21-5.21v-32.29
		c0-3.45,2.8-6.25,6.25-6.25c3.45,0,6.25,2.8,6.25,6.25v32.29C175.22,166.13,167.28,174.07,157.52,174.07z"/>
</g>
<g>
	<path class="st0" d="M168.97,80.32c-3.45,0-6.25-2.8-6.25-6.25V41.78c0-2.87-2.34-5.21-5.21-5.21h-32.39
		c-3.45,0-6.25-2.8-6.25-6.25s2.8-6.25,6.25-6.25h32.39c9.77,0,17.71,7.94,17.71,17.71v32.29
		C175.22,77.52,172.43,80.32,168.97,80.32z"/>
</g>
<g>
	<path class="st0" d="M174.65,104.8h-150c-3.45,0-6.25-2.8-6.25-6.25s2.8-6.25,6.25-6.25h150c3.45,0,6.25,2.8,6.25,6.25
		S178.11,104.8,174.65,104.8z"/>
</g>
</svg>
