<?xml version="1.0" encoding="utf-8"?>
<!-- Generator: Adobe Illustrator 23.0.0, SVG Export Plug-In . SVG Version: 6.00 Build 0)  -->
<svg version="1.1" id="图层_1" xmlns="http://www.w3.org/2000/svg" xmlns:xlink="http://www.w3.org/1999/xlink" x="0px" y="0px"
	 viewBox="0 0 200 200" style="enable-background:new 0 0 200 200;" xml:space="preserve">
<style type="text/css">
	.st0{fill:#333333;}
	.st1{fill:none;stroke:#333333;stroke-width:2;stroke-linecap:round;stroke-miterlimit:10;}
</style>
<g>
	<path class="st0" d="M109.28,175.49c-3.45,0-6.25-2.8-6.25-6.25V96.55c0-3.69,1.3-7.26,3.66-10.06l36.89-43.64
		c1.17-1.39,0.61-2.91,0.41-3.34c-0.26-0.57-0.9-1.52-2.2-1.52H41.78c-1.3,0-1.93,0.96-2.2,1.52c-0.2,0.43-0.76,1.95,0.42,3.34
		l36.88,43.63c2.36,2.79,3.66,6.36,3.66,10.06v37.88l12.01,17.29c1.97,2.84,1.27,6.73-1.57,8.7c-2.84,1.97-6.73,1.26-8.7-1.57
		l-12.29-17.71c-1.28-1.84-1.95-3.99-1.95-6.23V96.55c0-0.74-0.25-1.45-0.71-1.99L30.45,50.92c-3.96-4.68-4.8-11.07-2.2-16.67
		c2.5-5.4,7.69-8.76,13.54-8.76h99.99c5.85,0,11.04,3.36,13.54,8.76c2.6,5.6,1.76,11.99-2.2,16.67l-36.88,43.64
		c-0.45,0.54-0.71,1.25-0.71,1.99v72.69C115.53,172.7,112.73,175.49,109.28,175.49z"/>
</g>
<g>
	<path class="st1" d="M109.28,169.25"/>
</g>
<g>
	<path class="st1" d="M74.29,168.97"/>
</g>
<g>
	<path class="st0" d="M168.75,96.88h-25c-3.45,0-6.25-2.8-6.25-6.25v0c0-3.45,2.8-6.25,6.25-6.25h25c3.45,0,6.25,2.8,6.25,6.25v0
		C175,94.08,172.2,96.88,168.75,96.88z"/>
</g>
<g>
	<path class="st0" d="M168.75,126.56h-25c-3.45,0-6.25-2.8-6.25-6.25v0c0-3.45,2.8-6.25,6.25-6.25h25c3.45,0,6.25,2.8,6.25,6.25v0
		C175,123.76,172.2,126.56,168.75,126.56z"/>
</g>
<g>
	<path class="st0" d="M168.75,156.25h-25c-3.45,0-6.25-2.8-6.25-6.25l0,0c0-3.45,2.8-6.25,6.25-6.25h25c3.45,0,6.25,2.8,6.25,6.25
		l0,0C175,153.45,172.2,156.25,168.75,156.25z"/>
</g>
</svg>
