<?xml version="1.0" encoding="utf-8"?>
<!-- Generator: Adobe Illustrator 23.0.0, SVG Export Plug-In . SVG Version: 6.00 Build 0)  -->
<svg version="1.1" id="图层_1" xmlns="http://www.w3.org/2000/svg" xmlns:xlink="http://www.w3.org/1999/xlink" x="0px" y="0px"
	 viewBox="0 0 200 200" style="enable-background:new 0 0 200 200;" xml:space="preserve">
<style type="text/css">
	.st0{fill:#333333;}
</style>
<path class="st0" d="M95.11,28.04c33.85,0,61.4,27.54,61.4,61.4c0,33.85-27.54,61.4-61.4,61.4c-33.85,0-61.4-27.54-61.4-61.4
	C33.71,55.58,61.26,28.04,95.11,28.04 M95.11,15.54c-40.81,0-73.9,33.08-73.9,73.9c0,40.81,33.08,73.9,73.9,73.9
	c40.81,0,73.9-33.08,73.9-73.9C169.01,48.62,135.92,15.54,95.11,15.54L95.11,15.54z"/>
<path class="st0" d="M176.62,184.29c-1.6,0-3.2-0.61-4.42-1.83l-36.95-36.95c-2.44-2.44-2.44-6.4,0-8.84s6.4-2.44,8.84,0
	l36.95,36.95c2.44,2.44,2.44,6.4,0,8.84C179.82,183.68,178.22,184.29,176.62,184.29z"/>
</svg>
