<?xml version="1.0" encoding="utf-8"?>
<!-- Generator: Adobe Illustrator 23.0.0, SVG Export Plug-In . SVG Version: 6.00 Build 0)  -->
<svg version="1.1" id="图层_1" xmlns="http://www.w3.org/2000/svg" xmlns:xlink="http://www.w3.org/1999/xlink" x="0px" y="0px"
	 viewBox="0 0 200 200" style="enable-background:new 0 0 200 200;" xml:space="preserve">
<style type="text/css">
	.st0{fill:#333333;}
</style>
<g>
	<path class="st0" d="M106.97,31.5c2.59,0,4.69,2.1,4.69,4.69c0,6.63,3.91,12.78,9.96,15.67c2.55,1.22,5.06,2.69,7.48,4.37
		c2.97,2.07,6.43,3.16,10.02,3.16c3.03,0,6.01-0.8,8.68-2.34c0.73-0.42,1.51-0.63,2.33-0.63c1.7,0,3.23,0.88,4.08,2.35l8.2,14.2
		c0.85,1.46,0.66,2.86,0.47,3.56c-0.19,0.7-0.72,2-2.21,2.86c-5.83,3.36-9.19,9.9-8.58,16.66c0.14,1.51,0.2,2.89,0.2,4.19
		c0,1.31-0.07,2.68-0.2,4.19c-0.61,6.76,2.76,13.29,8.61,16.67c1.46,0.85,2,2.15,2.19,2.85c0.19,0.7,0.38,2.1-0.47,3.56l-8.2,14.2
		c-0.85,1.47-2.37,2.35-4.08,2.35c-0.82,0-1.6-0.21-2.38-0.66c-2.62-1.51-5.6-2.31-8.63-2.31c-3.59,0-7.05,1.09-10.02,3.16
		c-2.42,1.69-4.94,3.16-7.48,4.37c-6.05,2.89-9.96,9.04-9.96,15.67c0,2.59-2.1,4.69-4.69,4.69h-16.4c-2.59,0-4.69-2.1-4.69-4.69
		c0-6.63-3.91-12.78-9.96-15.67c-2.55-1.22-5.06-2.69-7.48-4.37c-2.97-2.07-6.43-3.16-10.02-3.16c-3.03,0-6.01,0.8-8.68,2.34
		c-0.73,0.42-1.51,0.63-2.33,0.63c-1.71,0-3.23-0.88-4.08-2.35l-8.2-14.2c-1.29-2.24-0.52-5.12,1.74-6.42
		c5.83-3.36,9.19-9.9,8.58-16.66c-0.14-1.51-0.2-2.88-0.2-4.19c0-1.31,0.07-2.68,0.2-4.19c0.61-6.76-2.76-13.29-8.61-16.67
		c-1.46-0.85-2-2.15-2.19-2.85c-0.19-0.7-0.38-2.1,0.47-3.56l8.2-14.2c0.85-1.47,2.37-2.35,4.08-2.35c0.82,0,1.6,0.21,2.38,0.66
		c2.62,1.51,5.6,2.31,8.63,2.31c3.59,0,7.05-1.09,10.02-3.16c2.42-1.68,4.94-3.16,7.48-4.37c6.05-2.89,9.96-9.04,9.96-15.67
		c0-2.59,2.1-4.69,4.69-4.69H106.97 M106.97,19h-16.4c-9.49,0-17.19,7.7-17.19,17.19v0c0,1.9-1.14,3.57-2.85,4.39
		c-3.24,1.55-6.32,3.36-9.24,5.39c-0.86,0.6-1.87,0.92-2.88,0.92c-0.82,0-1.63-0.21-2.38-0.64l-0.05-0.03
		c-2.71-1.56-5.66-2.31-8.58-2.31c-5.94,0-11.72,3.08-14.9,8.6l-8.2,14.2c-4.75,8.22-1.93,18.74,6.29,23.48l0.03,0.02
		c1.66,0.96,2.56,2.79,2.38,4.7c-0.16,1.75-0.25,3.53-0.25,5.32c0,1.8,0.1,3.57,0.25,5.32c0.17,1.91-0.72,3.75-2.38,4.7l-0.03,0.02
		c-8.22,4.75-11.04,15.26-6.29,23.48l8.2,14.2c3.18,5.51,8.96,8.6,14.9,8.6c2.92,0,5.87-0.74,8.58-2.31l0.05-0.03
		c0.74-0.43,1.56-0.64,2.38-0.64c1.01,0,2.01,0.31,2.88,0.92c2.92,2.03,6,3.85,9.24,5.39c1.72,0.82,2.85,2.49,2.85,4.39v0
		c0,9.49,7.7,17.19,17.19,17.19h16.4c9.49,0,17.19-7.7,17.19-17.19v0c0-1.9,1.13-3.57,2.85-4.39c3.24-1.55,6.32-3.36,9.24-5.39
		c0.86-0.6,1.87-0.92,2.88-0.92c0.82,0,1.63,0.21,2.38,0.64l0.05,0.03c2.71,1.56,5.66,2.31,8.58,2.31c5.94,0,11.72-3.08,14.9-8.6
		l8.2-14.2c4.75-8.22,1.93-18.74-6.29-23.48l-0.03-0.02c-1.66-0.96-2.56-2.79-2.38-4.7c0.16-1.75,0.26-3.52,0.26-5.32
		s-0.1-3.57-0.26-5.32c-0.17-1.91,0.72-3.75,2.38-4.7l0.03-0.02c8.22-4.75,11.04-15.26,6.29-23.48l-8.2-14.2
		c-3.18-5.51-8.96-8.6-14.9-8.6c-2.92,0-5.87,0.74-8.58,2.31l-0.05,0.03c-0.74,0.43-1.56,0.64-2.38,0.64
		c-1.01,0-2.01-0.31-2.88-0.92c-2.92-2.03-6-3.85-9.24-5.39c-1.71-0.82-2.85-2.49-2.85-4.39v0C124.16,26.7,116.47,19,106.97,19
		L106.97,19z"/>
</g>
<g>
	<path class="st0" d="M98.77,81.5c10.34,0,18.75,8.41,18.75,18.75S109.11,119,98.77,119s-18.75-8.41-18.75-18.75
		S88.43,81.5,98.77,81.5 M98.77,69c-17.26,0-31.25,13.99-31.25,31.25c0,17.26,13.99,31.25,31.25,31.25s31.25-13.99,31.25-31.25
		C130.02,82.99,116.03,69,98.77,69L98.77,69z"/>
</g>
</svg>
