<?xml version="1.0" encoding="utf-8"?>
<!-- Generator: Adobe Illustrator 23.0.0, SVG Export Plug-In . SVG Version: 6.00 Build 0)  -->
<svg version="1.1" id="图层_1" xmlns="http://www.w3.org/2000/svg" xmlns:xlink="http://www.w3.org/1999/xlink" x="0px" y="0px"
	 viewBox="0 0 200 200" style="enable-background:new 0 0 200 200;" xml:space="preserve">
<style type="text/css">
	.st0{fill:#333333;}
</style>
<g>
	<g>
		<path class="st0" d="M166.94,110.29l-0.03-0.02c-1.66-0.96-2.56-2.79-2.38-4.7c0.16-1.75,0.26-3.52,0.26-5.32s-0.1-3.57-0.26-5.32
			c-0.17-1.91,0.72-3.75,2.38-4.7l0.03-0.02c8.22-4.75,11.04-15.26,6.29-23.48l-8.2-14.2c-4.75-8.22-15.26-11.04-23.48-6.29
			l-0.05,0.03c-1.65,0.96-3.68,0.81-5.25-0.28c-2.92-2.03-6-3.85-9.24-5.39c-1.71-0.82-2.85-2.49-2.85-4.39
			c0-9.49-7.7-17.19-17.19-17.19h-16.4c-9.49,0-17.19,7.7-17.19,17.19c0,1.9-1.13,3.57-2.85,4.39c-3.24,1.55-6.32,3.36-9.24,5.39
			c-1.57,1.09-3.6,1.24-5.25,0.28l-0.05-0.03c-8.22-4.75-18.74-1.93-23.48,6.29l-8.2,14.2c-4.75,8.22-1.93,18.74,6.29,23.48
			l0.03,0.02c1.66,0.96,2.56,2.79,2.38,4.7c-0.16,1.75-0.25,3.53-0.25,5.32s0.1,3.57,0.25,5.32c0.17,1.91-0.72,3.74-2.38,4.7
			l-0.03,0.02c-8.22,4.75-11.04,15.26-6.29,23.48l8.2,14.2c4.75,8.22,15.26,11.04,23.48,6.29l0.05-0.03
			c1.65-0.95,3.68-0.81,5.25,0.28c2.92,2.03,6,3.85,9.24,5.39c1.72,0.82,2.85,2.49,2.85,4.39c0,9.49,7.7,17.19,17.19,17.19h16.4
			c9.49,0,17.19-7.7,17.19-17.19c0-1.9,1.13-3.57,2.85-4.39c3.24-1.55,6.32-3.36,9.24-5.39c1.57-1.09,3.6-1.24,5.25-0.28l0.05,0.03
			c8.22,4.75,18.74,1.93,23.48-6.29l8.2-14.2C177.98,125.55,175.17,115.04,166.94,110.29z M98.77,131.5
			c-17.26,0-31.25-13.99-31.25-31.25S81.51,69,98.77,69s31.25,13.99,31.25,31.25S116.03,131.5,98.77,131.5z"/>
	</g>
</g>
</svg>
