<?xml version="1.0" encoding="utf-8"?>
<!-- Generator: Adobe Illustrator 23.0.0, SVG Export Plug-In . SVG Version: 6.00 Build 0)  -->
<svg version="1.1" id="图层_1" xmlns="http://www.w3.org/2000/svg" xmlns:xlink="http://www.w3.org/1999/xlink" x="0px" y="0px"
	 viewBox="0 0 200 200" style="enable-background:new 0 0 200 200;" xml:space="preserve">
<style type="text/css">
	.st0{fill:none;stroke:#333333;stroke-width:2;stroke-miterlimit:10;}
	.st1{fill:#333333;}
</style>
<g>
	<g>
		<path class="st0" d="M141.6,160.2"/>
	</g>
</g>
<g>
	<g>
		<path class="st0" d="M140.84,47.06"/>
	</g>
</g>
<path class="st1" d="M142.28,132.73c-7.16,0-13.49,3.3-17.78,8.38l-53.96-31.15c0.67-2.17,1.13-4.43,1.13-6.83
	c0-2.22-0.41-4.33-0.99-6.37l54.11-31.24c4.28,4.87,10.48,8.01,17.47,8.01c12.89,0,23.34-10.45,23.34-23.34
	s-10.45-23.34-23.34-23.34s-23.34,10.45-23.34,23.34c0,1.39,0.18,2.73,0.41,4.05L64.19,86.07c-4.17-3.87-9.71-6.29-15.85-6.29
	C35.45,79.78,25,90.23,25,103.12s10.45,23.34,23.34,23.34c5.96,0,11.34-2.3,15.46-5.98l55.49,32.04c-0.18,1.16-0.36,2.33-0.36,3.54
	c0,12.89,10.45,23.34,23.34,23.34s23.34-10.45,23.34-23.34S155.17,132.73,142.28,132.73z"/>
</svg>
