<?xml version="1.0" encoding="utf-8"?>
<!-- Generator: Adobe Illustrator 23.0.0, SVG Export Plug-In . SVG Version: 6.00 Build 0)  -->
<svg version="1.1" id="图层_1" xmlns="http://www.w3.org/2000/svg" xmlns:xlink="http://www.w3.org/1999/xlink" x="0px" y="0px"
	 viewBox="0 0 200 200" style="enable-background:new 0 0 200 200;" xml:space="preserve">
<style type="text/css">
	.st0{fill:none;stroke:#333333;stroke-width:2;stroke-miterlimit:10;}
	.st1{fill:#333333;}
</style>
<g>
	<g>
		<path class="st0" d="M141.6,160.2"/>
	</g>
</g>
<g>
	<g>
		<path class="st0" d="M140.84,47.06"/>
	</g>
</g>
<path class="st1" d="M142.28,132.73c-7.12,0-13.42,3.26-17.7,8.29l-54.02-31.09c0.66-2.16,1.12-4.42,1.12-6.8
	c0-2.21-0.41-4.3-0.98-6.33l54.2-31.16c4.28,4.8,10.44,7.89,17.37,7.89c12.89,0,23.34-10.45,23.34-23.34s-10.45-23.34-23.34-23.34
	s-23.34,10.45-23.34,23.34c0,1.45,0.17,2.85,0.43,4.22L64.22,86.1c-4.17-3.89-9.73-6.32-15.88-6.32C35.45,79.78,25,90.23,25,103.12
	s10.45,23.34,23.34,23.34c6,0,11.41-2.33,15.54-6.04c0.1,0.06,0.15,0.16,0.25,0.22l55.17,31.76c-0.19,1.2-0.37,2.41-0.37,3.67
	c0,12.89,10.45,23.34,23.34,23.34s23.34-10.45,23.34-23.34S155.17,132.73,142.28,132.73z M142.28,39.33
	c5.98,0,10.84,4.86,10.84,10.84c0,5.98-4.86,10.84-10.84,10.84s-10.84-4.86-10.84-10.84C131.44,44.2,136.3,39.33,142.28,39.33z
	 M48.34,113.97c-5.98,0-10.84-4.86-10.84-10.84s4.86-10.84,10.84-10.84c5.98,0,10.84,4.86,10.84,10.84S54.32,113.97,48.34,113.97z
	 M142.28,166.92c-5.98,0-10.84-4.86-10.84-10.84c0-5.98,4.86-10.84,10.84-10.84s10.84,4.86,10.84,10.84
	C153.12,162.05,148.26,166.92,142.28,166.92z"/>
</svg>
