<?xml version="1.0" encoding="utf-8"?>
<!-- Generator: Adobe Illustrator 23.0.0, SVG Export Plug-In . SVG Version: 6.00 Build 0)  -->
<svg version="1.1" id="图层_1" xmlns="http://www.w3.org/2000/svg" xmlns:xlink="http://www.w3.org/1999/xlink" x="0px" y="0px"
	 viewBox="0 0 200 200" style="enable-background:new 0 0 200 200;" xml:space="preserve">
<style type="text/css">
	.st0{fill:#333333;}
</style>
<g>
	<g>
		<path class="st0" d="M164,73.97v89.19H39V73.97H164 M165.59,61.47H37.41c-6.02,0-10.91,4.88-10.91,10.91v92.37
			c0,6.02,4.88,10.91,10.91,10.91h128.19c6.02,0,10.91-4.88,10.91-10.91V72.37C176.5,66.35,171.62,61.47,165.59,61.47L165.59,61.47z
			"/>
	</g>
</g>
<g>
	<g>
		<path class="st0" d="M188.17,78.77h0.09l-0.46-1.41c-0.38-1.53-0.83-3.03-1.45-4.45l-21.83-46.39c-1.82-5.59-6.94-9.36-12.71-9.36
			H50.52c-5.77,0-10.89,3.77-12.71,9.36L15.88,73.18c-0.23,0.54-0.36,1.13-0.55,1.7l-1.27,3.89h0.15
			c-1.18,6.19-0.65,13.01,4.8,20.53c5.08,7.02,12.83,12.04,21.37,12.08c7.69,0.03,14.55-3.31,19.45-8.58c0.51-0.55,1.31-0.55,1.81,0
			c4.87,5.25,11.69,8.58,19.33,8.58c7.64,0,14.46-3.34,19.33-8.59c0.5-0.54,1.3-0.54,1.8,0c4.87,5.25,11.69,8.59,19.33,8.59
			c7.64,0,14.45-3.33,19.33-8.58c0.51-0.55,1.31-0.55,1.81,0c4.9,5.28,11.76,8.62,19.45,8.58c8.54-0.04,16.29-5.06,21.37-12.08
			C188.82,91.78,189.35,84.96,188.17,78.77z"/>
	</g>
</g>
</svg>
