<?xml version="1.0" encoding="utf-8"?>
<!-- Generator: Adobe Illustrator 23.0.0, SVG Export Plug-In . SVG Version: 6.00 Build 0)  -->
<svg version="1.1" id="图层_1" xmlns="http://www.w3.org/2000/svg" xmlns:xlink="http://www.w3.org/1999/xlink" x="0px" y="0px"
	 viewBox="0 0 200 200" style="enable-background:new 0 0 200 200;" xml:space="preserve">
<style type="text/css">
	.st0{fill:#333333;}
</style>
<path class="st0" d="M188.17,78.77h0.09l-0.46-1.41c-0.38-1.53-0.83-3.03-1.45-4.45l-21.83-46.39c-1.82-5.59-6.94-9.36-12.71-9.36
	H50.52c-5.77,0-10.89,3.77-12.71,9.36L15.88,73.18c-0.23,0.54-0.36,1.13-0.55,1.7l-1.27,3.89h0.15c-1.18,6.19-0.65,13.01,4.8,20.53
	c2.09,2.88,4.64,5.4,7.5,7.4v51.15c0,9.42,7.66,17.08,17.07,17.08h115.85c9.41,0,17.07-7.66,17.07-17.08V106.3
	c2.61-1.93,4.94-4.31,6.88-6.99C188.82,91.78,189.35,84.96,188.17,78.77z M26.49,81.11l0.05-0.27l0.6-1.85
	c0.12-0.33,0.22-0.67,0.36-1.11l21.63-46.03l0.33-0.7l0.24-0.74c0.14-0.44,0.48-0.74,0.83-0.74H151.8c0.35,0,0.69,0.3,0.83,0.74
	l0.24,0.74l0.33,0.71l21.74,46.18c0.25,0.6,0.48,1.35,0.72,2.31l0.11,0.45l0.14,0.43c0.62,3.39,0.39,6.53-2.67,10.75
	c-3.12,4.31-7.34,6.89-11.36,6.91c-3.81,0-7.42-1.63-10.16-4.59c-2.6-2.8-6.27-4.41-10.07-4.41c-3.8,0-7.47,1.61-10.07,4.41
	c-2.75,2.96-6.36,4.59-10.17,4.59c-3.81,0-7.42-1.63-10.17-4.59c-2.6-2.8-6.27-4.41-10.06-4.41c-3.8,0-7.47,1.61-10.06,4.41
	c-2.75,2.96-6.36,4.59-10.17,4.59c-3.81,0-7.42-1.63-10.17-4.59c-2.6-2.8-6.27-4.4-10.07-4.4c-3.8,0-7.47,1.61-10.07,4.41
	c-2.75,2.96-6.36,4.59-10.23,4.59c-3.96-0.02-8.18-2.6-11.3-6.91C26.04,87.7,25.84,84.54,26.49,81.11z M164,157.87
	c0,2.53-2.05,4.58-4.57,4.58H43.57c-2.52,0-4.57-2.05-4.57-4.58v-46.58c0.46,0.03,0.91,0.1,1.37,0.1c0.04,0,0.08,0,0.12,0
	c7.64,0,14.45-3.34,19.33-8.58c0.25-0.27,0.58-0.41,0.91-0.41c0.33,0,0.65,0.14,0.91,0.41c4.87,5.25,11.69,8.58,19.33,8.58
	c7.64,0,14.46-3.34,19.33-8.59c0.25-0.27,0.58-0.41,0.9-0.41s0.65,0.14,0.9,0.41c4.87,5.25,11.69,8.59,19.33,8.59
	c7.64,0,14.45-3.34,19.33-8.58c0.25-0.27,0.58-0.41,0.91-0.41c0.33,0,0.65,0.14,0.91,0.41c4.87,5.25,11.69,8.58,19.33,8.58
	c0.04,0,0.08,0,0.12,0c0.67,0,1.33-0.09,1.99-0.15V157.87z"/>
</svg>
