<?xml version="1.0" encoding="utf-8"?>
<!-- Generator: Adobe Illustrator 23.0.0, SVG Export Plug-In . SVG Version: 6.00 Build 0)  -->
<svg version="1.1" id="图层_1" xmlns="http://www.w3.org/2000/svg" xmlns:xlink="http://www.w3.org/1999/xlink" x="0px" y="0px"
	 viewBox="0 0 200 200" style="enable-background:new 0 0 200 200;" xml:space="preserve">
<style type="text/css">
	.st0{fill:#333333;}
</style>
<path class="st0" d="M162.5,37.5h-17.39v-6.11c0-3.45-2.8-6.25-6.25-6.25s-6.25,2.8-6.25,6.25v6.11H63.86v-6.11
	c0-3.45-2.8-6.25-6.25-6.25s-6.25,2.8-6.25,6.25v6.11H37.5C30.6,37.5,25,43.1,25,50v112.5c0,6.9,5.6,12.5,12.5,12.5h125
	c6.9,0,12.5-5.6,12.5-12.5V50C175,43.1,169.4,37.5,162.5,37.5z M51.36,50v6.25c0,3.45,2.8,6.25,6.25,6.25s6.25-2.8,6.25-6.25V50
	h68.75v6.25c0,3.45,2.8,6.25,6.25,6.25s6.25-2.8,6.25-6.25V50h17.39v32.01h-125V50H51.36z M37.5,162.5V94.51h125v67.99H37.5z"/>
<g>
	<g>
		<path class="st0" d="M95.86,147.43c-2,0-3.99-0.76-5.51-2.28l-15.14-15.13c-1.95-1.95-1.95-5.11,0-7.07s5.11-1.95,7.07,0
			l13.57,13.57l29.36-29.35c1.95-1.95,5.11-1.95,7.07,0s1.95,5.11,0,7.07l-30.91,30.91C99.85,146.66,97.85,147.43,95.86,147.43z"/>
	</g>
</g>
</svg>
