<?xml version="1.0" encoding="utf-8"?>
<!-- Generator: Adobe Illustrator 23.0.0, SVG Export Plug-In . SVG Version: 6.00 Build 0)  -->
<svg version="1.1" id="图层_1" xmlns="http://www.w3.org/2000/svg" xmlns:xlink="http://www.w3.org/1999/xlink" x="0px" y="0px"
	 viewBox="0 0 200 200" style="enable-background:new 0 0 200 200;" xml:space="preserve">
<style type="text/css">
	.st0{fill:#333333;}
</style>
<g>
	<g>
		<g>
			<path class="st0" d="M50,156.23c-3.45,0-6.25-2.8-6.25-6.25V50.01c0-3.45,2.8-6.25,6.25-6.25s6.25,2.8,6.25,6.25v99.98
				C56.25,153.44,53.45,156.23,50,156.23z"/>
		</g>
	</g>
	<g>
		<g>
			<path class="st0" d="M100,156.23c-3.45,0-6.25-2.8-6.25-6.25V50.01c0-3.45,2.8-6.25,6.25-6.25s6.25,2.8,6.25,6.25v99.98
				C106.25,153.44,103.45,156.23,100,156.23z"/>
		</g>
	</g>
	<g>
		<g>
			<path class="st0" d="M150,156.21c-3.45,0-6.25-2.8-6.25-6.25V49.98c0-3.45,2.8-6.25,6.25-6.25s6.25,2.8,6.25,6.25v99.98
				C156.25,153.41,153.45,156.21,150,156.21z"/>
		</g>
	</g>
</g>
</svg>
