<?xml version="1.0" encoding="utf-8"?>
<!-- Generator: Adobe Illustrator 23.0.0, SVG Export Plug-In . SVG Version: 6.00 Build 0)  -->
<svg version="1.1" id="图层_1" xmlns="http://www.w3.org/2000/svg" xmlns:xlink="http://www.w3.org/1999/xlink" x="0px" y="0px"
	 viewBox="0 0 200 200" style="enable-background:new 0 0 200 200;" xml:space="preserve">
<style type="text/css">
	.st0{fill:#333333;}
</style>
<g>
	<g>
		<path class="st0" d="M100,40.09l14.91,30.22c3.03,6.14,8.89,10.4,15.67,11.39l33.35,4.85l-24.13,23.52
			c-4.91,4.78-7.15,11.67-5.99,18.43l5.7,33.21l-29.83-15.68c-2.98-1.56-6.32-2.39-9.69-2.39c-3.36,0-6.71,0.83-9.69,2.39
			L60.49,161.7l5.7-33.21c1.16-6.75-1.08-13.64-5.99-18.43L36.07,86.54l33.35-4.85c6.78-0.99,12.64-5.24,15.67-11.39L100,40.09
			 M100,22.32c-2.97,0-5.93,1.55-7.46,4.64L73.88,64.77c-1.21,2.45-3.55,4.16-6.26,4.55l-41.74,6.06
			c-6.82,0.99-9.55,9.37-4.61,14.19l30.2,29.44c1.96,1.91,2.85,4.66,2.39,7.36l-7.13,41.57c-0.92,5.38,3.35,9.74,8.2,9.74
			c1.28,0,2.6-0.3,3.87-0.97l37.33-19.63c1.21-0.64,2.54-0.96,3.87-0.96c1.33,0,2.66,0.32,3.87,0.96l37.33,19.63
			c1.27,0.67,2.59,0.97,3.87,0.97c4.85,0,9.12-4.37,8.2-9.74l-7.13-41.57c-0.46-2.7,0.43-5.45,2.39-7.36l30.2-29.44
			c4.94-4.81,2.21-13.19-4.61-14.19l-41.74-6.06c-2.71-0.39-5.05-2.1-6.26-4.55l-18.66-37.82C105.93,23.86,102.97,22.32,100,22.32
			L100,22.32z"/>
	</g>
</g>
</svg>
