<?xml version="1.0" encoding="utf-8"?>
<!-- Generator: Adobe Illustrator 23.0.0, SVG Export Plug-In . SVG Version: 6.00 Build 0)  -->
<svg version="1.1" id="图层_1" xmlns="http://www.w3.org/2000/svg" xmlns:xlink="http://www.w3.org/1999/xlink" x="0px" y="0px"
	 viewBox="0 0 200 200" style="enable-background:new 0 0 200 200;" xml:space="preserve">
<style type="text/css">
	.st0{fill:#333333;}
</style>
<g>
	<path class="st0" d="M107.46,26.96l18.66,37.82c1.21,2.45,3.55,4.16,6.26,4.55l41.74,6.06c6.82,0.99,9.55,9.37,4.61,14.19
		l-30.2,29.44c-1.96,1.91-2.85,4.66-2.39,7.36l7.13,41.57c1.17,6.79-5.97,11.97-12.07,8.77l-37.33-19.63
		c-2.42-1.27-5.32-1.27-7.74,0L58.8,176.71c-6.1,3.21-13.23-1.97-12.07-8.77l7.13-41.57c0.46-2.7-0.43-5.45-2.39-7.36l-30.2-29.44
		c-4.94-4.81-2.21-13.19,4.61-14.19l41.74-6.06c2.71-0.39,5.05-2.09,6.26-4.55l18.66-37.82C95.59,20.77,104.41,20.77,107.46,26.96z"
		/>
</g>
</svg>
