<?xml version="1.0" encoding="utf-8"?>
<!-- Generator: Adobe Illustrator 23.0.0, SVG Export Plug-In . SVG Version: 6.00 Build 0)  -->
<svg version="1.1" id="图层_1" xmlns="http://www.w3.org/2000/svg" xmlns:xlink="http://www.w3.org/1999/xlink" x="0px" y="0px"
	 viewBox="0 0 200 200" style="enable-background:new 0 0 200 200;" xml:space="preserve">
<style type="text/css">
	.st0{fill:#333333;}
</style>
<path class="st0" d="M174.49,83.36c4.94-4.81,2.21-13.19-4.61-14.19l-41.74-6.06c-2.71-0.39-5.05-2.1-6.26-4.55l-18.66-37.82
	c-1.53-3.09-4.49-4.64-7.46-4.64s-5.93,1.55-7.46,4.64L69.64,58.56c-0.61,1.23-1.49,2.27-2.57,3.05c-1.08,0.78-2.34,1.31-3.69,1.5
	l-41.74,6.06c-4.26,0.62-6.93,4.13-7.12,7.84c0,0.06,0.02,0.13,0.02,0.19c-0.03,1.14,0.22,2.28,0.68,3.38
	c0.41,0.99,0.96,1.94,1.81,2.77l30.2,29.44c1.47,1.43,2.34,3.34,2.49,5.34c0.05,0.67,0.02,1.35-0.1,2.02l-7.13,41.57
	c-0.13,0.78-0.13,1.52-0.06,2.25c0.02,0.23,0.08,0.44,0.12,0.66c0.09,0.49,0.21,0.97,0.39,1.43c0.08,0.22,0.17,0.44,0.27,0.65
	c0.22,0.45,0.47,0.86,0.76,1.26c0.11,0.16,0.21,0.32,0.34,0.47c0.44,0.52,0.92,0.99,1.46,1.39c0.08,0.06,0.17,0.09,0.25,0.15
	c0.48,0.33,0.99,0.61,1.53,0.83c0.2,0.08,0.41,0.14,0.62,0.21c0.45,0.15,0.91,0.26,1.38,0.32c0.23,0.03,0.46,0.06,0.69,0.08
	c0.15,0.01,0.3,0.05,0.45,0.05c0.34,0,0.68-0.08,1.02-0.12c0.23-0.03,0.46-0.03,0.69-0.08c0.72-0.16,1.45-0.39,2.16-0.76
	l37.33-19.63c1.21-0.64,2.54-0.96,3.87-0.96s2.66,0.32,3.87,0.96l37.33,19.63c1.27,0.67,2.59,0.97,3.87,0.97
	c4.85,0,9.12-4.37,8.2-9.74l-7.13-41.57c-0.46-2.7,0.43-5.45,2.39-7.36L174.49,83.36z M135.57,103.85
	c-4.91,4.78-7.15,11.67-5.99,18.43l5.7,33.21l-29.83-15.68c-1.82-0.96-3.8-1.53-5.82-1.92V41.72l11.04,22.38
	c3.03,6.15,8.89,10.4,15.67,11.39l33.35,4.85L135.57,103.85z"/>
</svg>
