<?xml version="1.0" encoding="utf-8"?>
<!-- Generator: Adobe Illustrator 23.0.0, SVG Export Plug-In . SVG Version: 6.00 Build 0)  -->
<svg version="1.1" id="图层_1" xmlns="http://www.w3.org/2000/svg" xmlns:xlink="http://www.w3.org/1999/xlink" x="0px" y="0px"
	 viewBox="0 0 200 200" style="enable-background:new 0 0 200 200;" xml:space="preserve">
<style type="text/css">
	.st0{fill:#333333;}
</style>
<g>
	<path class="st0" d="M53.78,141.59H30.31c-6.77,0-12.29-5.51-12.29-12.28V51.04c0-6.77,5.51-12.28,12.29-12.28h23.47
		c3.45,0,6.25,2.8,6.25,6.25v90.33C60.03,138.79,57.23,141.59,53.78,141.59z M30.31,51.26l0.21,78.05l17-0.16V51.26H30.31z"/>
</g>
<g>
	<path class="st0" d="M106.97,188.75c-3.42,0-6.85-0.98-9.89-2.92c-5.63-3.59-8.95-9.73-8.89-16.41
		c0.09-10.57-2.66-19.96-7.18-24.53c-2.2-2.22-4.82-3.31-7.98-3.31H55.05c-3.45,0-6.25-2.8-6.25-6.25V45.01
		c0-3.45,2.8-6.25,6.25-6.25h80.77c21.28,0,37.11,15.65,43.42,42.94c4.76,20.6,7.35,31.27,7.35,31.29c0.12,0.48,0.18,0.98,0.18,1.47
		c0,14.96-11.98,27.12-26.7,27.12h-20.94c-0.05,11.85-3.03,35.24-24.44,45.42C112.23,188.17,109.6,188.75,106.97,188.75z
		 M61.3,129.09h11.72c6.48,0,12.31,2.42,16.85,7c9.93,10.02,10.87,26.73,10.81,33.44c-0.02,2.35,1.14,4.5,3.12,5.76
		c1.03,0.65,3.11,1.58,5.51,0.42c18.86-8.97,17.58-34.08,17.13-39.03c-0.16-1.74,0.6-4.02,1.78-5.32c1.32-1.45,3.21-2.29,5.19-2.29
		h26.67c7.61,0,13.84-6.2,14.19-13.94c-0.68-2.83-3.16-13.18-7.2-30.63c-2.87-12.42-10.75-33.25-31.24-33.25H61.3V129.09z
		 M138.88,135.53c0.01,0.02,0.01,0.04,0.01,0.06C138.89,135.57,138.89,135.55,138.88,135.53z"/>
</g>
</svg>
