<?xml version="1.0" encoding="utf-8"?>
<!-- Generator: Adobe Illustrator 23.0.0, SVG Export Plug-In . SVG Version: 6.00 Build 0)  -->
<svg version="1.1" id="图层_1" xmlns="http://www.w3.org/2000/svg" xmlns:xlink="http://www.w3.org/1999/xlink" x="0px" y="0px"
	 viewBox="0 0 200 200" style="enable-background:new 0 0 200 200;" xml:space="preserve">
<style type="text/css">
	.st0{fill:#333333;}
</style>
<g>
	<path class="st0" d="M100,31.25c37.91,0,68.75,30.84,68.75,68.75s-30.84,68.75-68.75,68.75S31.25,137.91,31.25,100
		S62.09,31.25,100,31.25 M100,18.75c-44.87,0-81.25,36.38-81.25,81.25s36.38,81.25,81.25,81.25s81.25-36.38,81.25-81.25
		S144.87,18.75,100,18.75L100,18.75z"/>
</g>
<g>
	<path class="st0" d="M88.17,74.88L121.65,100l-33.47,25.12V74.88 M82.11,56.27c-3.32,0-6.43,2.62-6.43,6.42v74.63
		c0,3.79,3.11,6.42,6.43,6.42c1.3,0,2.63-0.4,3.82-1.29l49.72-37.31c3.41-2.56,3.41-7.69,0-10.25L85.93,57.56
		C84.74,56.67,83.41,56.27,82.11,56.27L82.11,56.27z"/>
</g>
</svg>
