<?xml version="1.0" encoding="utf-8"?>
<!-- Generator: Adobe Illustrator 23.0.0, SVG Export Plug-In . SVG Version: 6.00 Build 0)  -->
<svg version="1.1" id="图层_1" xmlns="http://www.w3.org/2000/svg" xmlns:xlink="http://www.w3.org/1999/xlink" x="0px" y="0px"
	 viewBox="0 0 200 200" style="enable-background:new 0 0 200 200;" xml:space="preserve">
<style type="text/css">
	.st0{fill:#333333;}
</style>
<g>
	<path class="st0" d="M100.67,30.12c37.91,0,68.75,30.84,68.75,68.75s-30.84,68.75-68.75,68.75s-68.75-30.84-68.75-68.75
		S62.76,30.12,100.67,30.12 M100.67,17.62C55.8,17.62,19.42,54,19.42,98.87s36.38,81.25,81.25,81.25
		c44.87,0,81.25-36.38,81.25-81.25S145.54,17.62,100.67,17.62L100.67,17.62z"/>
</g>
<g>
	<path class="st0" d="M132.55,116.21l-3.38-3.82c-3.32-3.75-9.05-4.1-12.8-0.79l-3.82,3.38c-1.63,1.45-2.5,3.37-2.82,5.37
		c-13.17-4.07-23.58-14.48-27.64-27.66c0.66-0.2,1.31-0.47,1.93-0.83l3.84-2.22c4.5-2.6,6.04-8.34,3.44-12.84l-2.22-3.84
		c-2.6-4.5-8.34-6.04-12.84-3.44l-3.84,2.22c-3.18,1.83-4.84,5.24-4.65,8.67h-0.01c0,0.17,0.02,0.33,0.02,0.49
		c0.01,0.05,0,0.11,0.01,0.16c0.35,29.63,24.54,53.64,54.26,53.64v-0.15c2.1-0.02,4.21-0.67,5.91-2.17l3.82-3.38
		C135.52,125.69,135.87,119.96,132.55,116.21z"/>
</g>
</svg>
