<?xml version="1.0" encoding="utf-8"?>
<!-- Generator: Adobe Illustrator 23.0.0, SVG Export Plug-In . SVG Version: 6.00 Build 0)  -->
<svg version="1.1" id="图层_1" xmlns="http://www.w3.org/2000/svg" xmlns:xlink="http://www.w3.org/1999/xlink" x="0px" y="0px"
	 viewBox="0 0 200 200" style="enable-background:new 0 0 200 200;" xml:space="preserve">
<style type="text/css">
	.st0{fill:#333333;}
</style>
<g>
	<g>
		<path class="st0" d="M100,172.6c-3.45,0-6.25-2.8-6.25-6.25v-100c0-3.45,2.8-6.25,6.25-6.25s6.25,2.8,6.25,6.25v100
			C106.25,169.8,103.45,172.6,100,172.6z"/>
	</g>
	<g>
		<path class="st0" d="M144.2,107.19c-1.6,0-3.2-0.61-4.42-1.83L100,65.58l-39.77,39.78c-2.44,2.44-6.4,2.44-8.84,0
			s-2.44-6.4,0-8.84L94.7,53.21c1.4-1.41,3.28-2.19,5.29-2.2c0.01,0,0.01,0,0.01,0c2.01,0,3.89,0.78,5.3,2.2l43.31,43.31
			c2.44,2.44,2.44,6.4,0,8.84C147.39,106.58,145.79,107.19,144.2,107.19z M103.55,62.04l-0.02,0.02
			C103.54,62.05,103.54,62.04,103.55,62.04z"/>
	</g>
	<g>
		<path class="st0" d="M150,43.9H50c-3.45,0-6.25-2.8-6.25-6.25s2.8-6.25,6.25-6.25h100c3.45,0,6.25,2.8,6.25,6.25
			S153.45,43.9,150,43.9z"/>
	</g>
</g>
</svg>
