<?xml version="1.0" encoding="utf-8"?>
<!-- Generator: Adobe Illustrator 23.0.0, SVG Export Plug-In . SVG Version: 6.00 Build 0)  -->
<svg version="1.1" id="图层_1" xmlns="http://www.w3.org/2000/svg" xmlns:xlink="http://www.w3.org/1999/xlink" x="0px" y="0px"
	 viewBox="0 0 200 200" style="enable-background:new 0 0 200 200;" xml:space="preserve">
<style type="text/css">
	.st0{fill:#333333;}
</style>
<g>
	<g>
		<g>
			<path class="st0" d="M151.14,101.91c0,1.6-0.61,3.2-1.83,4.42c-2.44,2.44-6.4,2.44-8.84,0l-40.7-40.7l-40.91,40.7
				c-2.44,2.44-6.4,2.44-8.84,0s-2.44-6.4,0-8.84l40.7-40.7c4.94-4.93,12.96-4.93,17.88,0l40.7,40.7
				C150.53,98.71,151.14,100.31,151.14,101.91z"/>
		</g>
	</g>
	<g>
		<g>
			<path class="st0" d="M151.14,146.83c0,1.6-0.61,3.2-1.83,4.42c-2.44,2.44-6.4,2.44-8.84,0l-40.7-40.7l-40.91,40.7
				c-2.44,2.44-6.4,2.44-8.84,0s-2.44-6.4,0-8.84l40.7-40.7c4.94-4.93,12.96-4.93,17.88,0l40.7,40.7
				C150.53,143.64,151.14,145.24,151.14,146.83z"/>
		</g>
	</g>
</g>
</svg>
