<?xml version="1.0" encoding="utf-8"?>
<!-- Generator: Adobe Illustrator 23.0.0, SVG Export Plug-In . SVG Version: 6.00 Build 0)  -->
<svg version="1.1" id="图层_1" xmlns="http://www.w3.org/2000/svg" xmlns:xlink="http://www.w3.org/1999/xlink" x="0px" y="0px"
	 viewBox="0 0 200 200" style="enable-background:new 0 0 200 200;" xml:space="preserve">
<style type="text/css">
	.st0{fill:none;}
	.st1{fill:#333333;}
</style>
<g>
	<g>
		<polygon class="st0" points="118.47,102.42 125.44,106.44 125.44,98.4 		"/>
	</g>
</g>
<g>
	<g>
		<polygon class="st0" points="178.12,136.86 178.12,67.98 137.94,91.19 137.94,113.66 		"/>
	</g>
</g>
<g>
	<g>
		<path class="st0" d="M112.11,91.66l13.32-7.69v-19.3c0-2.51-2.04-4.55-4.55-4.55H32.67c-2.51,0-4.55,2.04-4.55,4.55v76.92
			c0,2.51,2.04,4.55,4.55,4.55h88.21c2.51,0,4.55-2.04,4.55-4.55v-20.71l-14.15-8.17C103.19,108.03,103.19,96.34,112.11,91.66z"/>
	</g>
</g>
<g>
	<g>
		<polygon class="st1" points="125.44,106.44 137.94,113.66 137.94,91.19 125.44,98.4 		"/>
	</g>
</g>
<g>
	<g>
		<g>
			<path class="st1" d="M178.81,54.73c-1.91,0-3.83,0.52-5.59,1.65l-35.29,20.37v14.43l40.19-23.2l0,68.88l-40.19-23.2v14.43
				l34.46,19.9c1.96,1.13,4.03,1.65,6.06,1.65c6.35,0,12.17-5.08,12.17-12.17V66.9C190.62,59.81,184.8,54.73,178.81,54.73z"/>
		</g>
	</g>
	<g>
		<g>
			<path class="st1" d="M125.44,141.59c0,2.51-2.04,4.55-4.55,4.55H32.67c-2.51,0-4.55-2.04-4.55-4.55V64.66
				c0-2.51,2.04-4.55,4.55-4.55h88.21c2.51,0,4.55,2.04,4.55,4.55v19.3l12.5-7.22V64.66c0-9.42-7.63-17.05-17.05-17.05H32.67
				c-9.42,0-17.05,7.63-17.05,17.05v76.92c0,9.42,7.63,17.05,17.05,17.05h88.21c9.42,0,17.05-7.63,17.05-17.05v-13.49l-12.5-7.22
				V141.59z"/>
		</g>
	</g>
</g>
<g>
	<g>
		<polygon class="st1" points="125.44,106.44 125.44,120.88 137.94,128.09 137.94,113.66 		"/>
	</g>
</g>
<g>
	<g>
		<polygon class="st1" points="125.44,98.4 137.94,91.19 137.94,76.75 125.44,83.97 		"/>
	</g>
</g>
</svg>
