<?xml version="1.0" encoding="utf-8"?>
<!-- Generator: Adobe Illustrator 23.0.0, SVG Export Plug-In . SVG Version: 6.00 Build 0)  -->
<svg version="1.1" id="图层_1" xmlns="http://www.w3.org/2000/svg" xmlns:xlink="http://www.w3.org/1999/xlink" x="0px" y="0px"
	 viewBox="0 0 200 200" style="enable-background:new 0 0 200 200;" xml:space="preserve">
<style type="text/css">
	.st0{fill:#333333;}
</style>
<g>
	<path class="st0" d="M100,56.25c24.55,0,50.23,21.95,67.16,43.75c-16.93,21.8-42.61,43.75-67.16,43.75S49.77,121.8,32.84,100
		C49.77,78.2,75.45,56.25,100,56.25 M100,43.75c-38.52,0-70.89,40.08-80.05,52.58c-1.6,2.19-1.6,5.16,0,7.35
		c9.15,12.5,41.52,52.58,80.05,52.58s70.89-40.08,80.05-52.58c1.6-2.19,1.6-5.16,0-7.35C170.89,83.83,138.52,43.75,100,43.75
		L100,43.75z"/>
</g>
<g>
	<path class="st0" d="M100,125c-13.78,0-25-11.22-25-25s11.22-25,25-25s25,11.22,25,25S113.78,125,100,125z M100,87.5
		c-6.89,0-12.5,5.61-12.5,12.5s5.61,12.5,12.5,12.5s12.5-5.61,12.5-12.5S106.89,87.5,100,87.5z"/>
</g>
</svg>
