<?xml version="1.0" encoding="utf-8"?>
<!-- Generator: Adobe Illustrator 23.0.0, SVG Export Plug-In . SVG Version: 6.00 Build 0)  -->
<svg version="1.1" id="图层_1" xmlns="http://www.w3.org/2000/svg" xmlns:xlink="http://www.w3.org/1999/xlink" x="0px" y="0px"
	 viewBox="0 0 200 200" style="enable-background:new 0 0 200 200;" xml:space="preserve">
<style type="text/css">
	.st0{fill:#333333;}
</style>
<g>
	<g>
		<path class="st0" d="M100,31.25c37.91,0,68.75,30.84,68.75,68.75s-30.84,68.75-68.75,68.75S31.25,137.91,31.25,100
			S62.09,31.25,100,31.25 M100,18.75c-44.87,0-81.25,36.38-81.25,81.25s36.38,81.25,81.25,81.25s81.25-36.38,81.25-81.25
			S144.87,18.75,100,18.75L100,18.75z"/>
	</g>
</g>
<g>
	<path class="st0" d="M100,56.25c6.89,0,12.5,5.61,12.5,12.5v25c0,6.89-5.61,12.5-12.5,12.5s-12.5-5.61-12.5-12.5v-25
		C87.5,61.86,93.11,56.25,100,56.25 M100,43.75c-13.81,0-25,11.19-25,25v25c0,13.81,11.19,25,25,25s25-11.19,25-25v-25
		C125,54.94,113.81,43.75,100,43.75L100,43.75z"/>
</g>
<g>
	<path class="st0" d="M100,143.75c-26.42,0-47.92-21.49-47.92-47.92c0-3.45,2.8-6.25,6.25-6.25s6.25,2.8,6.25,6.25
		c0,19.53,15.89,35.42,35.42,35.42s35.42-15.89,35.42-35.42c0-3.45,2.8-6.25,6.25-6.25s6.25,2.8,6.25,6.25
		C147.92,122.26,126.42,143.75,100,143.75z"/>
</g>
<g>
	<path class="st0" d="M100,162.5c-3.45,0-6.25-2.8-6.25-6.25V137.5c0-3.45,2.8-6.25,6.25-6.25s6.25,2.8,6.25,6.25v18.75
		C106.25,159.7,103.45,162.5,100,162.5z"/>
</g>
</svg>
