<?xml version="1.0" encoding="utf-8"?>
<!-- Generator: Adobe Illustrator 23.0.0, SVG Export Plug-In . SVG Version: 6.00 Build 0)  -->
<svg version="1.1" id="图层_1" xmlns="http://www.w3.org/2000/svg" xmlns:xlink="http://www.w3.org/1999/xlink" x="0px" y="0px"
	 viewBox="0 0 200 200" style="enable-background:new 0 0 200 200;" xml:space="preserve">
<style type="text/css">
	.st0{fill:none;}
	.st1{fill:#333333;}
</style>
<g>
	<g>
		<rect x="37.5" y="62.5" class="st0" width="100" height="100"/>
	</g>
</g>
<g>
	<g>
		<rect x="150" y="62.5" class="st0" width="12.5" height="100"/>
	</g>
</g>
<g>
	<g>
		<rect x="37.5" y="37.5" class="st0" width="100" height="12.5"/>
	</g>
</g>
<g>
	<g>
		<path class="st1" d="M36.41,50h1.09V37.5h100V50H150V36.41c0-6.3-5.11-11.41-11.41-11.41H36.41C30.11,25,25,30.11,25,36.41v25
			C25,55.11,30.11,50,36.41,50z"/>
	</g>
</g>
<g>
	<g>
		<path class="st1" d="M25,163.59c0,3.94,2,7.41,5.03,9.46C27,171,25,167.53,25,163.59z"/>
	</g>
</g>
<g>
	<g>
		<rect x="37.5" y="50" class="st1" width="100" height="12.5"/>
	</g>
</g>
<g>
	<g>
		<path class="st1" d="M163.59,50H150v12.5h12.5v100H150v1.09c0,6.3-5.11,11.41-11.41,11.41h25c6.3,0,11.41-5.11,11.41-11.41V61.41
			C175,55.11,169.89,50,163.59,50z"/>
	</g>
</g>
<g>
	<g>
		<path class="st1" d="M150,163.59v-1.09h-12.5h-100v-100V50h-1.09C30.11,50,25,55.11,25,61.41v102.18c0,3.94,2,7.41,5.03,9.46
			c1.82,1.23,4.02,1.95,6.38,1.95h102.18C144.89,175,150,169.89,150,163.59z"/>
	</g>
</g>
<g>
	<g>
		<rect x="137.5" y="50" class="st1" width="12.5" height="12.5"/>
	</g>
</g>
<g>
	<g>
		<path class="st1" d="M162.6,93.75l0.29,37.5h-42.29c-10.34,0-18.75-8.41-18.75-18.75s8.41-18.75,18.75-18.75H162.6 M175,81.25
			h-54.41c-17.26,0-31.25,13.99-31.25,31.25s13.99,31.25,31.25,31.25h54.89L175,81.25L175,81.25z"/>
	</g>
</g>
<g>
	<g>
		<path class="st1" d="M125,100c-6.9,0-12.5,5.6-12.5,12.5S118.1,125,125,125s12.5-5.6,12.5-12.5S131.9,100,125,100L125,100z"/>
	</g>
</g>
</svg>
