<?xml version="1.0" encoding="utf-8"?>
<!-- Generator: Adobe Illustrator 23.0.0, SVG Export Plug-In . SVG Version: 6.00 Build 0)  -->
<svg version="1.1" id="图层_1" xmlns="http://www.w3.org/2000/svg" xmlns:xlink="http://www.w3.org/1999/xlink" x="0px" y="0px"
	 viewBox="0 0 200 200" style="enable-background:new 0 0 200 200;" xml:space="preserve">
<style type="text/css">
	.st0{fill:#333333;}
</style>
<g>
	<g>
		<path class="st0" d="M100,18.75c-44.87,0-81.25,36.38-81.25,81.25s36.38,81.25,81.25,81.25s81.25-36.38,81.25-81.25
			S144.87,18.75,100,18.75z M93.75,55.08c0-3.45,2.8-6.25,6.25-6.25s6.25,2.8,6.25,6.25v56.25c0,3.45-2.8,6.25-6.25,6.25
			s-6.25-2.8-6.25-6.25V55.08z M99.73,150.1c-5.18-0.15-9.25-4.47-9.1-9.64c0.15-5.18,4.47-9.25,9.64-9.1
			c5.18,0.15,9.25,4.47,9.1,9.64C109.22,146.17,104.91,150.25,99.73,150.1z"/>
	</g>
</g>
</svg>
