<?xml version="1.0" encoding="utf-8"?>
<!-- Generator: Adobe Illustrator 23.0.0, SVG Export Plug-In . SVG Version: 6.00 Build 0)  -->
<svg version="1.1" id="图层_1" xmlns="http://www.w3.org/2000/svg" xmlns:xlink="http://www.w3.org/1999/xlink" x="0px" y="0px"
	 viewBox="0 0 200 200" style="enable-background:new 0 0 200 200;" xml:space="preserve">
<style type="text/css">
	.st0{fill:#333333;}
</style>
<g>
	<g>
		<g>
			<path class="st0" d="M100,31.25c37.91,0,68.75,30.84,68.75,68.75s-30.84,68.75-68.75,68.75S31.25,137.91,31.25,100
				S62.09,31.25,100,31.25 M100,18.75c-44.87,0-81.25,36.38-81.25,81.25c0,44.87,36.38,81.25,81.25,81.25s81.25-36.38,81.25-81.25
				C181.25,55.13,144.87,18.75,100,18.75L100,18.75z"/>
		</g>
	</g>
	<g>
		<g>
			<circle class="st0" cx="100" cy="140.73" r="9.38"/>
		</g>
	</g>
	<g>
		<g>
			<path class="st0" d="M100,117.58c-3.45,0-6.25-2.8-6.25-6.25V55.08c0-3.45,2.8-6.25,6.25-6.25s6.25,2.8,6.25,6.25v56.25
				C106.25,114.78,103.46,117.58,100,117.58z"/>
		</g>
	</g>
</g>
</svg>
