<?xml version="1.0" encoding="utf-8"?>
<!-- Generator: Adobe Illustrator 23.0.0, SVG Export Plug-In . SVG Version: 6.00 Build 0)  -->
<svg version="1.1" id="图层_1" xmlns="http://www.w3.org/2000/svg" xmlns:xlink="http://www.w3.org/1999/xlink" x="0px" y="0px"
	 viewBox="0 0 200 200" style="enable-background:new 0 0 200 200;" xml:space="preserve">
<style type="text/css">
	.st0{fill:#333333;}
</style>
<g>
	<path class="st0" d="M76.7,73.45c-3.03,0-5.49,2.46-5.49,5.49c0,3.03,2.46,5.49,5.49,5.49c3.03,0,5.49-2.46,5.49-5.49
		C82.18,75.9,79.73,73.45,76.7,73.45z"/>
	<path class="st0" d="M113.58,99.66c-2.16,0-3.91,1.75-3.91,3.91c0,2.16,1.75,3.91,3.91,3.91s3.91-1.75,3.91-3.91
		C117.48,101.41,115.73,99.66,113.58,99.66z"/>
	<path class="st0" d="M101.52,84.31c3.03,0,5.49-2.46,5.49-5.49c0-3.03-2.46-5.49-5.49-5.49s-5.49,2.46-5.49,5.49
		C96.04,81.85,98.49,84.31,101.52,84.31z"/>
	<circle class="st0" cx="133.08" cy="103.78" r="3.91"/>
	<path class="st0" d="M100,18.75c-44.87,0-81.25,36.38-81.25,81.25s36.38,81.25,81.25,81.25s81.25-36.38,81.25-81.25
		S144.87,18.75,100,18.75z M88.47,119.33c-4.43,0-7.99-0.9-12.43-1.78l-12.4,6.22l3.55-10.67c-8.88-6.21-14.2-14.21-14.2-23.95
		c0-16.88,15.98-30.17,35.48-30.17c17.45,0,32.73,10.62,35.8,24.92c-1.13-0.13-2.27-0.21-3.42-0.21
		c-16.86,0-30.17,12.58-30.17,28.08c0,2.58,0.4,5.06,1.1,7.43C90.69,119.28,89.58,119.33,88.47,119.33z M140.56,131.88l2.67,8.87
		l-9.73-5.33c-3.55,0.89-7.11,1.78-10.65,1.78c-16.88,0-30.18-11.54-30.18-25.75c0-14.19,13.3-25.75,30.18-25.75
		c15.94,0,30.14,11.56,30.14,25.75C152.99,119.45,147.68,126.53,140.56,131.88z"/>
</g>
</svg>
