<?xml version="1.0" encoding="utf-8"?>
<!-- Generator: Adobe Illustrator 23.0.0, SVG Export Plug-In . SVG Version: 6.00 Build 0)  -->
<svg version="1.1" id="图层_1" xmlns="http://www.w3.org/2000/svg" xmlns:xlink="http://www.w3.org/1999/xlink" x="0px" y="0px"
	 viewBox="0 0 200 200" style="enable-background:new 0 0 200 200;" xml:space="preserve">
<style type="text/css">
	.st0{fill:#333333;}
</style>
<path class="st0" d="M100,18.75c-44.87,0-81.25,36.38-81.25,81.25s36.38,81.25,81.25,81.25c44.87,0,81.25-36.38,81.25-81.25
	S144.87,18.75,100,18.75z M100.13,138.42c-5.35,0-10.51-0.77-15.3-2.14c-0.44-0.13-0.9-0.21-1.38-0.21c-0.9,0-1.72,0.28-2.49,0.72
	l-10.26,5.92c-0.29,0.16-0.56,0.29-0.9,0.29c-0.86,0-1.56-0.7-1.56-1.56c0-0.39,0.15-0.77,0.25-1.14c0.06-0.22,1.32-4.93,2.11-7.88
	c0.09-0.33,0.16-0.65,0.16-1c0-1.05-0.52-1.98-1.31-2.55c-9.88-7.16-16.2-17.75-16.2-29.53c0-21.57,20.99-39.06,46.87-39.06
	c15.82,0,29.8,6.54,38.29,16.54L91.06,97.92c-0.5,0.18-1.04,0.29-1.6,0.29c-0.94,0-1.82-0.28-2.56-0.76l-10.07-7.17
	c-0.26-0.19-0.58-0.31-0.94-0.31c-0.86,0-1.56,0.7-1.56,1.56c0,0.22,0.06,0.45,0.15,0.66l8.53,18.72l0.2,0.45
	c0.53,0.95,1.55,1.6,2.72,1.6c0.51,0,0.98-0.12,1.41-0.34l0.34-0.2l53.97-31.16c3.4,5.41,5.34,11.57,5.34,18.1
	C147,120.93,126.01,138.42,100.13,138.42z"/>
</svg>
